<?xml version="1.0" encoding="UTF-8" standalone="no"?>
<!DOCTYPE svg PUBLIC "-//W3C//DTD SVG 1.1//EN"
 "http://www.w3.org/Graphics/SVG/1.1/DTD/svg11.dtd">
<!-- Generated by graphviz version 2.38.0 (20140413.2041)
 -->
<!-- Title: G Pages: 1 -->
<svg width="447pt" height="392pt"
 viewBox="0.00 0.00 446.90 392.00" xmlns="http://www.w3.org/2000/svg" xmlns:xlink="http://www.w3.org/1999/xlink">
<g id="graph0" class="graph" transform="scale(1 1) rotate(0) translate(4 388)">
<title>G</title>
<polygon fill="white" stroke="none" points="-4,4 -4,-388 442.897,-388 442.897,4 -4,4"/>
<!-- PEU -->
<g id="node1" class="node"><title>PEU</title>
<ellipse fill="none" stroke="black" cx="98" cy="-366" rx="31.3957" ry="18"/>
<text text-anchor="middle" x="98" y="-362.3" font-family="Times,serif" font-size="14.00">PEU</text>
</g>
<!-- BI -->
<g id="node2" class="node"><title>BI</title>
<ellipse fill="none" stroke="black" cx="27" cy="-279" rx="27" ry="18"/>
<text text-anchor="middle" x="27" y="-275.3" font-family="Times,serif" font-size="14.00">BI</text>
</g>
<!-- PEU&#45;&gt;BI -->
<g id="edge1" class="edge"><title>PEU&#45;&gt;BI</title>
<path fill="none" stroke="black" d="M78.1151,-351.866C69.9851,-345.853 60.8922,-338.233 54,-330 47.9919,-322.823 42.7287,-314.098 38.4834,-305.959"/>
<polygon fill="black" stroke="black" points="41.5348,-304.232 33.9838,-296.8 35.2521,-307.319 41.5348,-304.232"/>
<text text-anchor="middle" x="74.5" y="-318.8" font-family="Times,serif" font-size="14.00">0.038</text>
</g>
<!-- Qu -->
<g id="node7" class="node"><title>Qu</title>
<ellipse fill="none" stroke="black" cx="99" cy="-279" rx="27" ry="18"/>
<text text-anchor="middle" x="99" y="-275.3" font-family="Times,serif" font-size="14.00">Qu</text>
</g>
<!-- PEU&#45;&gt;Qu -->
<g id="edge6" class="edge"><title>PEU&#45;&gt;Qu</title>
<path fill="none" stroke="black" d="M98.2024,-347.799C98.3393,-336.163 98.523,-320.548 98.6796,-307.237"/>
<polygon fill="black" stroke="black" points="102.18,-307.216 98.7979,-297.175 95.1804,-307.134 102.18,-307.216"/>
<text text-anchor="middle" x="119.5" y="-318.8" font-family="Times,serif" font-size="14.00">0.017</text>
</g>
<!-- SA -->
<g id="node9" class="node"><title>SA</title>
<ellipse fill="none" stroke="black" cx="69" cy="-192" rx="27" ry="18"/>
<text text-anchor="middle" x="69" y="-188.3" font-family="Times,serif" font-size="14.00">SA</text>
</g>
<!-- BI&#45;&gt;SA -->
<g id="edge8" class="edge"><title>BI&#45;&gt;SA</title>
<path fill="none" stroke="black" d="M35.098,-261.611C41.1408,-249.382 49.5106,-232.443 56.4217,-218.456"/>
<polygon fill="black" stroke="black" points="59.6347,-219.854 60.9268,-209.339 53.359,-216.753 59.6347,-219.854"/>
<text text-anchor="middle" x="71.5" y="-231.8" font-family="Times,serif" font-size="14.00">0.013</text>
</g>
<!-- PU -->
<g id="node3" class="node"><title>PU</title>
<ellipse fill="none" stroke="black" cx="302" cy="-366" rx="27" ry="18"/>
<text text-anchor="middle" x="302" y="-362.3" font-family="Times,serif" font-size="14.00">PU</text>
</g>
<!-- Use -->
<g id="node4" class="node"><title>Use</title>
<ellipse fill="none" stroke="black" cx="226" cy="-279" rx="28.6953" ry="18"/>
<text text-anchor="middle" x="226" y="-275.3" font-family="Times,serif" font-size="14.00">Use</text>
</g>
<!-- PU&#45;&gt;Use -->
<g id="edge2" class="edge"><title>PU&#45;&gt;Use</title>
<path fill="none" stroke="black" d="M275.269,-363.215C252.907,-360.145 222.281,-351.915 207,-330 201.56,-322.198 203.514,-312.636 207.817,-303.97"/>
<polygon fill="black" stroke="black" points="210.826,-305.758 212.939,-295.376 204.813,-302.174 210.826,-305.758"/>
<text text-anchor="middle" x="227.5" y="-318.8" font-family="Times,serif" font-size="14.00">0.034</text>
</g>
<!-- Im -->
<g id="node6" class="node"><title>Im</title>
<ellipse fill="none" stroke="black" cx="334" cy="-279" rx="27" ry="18"/>
<text text-anchor="middle" x="334" y="-275.3" font-family="Times,serif" font-size="14.00">Im</text>
</g>
<!-- PU&#45;&gt;Im -->
<g id="edge5" class="edge"><title>PU&#45;&gt;Im</title>
<path fill="none" stroke="black" d="M308.322,-348.207C312.836,-336.216 318.997,-319.851 324.153,-306.157"/>
<polygon fill="black" stroke="black" points="327.443,-307.35 327.691,-296.758 320.892,-304.884 327.443,-307.35"/>
<text text-anchor="middle" x="340.5" y="-318.8" font-family="Times,serif" font-size="14.00">0.019</text>
</g>
<!-- ENJ -->
<g id="node8" class="node"><title>ENJ</title>
<ellipse fill="none" stroke="black" cx="409" cy="-279" rx="29.795" ry="18"/>
<text text-anchor="middle" x="409" y="-275.3" font-family="Times,serif" font-size="14.00">ENJ</text>
</g>
<!-- PU&#45;&gt;ENJ -->
<g id="edge7" class="edge"><title>PU&#45;&gt;ENJ</title>
<path fill="none" stroke="black" d="M323.85,-355.181C336.532,-348.934 352.43,-340.125 365,-330 374.514,-322.336 383.67,-312.481 391.142,-303.549"/>
<polygon fill="black" stroke="black" points="393.927,-305.672 397.493,-295.696 388.484,-301.271 393.927,-305.672"/>
<text text-anchor="middle" x="401.5" y="-318.8" font-family="Times,serif" font-size="14.00">0.017</text>
</g>
<!-- Use&#45;&gt;PU -->
<g id="edge3" class="edge"><title>Use&#45;&gt;PU</title>
<path fill="none" stroke="black" d="M239.341,-294.921C251.072,-308.041 268.32,-327.332 281.752,-342.354"/>
<polygon fill="black" stroke="black" points="279.487,-345.072 288.762,-350.194 284.706,-340.407 279.487,-345.072"/>
<text text-anchor="middle" x="289.5" y="-318.8" font-family="Times,serif" font-size="14.00">0.028</text>
</g>
<!-- JR -->
<g id="node5" class="node"><title>JR</title>
<ellipse fill="none" stroke="black" cx="121" cy="-105" rx="27" ry="18"/>
<text text-anchor="middle" x="121" y="-101.3" font-family="Times,serif" font-size="14.00">JR</text>
</g>
<!-- JR&#45;&gt;PEU -->
<g id="edge4" class="edge"><title>JR&#45;&gt;PEU</title>
<path fill="none" stroke="black" d="M131.672,-121.685C135.027,-127.492 138.298,-134.299 140,-141 160.674,-222.416 175.629,-253.93 140,-330 137.147,-336.092 132.654,-341.494 127.648,-346.12"/>
<polygon fill="black" stroke="black" points="125.065,-343.71 119.522,-352.74 129.486,-349.138 125.065,-343.71"/>
<text text-anchor="middle" x="178" y="-231.8" font-family="Times,serif" font-size="14.00">0.02</text>
</g>
<!-- Pf -->
<g id="node10" class="node"><title>Pf</title>
<ellipse fill="none" stroke="black" cx="121" cy="-18" rx="27" ry="18"/>
<text text-anchor="middle" x="121" y="-14.3" font-family="Times,serif" font-size="14.00">Pf</text>
</g>
<!-- JR&#45;&gt;Pf -->
<g id="edge9" class="edge"><title>JR&#45;&gt;Pf</title>
<path fill="none" stroke="black" d="M121,-86.799C121,-75.1626 121,-59.5479 121,-46.2368"/>
<polygon fill="black" stroke="black" points="124.5,-46.1754 121,-36.1754 117.5,-46.1755 124.5,-46.1754"/>
<text text-anchor="middle" x="141.5" y="-57.8" font-family="Times,serif" font-size="14.00">0.009</text>
</g>
<!-- SA&#45;&gt;JR -->
<g id="edge10" class="edge"><title>SA&#45;&gt;JR</title>
<path fill="none" stroke="black" d="M78.643,-174.736C84.4839,-164.932 92.1125,-152.214 99,-141 101.095,-137.589 103.322,-134.002 105.523,-130.479"/>
<polygon fill="black" stroke="black" points="108.502,-132.317 110.854,-121.987 102.573,-128.595 108.502,-132.317"/>
<text text-anchor="middle" x="119.5" y="-144.8" font-family="Times,serif" font-size="14.00">0.009</text>
</g>
</g>
</svg>
