<?xml version="1.0" encoding="UTF-8" standalone="no"?>
<!DOCTYPE svg PUBLIC "-//W3C//DTD SVG 1.1//EN"
 "http://www.w3.org/Graphics/SVG/1.1/DTD/svg11.dtd">
<!-- Generated by graphviz version 2.38.0 (20140413.2041)
 -->
<!-- Title: G Pages: 1 -->
<svg width="298pt" height="479pt"
 viewBox="0.00 0.00 297.60 479.00" xmlns="http://www.w3.org/2000/svg" xmlns:xlink="http://www.w3.org/1999/xlink">
<g id="graph0" class="graph" transform="scale(1 1) rotate(0) translate(4 475)">
<title>G</title>
<polygon fill="white" stroke="none" points="-4,4 -4,-475 293.597,-475 293.597,4 -4,4"/>
<!-- JR -->
<g id="node1" class="node"><title>JR</title>
<ellipse fill="none" stroke="black" cx="146.597" cy="-453" rx="27" ry="18"/>
<text text-anchor="middle" x="146.597" y="-449.3" font-family="Times,serif" font-size="14.00">JR</text>
</g>
<!-- Use -->
<g id="node2" class="node"><title>Use</title>
<ellipse fill="none" stroke="black" cx="28.5975" cy="-366" rx="28.6953" ry="18"/>
<text text-anchor="middle" x="28.5975" y="-362.3" font-family="Times,serif" font-size="14.00">Use</text>
</g>
<!-- JR&#45;&gt;Use -->
<g id="edge1" class="edge"><title>JR&#45;&gt;Use</title>
<path fill="none" stroke="black" d="M128.932,-439.275C109.32,-425.148 77.4643,-402.201 54.9143,-385.957"/>
<polygon fill="black" stroke="black" points="56.9321,-383.097 46.7723,-380.092 52.8407,-388.777 56.9321,-383.097"/>
<text text-anchor="middle" x="111.597" y="-405.8" font-family="Times,serif" font-size="14.00">0.03</text>
</g>
<!-- Qu -->
<g id="node6" class="node"><title>Qu</title>
<ellipse fill="none" stroke="black" cx="146.597" cy="-366" rx="27" ry="18"/>
<text text-anchor="middle" x="146.597" y="-362.3" font-family="Times,serif" font-size="14.00">Qu</text>
</g>
<!-- JR&#45;&gt;Qu -->
<g id="edge6" class="edge"><title>JR&#45;&gt;Qu</title>
<path fill="none" stroke="black" d="M146.597,-434.799C146.597,-423.163 146.597,-407.548 146.597,-394.237"/>
<polygon fill="black" stroke="black" points="150.098,-394.175 146.597,-384.175 143.098,-394.175 150.098,-394.175"/>
<text text-anchor="middle" x="167.097" y="-405.8" font-family="Times,serif" font-size="14.00">0.011</text>
</g>
<!-- BI -->
<g id="node3" class="node"><title>BI</title>
<ellipse fill="none" stroke="black" cx="27.5975" cy="-279" rx="27" ry="18"/>
<text text-anchor="middle" x="27.5975" y="-275.3" font-family="Times,serif" font-size="14.00">BI</text>
</g>
<!-- Use&#45;&gt;BI -->
<g id="edge2" class="edge"><title>Use&#45;&gt;BI</title>
<path fill="none" stroke="black" d="M28.3951,-347.799C28.2582,-336.163 28.0745,-320.548 27.9179,-307.237"/>
<polygon fill="black" stroke="black" points="31.417,-307.134 27.7995,-297.175 24.4175,-307.216 31.417,-307.134"/>
<text text-anchor="middle" x="49.0975" y="-318.8" font-family="Times,serif" font-size="14.00">0.028</text>
</g>
<!-- PEU -->
<g id="node4" class="node"><title>PEU</title>
<ellipse fill="none" stroke="black" cx="103.597" cy="-279" rx="31.3957" ry="18"/>
<text text-anchor="middle" x="103.597" y="-275.3" font-family="Times,serif" font-size="14.00">PEU</text>
</g>
<!-- PU -->
<g id="node5" class="node"><title>PU</title>
<ellipse fill="none" stroke="black" cx="103.597" cy="-192" rx="27" ry="18"/>
<text text-anchor="middle" x="103.597" y="-188.3" font-family="Times,serif" font-size="14.00">PU</text>
</g>
<!-- PEU&#45;&gt;PU -->
<g id="edge3" class="edge"><title>PEU&#45;&gt;PU</title>
<path fill="none" stroke="black" d="M103.597,-260.799C103.597,-249.163 103.597,-233.548 103.597,-220.237"/>
<polygon fill="black" stroke="black" points="107.098,-220.175 103.597,-210.175 100.098,-220.175 107.098,-220.175"/>
<text text-anchor="middle" x="124.097" y="-231.8" font-family="Times,serif" font-size="14.00">0.019</text>
</g>
<!-- Qu&#45;&gt;PEU -->
<g id="edge4" class="edge"><title>Qu&#45;&gt;PEU</title>
<path fill="none" stroke="black" d="M132.393,-350.665C127.117,-344.684 121.478,-337.41 117.597,-330 113.917,-322.973 111.113,-314.869 109.017,-307.258"/>
<polygon fill="black" stroke="black" points="112.364,-306.212 106.582,-297.334 105.566,-307.88 112.364,-306.212"/>
<text text-anchor="middle" x="138.097" y="-318.8" font-family="Times,serif" font-size="14.00">0.015</text>
</g>
<!-- ENJ -->
<g id="node9" class="node"><title>ENJ</title>
<ellipse fill="none" stroke="black" cx="182.597" cy="-279" rx="29.795" ry="18"/>
<text text-anchor="middle" x="182.597" y="-275.3" font-family="Times,serif" font-size="14.00">ENJ</text>
</g>
<!-- Qu&#45;&gt;ENJ -->
<g id="edge7" class="edge"><title>Qu&#45;&gt;ENJ</title>
<path fill="none" stroke="black" d="M153.71,-348.207C158.789,-336.216 165.719,-319.851 171.519,-306.157"/>
<polygon fill="black" stroke="black" points="174.823,-307.332 175.5,-296.758 168.377,-304.602 174.823,-307.332"/>
<text text-anchor="middle" x="188.097" y="-318.8" font-family="Times,serif" font-size="14.00">0.008</text>
</g>
<!-- Pf -->
<g id="node7" class="node"><title>Pf</title>
<ellipse fill="none" stroke="black" cx="189.597" cy="-192" rx="27" ry="18"/>
<text text-anchor="middle" x="189.597" y="-188.3" font-family="Times,serif" font-size="14.00">Pf</text>
</g>
<!-- Im -->
<g id="node8" class="node"><title>Im</title>
<ellipse fill="none" stroke="black" cx="219.597" cy="-105" rx="27" ry="18"/>
<text text-anchor="middle" x="219.597" y="-101.3" font-family="Times,serif" font-size="14.00">Im</text>
</g>
<!-- Pf&#45;&gt;Im -->
<g id="edge5" class="edge"><title>Pf&#45;&gt;Im</title>
<path fill="none" stroke="black" d="M188.657,-173.826C188.677,-163.935 189.677,-151.435 193.597,-141 195.155,-136.855 197.358,-132.776 199.831,-128.951"/>
<polygon fill="black" stroke="black" points="202.872,-130.719 205.912,-120.57 197.206,-126.608 202.872,-130.719"/>
<text text-anchor="middle" x="214.097" y="-144.8" font-family="Times,serif" font-size="14.00">0.011</text>
</g>
<!-- Im&#45;&gt;JR -->
<g id="edge8" class="edge"><title>Im&#45;&gt;JR</title>
<path fill="none" stroke="black" d="M228.614,-122.058C237.127,-138.749 248.597,-165.897 248.597,-191 248.597,-367 248.597,-367 248.597,-367 248.597,-403.608 209.343,-427.508 179.538,-440.378"/>
<polygon fill="black" stroke="black" points="178.188,-437.149 170.255,-444.171 180.836,-443.629 178.188,-437.149"/>
<text text-anchor="middle" x="269.097" y="-275.3" font-family="Times,serif" font-size="14.00">0.005</text>
</g>
<!-- SA -->
<g id="node10" class="node"><title>SA</title>
<ellipse fill="none" stroke="black" cx="219.597" cy="-18" rx="27" ry="18"/>
<text text-anchor="middle" x="219.597" y="-14.3" font-family="Times,serif" font-size="14.00">SA</text>
</g>
<!-- Im&#45;&gt;SA -->
<g id="edge10" class="edge"><title>Im&#45;&gt;SA</title>
<path fill="none" stroke="black" d="M219.597,-86.799C219.597,-75.1626 219.597,-59.5479 219.597,-46.2368"/>
<polygon fill="black" stroke="black" points="223.098,-46.1754 219.597,-36.1754 216.098,-46.1755 223.098,-46.1754"/>
<text text-anchor="middle" x="240.097" y="-57.8" font-family="Times,serif" font-size="14.00">0.002</text>
</g>
<!-- ENJ&#45;&gt;Pf -->
<g id="edge9" class="edge"><title>ENJ&#45;&gt;Pf</title>
<path fill="none" stroke="black" d="M184.014,-260.799C184.972,-249.163 186.258,-233.548 187.354,-220.237"/>
<polygon fill="black" stroke="black" points="190.85,-220.429 188.183,-210.175 183.874,-219.854 190.85,-220.429"/>
<text text-anchor="middle" x="207.097" y="-231.8" font-family="Times,serif" font-size="14.00">0.003</text>
</g>
</g>
</svg>
