<?xml version="1.0" encoding="UTF-8" standalone="no"?>
<!DOCTYPE svg PUBLIC "-//W3C//DTD SVG 1.1//EN"
 "http://www.w3.org/Graphics/SVG/1.1/DTD/svg11.dtd">
<!-- Generated by graphviz version 2.38.0 (20140413.2041)
 -->
<!-- Title: G Pages: 1 -->
<svg width="328pt" height="392pt"
 viewBox="0.00 0.00 328.00 392.00" xmlns="http://www.w3.org/2000/svg" xmlns:xlink="http://www.w3.org/1999/xlink">
<g id="graph0" class="graph" transform="scale(1 1) rotate(0) translate(4 388)">
<title>G</title>
<polygon fill="white" stroke="none" points="-4,4 -4,-388 324,-388 324,4 -4,4"/>
<!-- Use -->
<g id="node1" class="node"><title>Use</title>
<ellipse fill="none" stroke="black" cx="203" cy="-366" rx="28.6953" ry="18"/>
<text text-anchor="middle" x="203" y="-362.3" font-family="Times,serif" font-size="14.00">Use</text>
</g>
<!-- BI -->
<g id="node2" class="node"><title>BI</title>
<ellipse fill="none" stroke="black" cx="103" cy="-279" rx="27" ry="18"/>
<text text-anchor="middle" x="103" y="-275.3" font-family="Times,serif" font-size="14.00">BI</text>
</g>
<!-- Use&#45;&gt;BI -->
<g id="edge1" class="edge"><title>Use&#45;&gt;BI</title>
<path fill="none" stroke="black" d="M185.228,-351.678C176.848,-345.27 166.785,-337.391 158,-330 147.092,-320.823 135.356,-310.255 125.538,-301.206"/>
<polygon fill="black" stroke="black" points="127.84,-298.567 118.129,-294.33 123.078,-303.698 127.84,-298.567"/>
<text text-anchor="middle" x="178.5" y="-318.8" font-family="Times,serif" font-size="14.00">0.036</text>
</g>
<!-- SA -->
<g id="node8" class="node"><title>SA</title>
<ellipse fill="none" stroke="black" cx="203" cy="-279" rx="27" ry="18"/>
<text text-anchor="middle" x="203" y="-275.3" font-family="Times,serif" font-size="14.00">SA</text>
</g>
<!-- Use&#45;&gt;SA -->
<g id="edge8" class="edge"><title>Use&#45;&gt;SA</title>
<path fill="none" stroke="black" d="M203,-347.799C203,-336.163 203,-320.548 203,-307.237"/>
<polygon fill="black" stroke="black" points="206.5,-307.175 203,-297.175 199.5,-307.175 206.5,-307.175"/>
<text text-anchor="middle" x="223.5" y="-318.8" font-family="Times,serif" font-size="14.00">0.012</text>
</g>
<!-- PEU -->
<g id="node5" class="node"><title>PEU</title>
<ellipse fill="none" stroke="black" cx="103" cy="-192" rx="31.3957" ry="18"/>
<text text-anchor="middle" x="103" y="-188.3" font-family="Times,serif" font-size="14.00">PEU</text>
</g>
<!-- BI&#45;&gt;PEU -->
<g id="edge4" class="edge"><title>BI&#45;&gt;PEU</title>
<path fill="none" stroke="black" d="M103,-260.799C103,-249.163 103,-233.548 103,-220.237"/>
<polygon fill="black" stroke="black" points="106.5,-220.175 103,-210.175 99.5001,-220.175 106.5,-220.175"/>
<text text-anchor="middle" x="123.5" y="-231.8" font-family="Times,serif" font-size="14.00">0.019</text>
</g>
<!-- JR -->
<g id="node10" class="node"><title>JR</title>
<ellipse fill="none" stroke="black" cx="27" cy="-192" rx="27" ry="18"/>
<text text-anchor="middle" x="27" y="-188.3" font-family="Times,serif" font-size="14.00">JR</text>
</g>
<!-- BI&#45;&gt;JR -->
<g id="edge10" class="edge"><title>BI&#45;&gt;JR</title>
<path fill="none" stroke="black" d="M84.2328,-265.706C75.6358,-259.524 65.6766,-251.537 58,-243 51.2797,-235.526 45.1453,-226.41 40.1393,-218.019"/>
<polygon fill="black" stroke="black" points="43.1682,-216.265 35.176,-209.31 37.0865,-219.731 43.1682,-216.265"/>
<text text-anchor="middle" x="78.5" y="-231.8" font-family="Times,serif" font-size="14.00">0.008</text>
</g>
<!-- Pf -->
<g id="node3" class="node"><title>Pf</title>
<ellipse fill="none" stroke="black" cx="272" cy="-192" rx="27" ry="18"/>
<text text-anchor="middle" x="272" y="-188.3" font-family="Times,serif" font-size="14.00">Pf</text>
</g>
<!-- Pf&#45;&gt;Use -->
<g id="edge2" class="edge"><title>Pf&#45;&gt;Use</title>
<path fill="none" stroke="black" d="M276.098,-209.988C277.283,-215.678 278.414,-222.08 279,-228 283.669,-275.15 275.762,-291.604 248,-330 243.455,-336.286 237.475,-342.004 231.365,-346.912"/>
<polygon fill="black" stroke="black" points="229.008,-344.303 223.074,-353.08 233.187,-349.919 229.008,-344.303"/>
<text text-anchor="middle" x="299.5" y="-275.3" font-family="Times,serif" font-size="14.00">0.033</text>
</g>
<!-- PU -->
<g id="node4" class="node"><title>PU</title>
<ellipse fill="none" stroke="black" cx="272" cy="-105" rx="27" ry="18"/>
<text text-anchor="middle" x="272" y="-101.3" font-family="Times,serif" font-size="14.00">PU</text>
</g>
<!-- Pf&#45;&gt;PU -->
<g id="edge3" class="edge"><title>Pf&#45;&gt;PU</title>
<path fill="none" stroke="black" d="M272,-173.799C272,-162.163 272,-146.548 272,-133.237"/>
<polygon fill="black" stroke="black" points="275.5,-133.175 272,-123.175 268.5,-133.175 275.5,-133.175"/>
<text text-anchor="middle" x="292.5" y="-144.8" font-family="Times,serif" font-size="14.00">0.026</text>
</g>
<!-- ENJ -->
<g id="node9" class="node"><title>ENJ</title>
<ellipse fill="none" stroke="black" cx="272" cy="-18" rx="29.795" ry="18"/>
<text text-anchor="middle" x="272" y="-14.3" font-family="Times,serif" font-size="14.00">ENJ</text>
</g>
<!-- PU&#45;&gt;ENJ -->
<g id="edge7" class="edge"><title>PU&#45;&gt;ENJ</title>
<path fill="none" stroke="black" d="M272,-86.799C272,-75.1626 272,-59.5479 272,-46.2368"/>
<polygon fill="black" stroke="black" points="275.5,-46.1754 272,-36.1754 268.5,-46.1755 275.5,-46.1754"/>
<text text-anchor="middle" x="292.5" y="-57.8" font-family="Times,serif" font-size="14.00">0.013</text>
</g>
<!-- Im -->
<g id="node6" class="node"><title>Im</title>
<ellipse fill="none" stroke="black" cx="179" cy="-192" rx="27" ry="18"/>
<text text-anchor="middle" x="179" y="-188.3" font-family="Times,serif" font-size="14.00">Im</text>
</g>
<!-- Qu -->
<g id="node7" class="node"><title>Qu</title>
<ellipse fill="none" stroke="black" cx="179" cy="-105" rx="27" ry="18"/>
<text text-anchor="middle" x="179" y="-101.3" font-family="Times,serif" font-size="14.00">Qu</text>
</g>
<!-- Im&#45;&gt;Qu -->
<g id="edge5" class="edge"><title>Im&#45;&gt;Qu</title>
<path fill="none" stroke="black" d="M179,-173.799C179,-162.163 179,-146.548 179,-133.237"/>
<polygon fill="black" stroke="black" points="182.5,-133.175 179,-123.175 175.5,-133.175 182.5,-133.175"/>
<text text-anchor="middle" x="199.5" y="-144.8" font-family="Times,serif" font-size="14.00">0.016</text>
</g>
<!-- SA&#45;&gt;Pf -->
<g id="edge9" class="edge"><title>SA&#45;&gt;Pf</title>
<path fill="none" stroke="black" d="M213.106,-262.213C219.788,-252.13 228.953,-238.943 238,-228 241.711,-223.511 245.881,-218.909 249.996,-214.578"/>
<polygon fill="black" stroke="black" points="252.755,-216.762 257.231,-207.159 247.744,-211.874 252.755,-216.762"/>
<text text-anchor="middle" x="258.5" y="-231.8" font-family="Times,serif" font-size="14.00">0.008</text>
</g>
<!-- SA&#45;&gt;Im -->
<g id="edge6" class="edge"><title>SA&#45;&gt;Im</title>
<path fill="none" stroke="black" d="M187.72,-264.138C182.296,-258.222 176.836,-250.869 174,-243 171.356,-235.665 171.168,-227.357 172.042,-219.65"/>
<polygon fill="black" stroke="black" points="175.515,-220.11 173.764,-209.66 168.616,-218.921 175.515,-220.11"/>
<text text-anchor="middle" x="194.5" y="-231.8" font-family="Times,serif" font-size="14.00">0.015</text>
</g>
</g>
</svg>
