<?xml version="1.0" encoding="UTF-8" standalone="no"?>
<!DOCTYPE svg PUBLIC "-//W3C//DTD SVG 1.1//EN"
 "http://www.w3.org/Graphics/SVG/1.1/DTD/svg11.dtd">
<!-- Generated by graphviz version 2.38.0 (20140413.2041)
 -->
<!-- Title: G Pages: 1 -->
<svg width="1014pt" height="827pt"
 viewBox="0.00 0.00 1014.00 827.00" xmlns="http://www.w3.org/2000/svg" xmlns:xlink="http://www.w3.org/1999/xlink">
<g id="graph0" class="graph" transform="scale(1 1) rotate(0) translate(4 823)">
<title>G</title>
<polygon fill="white" stroke="none" points="-4,4 -4,-823 1010,-823 1010,4 -4,4"/>
<!-- Im -->
<g id="node1" class="node"><title>Im</title>
<ellipse fill="none" stroke="black" cx="691" cy="-801" rx="27" ry="18"/>
<text text-anchor="middle" x="691" y="-797.3" font-family="Times,serif" font-size="14.00">Im</text>
</g>
<!-- Use -->
<g id="node2" class="node"><title>Use</title>
<ellipse fill="none" stroke="black" cx="365" cy="-714" rx="27" ry="18"/>
<text text-anchor="middle" x="365" y="-710.3" font-family="Times,serif" font-size="14.00">Use</text>
</g>
<!-- Im&#45;&gt;Use -->
<g id="edge1" class="edge"><title>Im&#45;&gt;Use</title>
<path fill="none" stroke="black" d="M663.892,-800.419C616.126,-800.268 514.588,-795.932 436,-765 418.623,-758.16 401.44,-746.234 388.331,-735.744"/>
<polygon fill="black" stroke="black" points="390.277,-732.811 380.344,-729.126 385.811,-738.202 390.277,-732.811"/>
<text text-anchor="middle" x="451.5" y="-753.8" font-family="Times,serif" font-size="14.00">0.359</text>
</g>
<!-- JR -->
<g id="node3" class="node"><title>JR</title>
<ellipse fill="none" stroke="black" cx="583" cy="-627" rx="27" ry="18"/>
<text text-anchor="middle" x="583" y="-623.3" font-family="Times,serif" font-size="14.00">JR</text>
</g>
<!-- Im&#45;&gt;JR -->
<g id="edge32" class="edge"><title>Im&#45;&gt;JR</title>
<path fill="none" stroke="black" d="M673.287,-787.291C657.108,-774.852 633.555,-754.529 619,-732 603.585,-708.14 593.933,-676.917 588.549,-654.931"/>
<polygon fill="black" stroke="black" points="591.905,-653.907 586.242,-644.952 585.084,-655.484 591.905,-653.907"/>
<text text-anchor="middle" x="637" y="-710.3" font-family="Times,serif" font-size="14.00">&#45;0.004</text>
</g>
<!-- Qu -->
<g id="node4" class="node"><title>Qu</title>
<ellipse fill="none" stroke="black" cx="719" cy="-453" rx="27" ry="18"/>
<text text-anchor="middle" x="719" y="-449.3" font-family="Times,serif" font-size="14.00">Qu</text>
</g>
<!-- Im&#45;&gt;Qu -->
<g id="edge11" class="edge"><title>Im&#45;&gt;Qu</title>
<path fill="none" stroke="black" d="M718.04,-798.268C765.078,-793.631 857,-776.68 857,-715 857,-715 857,-715 857,-539 857,-491.011 795.753,-469.238 754.864,-460.049"/>
<polygon fill="black" stroke="black" points="755.462,-456.598 744.957,-457.975 754.028,-463.45 755.462,-456.598"/>
<text text-anchor="middle" x="872.5" y="-623.3" font-family="Times,serif" font-size="14.00">0.146</text>
</g>
<!-- PEU -->
<g id="node5" class="node"><title>PEU</title>
<ellipse fill="none" stroke="black" cx="335" cy="-18" rx="27.0966" ry="18"/>
<text text-anchor="middle" x="335" y="-14.3" font-family="Times,serif" font-size="14.00">PEU</text>
</g>
<!-- Im&#45;&gt;PEU -->
<g id="edge40" class="edge"><title>Im&#45;&gt;PEU</title>
<path fill="none" stroke="black" d="M717.526,-797.571C749.824,-793.851 805.449,-784.95 849,-765 882.78,-749.526 916,-752.156 916,-715 916,-715 916,-715 916,-104 916,-48.8454 500.783,-26.1974 372.377,-20.5122"/>
<polygon fill="black" stroke="black" points="372.386,-17.0094 362.244,-20.0726 372.082,-24.0028 372.386,-17.0094"/>
<text text-anchor="middle" x="934" y="-405.8" font-family="Times,serif" font-size="14.00">&#45;0.328</text>
</g>
<!-- Use&#45;&gt;JR -->
<g id="edge33" class="edge"><title>Use&#45;&gt;JR</title>
<path fill="none" stroke="black" d="M391.798,-710.838C424.086,-707.394 479.314,-698.777 522,-678 536.465,-670.959 550.501,-659.85 561.454,-649.89"/>
<polygon fill="black" stroke="black" points="563.976,-652.323 568.848,-642.915 559.172,-647.231 563.976,-652.323"/>
<text text-anchor="middle" x="563" y="-666.8" font-family="Times,serif" font-size="14.00">&#45;0.004</text>
</g>
<!-- Use&#45;&gt;PEU -->
<g id="edge41" class="edge"><title>Use&#45;&gt;PEU</title>
<path fill="none" stroke="black" d="M338.052,-711.369C280.692,-707.57 148.461,-696.982 108,-678 65.6824,-658.147 0,-544.243 0,-497.5 0,-497.5 0,-497.5 0,-104 0,-43.0979 210.644,-25.3349 297.867,-20.5902"/>
<polygon fill="black" stroke="black" points="298.063,-24.0848 307.869,-20.0741 297.702,-17.0941 298.063,-24.0848"/>
<text text-anchor="middle" x="18" y="-362.3" font-family="Times,serif" font-size="14.00">&#45;0.328</text>
</g>
<!-- PU -->
<g id="node6" class="node"><title>PU</title>
<ellipse fill="none" stroke="black" cx="203" cy="-366" rx="27" ry="18"/>
<text text-anchor="middle" x="203" y="-362.3" font-family="Times,serif" font-size="14.00">PU</text>
</g>
<!-- Use&#45;&gt;PU -->
<g id="edge6" class="edge"><title>Use&#45;&gt;PU</title>
<path fill="none" stroke="black" d="M345.961,-700.937C311.745,-677.995 240.831,-624.389 213,-558 190.157,-503.511 194.238,-432.494 198.85,-394.25"/>
<polygon fill="black" stroke="black" points="202.374,-394.3 200.206,-383.929 195.433,-393.388 202.374,-394.3"/>
<text text-anchor="middle" x="228.5" y="-536.3" font-family="Times,serif" font-size="14.00">0.157</text>
</g>
<!-- Pf -->
<g id="node8" class="node"><title>Pf</title>
<ellipse fill="none" stroke="black" cx="333" cy="-540" rx="27" ry="18"/>
<text text-anchor="middle" x="333" y="-536.3" font-family="Times,serif" font-size="14.00">Pf</text>
</g>
<!-- Use&#45;&gt;Pf -->
<g id="edge38" class="edge"><title>Use&#45;&gt;Pf</title>
<path fill="none" stroke="black" d="M359.893,-696.091C355.917,-682.415 350.501,-662.607 347,-645 341.856,-619.132 338.053,-589.264 335.719,-568.191"/>
<polygon fill="black" stroke="black" points="339.177,-567.611 334.633,-558.04 332.217,-568.356 339.177,-567.611"/>
<text text-anchor="middle" x="365" y="-623.3" font-family="Times,serif" font-size="14.00">&#45;0.081</text>
</g>
<!-- SA -->
<g id="node9" class="node"><title>SA</title>
<ellipse fill="none" stroke="black" cx="464" cy="-192" rx="27" ry="18"/>
<text text-anchor="middle" x="464" y="-188.3" font-family="Times,serif" font-size="14.00">SA</text>
</g>
<!-- Use&#45;&gt;SA -->
<g id="edge28" class="edge"><title>Use&#45;&gt;SA</title>
<path fill="none" stroke="black" d="M369.789,-696.022C373.586,-682.308 378.915,-662.481 383,-645 409.934,-529.738 415.63,-500.602 436,-384 446.157,-325.857 455.591,-257.317 460.489,-220.204"/>
<polygon fill="black" stroke="black" points="463.975,-220.542 461.804,-210.172 457.034,-219.632 463.975,-220.542"/>
<text text-anchor="middle" x="442.5" y="-449.3" font-family="Times,serif" font-size="14.00">0.005</text>
</g>
<!-- JR&#45;&gt;Im -->
<g id="edge17" class="edge"><title>JR&#45;&gt;Im</title>
<path fill="none" stroke="black" d="M602.516,-639.744C612.194,-646.031 623.758,-654.267 633,-663 646.571,-675.824 650.33,-679.463 659,-696 671.966,-720.73 680.627,-751.574 685.632,-773.227"/>
<polygon fill="black" stroke="black" points="682.227,-774.039 687.798,-783.051 689.063,-772.532 682.227,-774.039"/>
<text text-anchor="middle" x="688.5" y="-710.3" font-family="Times,serif" font-size="14.00">0.053</text>
</g>
<!-- JR&#45;&gt;Use -->
<g id="edge2" class="edge"><title>JR&#45;&gt;Use</title>
<path fill="none" stroke="black" d="M560.062,-636.944C521.124,-652.126 441.987,-682.982 397.407,-700.364"/>
<polygon fill="black" stroke="black" points="395.963,-697.17 387.918,-704.064 398.506,-703.692 395.963,-697.17"/>
<text text-anchor="middle" x="502.5" y="-666.8" font-family="Times,serif" font-size="14.00">0.359</text>
</g>
<!-- JR&#45;&gt;Qu -->
<g id="edge12" class="edge"><title>JR&#45;&gt;Qu</title>
<path fill="none" stroke="black" d="M596.057,-610.943C601.174,-604.863 607.005,-597.709 612,-591 634.01,-561.437 635.414,-551.126 658,-522 670.394,-506.017 685.578,-489.082 697.696,-476.111"/>
<polygon fill="black" stroke="black" points="700.475,-478.266 704.793,-468.591 695.384,-473.462 700.475,-478.266"/>
<text text-anchor="middle" x="673.5" y="-536.3" font-family="Times,serif" font-size="14.00">0.146</text>
</g>
<!-- JR&#45;&gt;Pf -->
<g id="edge37" class="edge"><title>JR&#45;&gt;Pf</title>
<path fill="none" stroke="black" d="M558.658,-618.63C536.108,-611.731 501.676,-601.012 472,-591 435.425,-578.661 393.808,-563.547 365.721,-553.187"/>
<polygon fill="black" stroke="black" points="366.614,-549.785 356.02,-549.599 364.185,-556.35 366.614,-549.785"/>
<text text-anchor="middle" x="490" y="-579.8" font-family="Times,serif" font-size="14.00">&#45;0.081</text>
</g>
<!-- Qu&#45;&gt;Im -->
<g id="edge18" class="edge"><title>Qu&#45;&gt;Im</title>
<path fill="none" stroke="black" d="M737.464,-466.666C744.704,-472.6 752.371,-480.288 757,-489 778.444,-529.357 778.213,-546.044 770,-591 757.393,-660.006 723.176,-735.813 704.17,-774.377"/>
<polygon fill="black" stroke="black" points="700.805,-773.282 699.466,-783.792 707.067,-776.411 700.805,-773.282"/>
<text text-anchor="middle" x="781.5" y="-623.3" font-family="Times,serif" font-size="14.00">0.053</text>
</g>
<!-- Qu&#45;&gt;Use -->
<g id="edge3" class="edge"><title>Qu&#45;&gt;Use</title>
<path fill="none" stroke="black" d="M729.796,-469.884C742.649,-490.938 760.643,-528.824 746,-558 705.969,-637.763 667.23,-643.317 585,-678 524.463,-703.533 447.391,-710.592 402.387,-712.451"/>
<polygon fill="black" stroke="black" points="402.079,-708.959 392.207,-712.805 402.322,-715.955 402.079,-708.959"/>
<text text-anchor="middle" x="750.5" y="-579.8" font-family="Times,serif" font-size="14.00">0.359</text>
</g>
<!-- Qu&#45;&gt;JR -->
<g id="edge34" class="edge"><title>Qu&#45;&gt;JR</title>
<path fill="none" stroke="black" d="M717.753,-471.107C715.379,-493.161 708.543,-531.786 689,-558 670.164,-583.266 638.934,-601.638 615.239,-612.869"/>
<polygon fill="black" stroke="black" points="613.581,-609.778 605.926,-617.104 616.478,-616.15 613.581,-609.778"/>
<text text-anchor="middle" x="724" y="-536.3" font-family="Times,serif" font-size="14.00">&#45;0.004</text>
</g>
<!-- Qu&#45;&gt;PEU -->
<g id="edge42" class="edge"><title>Qu&#45;&gt;PEU</title>
<path fill="none" stroke="black" d="M737.385,-439.636C756.914,-424.866 785,-398.201 785,-367 785,-367 785,-367 785,-104 785,-62.1135 480.073,-31.5894 372.235,-22.1042"/>
<polygon fill="black" stroke="black" points="372.402,-18.6056 362.136,-21.227 371.796,-25.5793 372.402,-18.6056"/>
<text text-anchor="middle" x="803" y="-231.8" font-family="Times,serif" font-size="14.00">&#45;0.328</text>
</g>
<!-- Qu&#45;&gt;PU -->
<g id="edge7" class="edge"><title>Qu&#45;&gt;PU</title>
<path fill="none" stroke="black" d="M693.148,-447.702C640.956,-439.03 519.256,-418.827 417,-402 354.371,-391.694 281.415,-379.782 238.9,-372.849"/>
<polygon fill="black" stroke="black" points="239.46,-369.395 229.027,-371.24 238.333,-376.303 239.46,-369.395"/>
<text text-anchor="middle" x="514.5" y="-405.8" font-family="Times,serif" font-size="14.00">0.157</text>
</g>
<!-- PEU&#45;&gt;Im -->
<g id="edge19" class="edge"><title>PEU&#45;&gt;Im</title>
<path fill="none" stroke="black" d="M362.435,-19.394C472.486,-21.1394 878.48,-29.2165 930,-54 956.942,-66.9602 975,-74.1031 975,-104 975,-715 975,-715 975,-715 975,-744.897 956.355,-750.885 930,-765 895.807,-783.312 786.235,-793.435 728.076,-797.642"/>
<polygon fill="black" stroke="black" points="727.575,-794.168 717.845,-798.359 728.065,-801.151 727.575,-794.168"/>
<text text-anchor="middle" x="990.5" y="-405.8" font-family="Times,serif" font-size="14.00">0.053</text>
</g>
<!-- PEU&#45;&gt;Use -->
<g id="edge4" class="edge"><title>PEU&#45;&gt;Use</title>
<path fill="none" stroke="black" d="M308.258,-22.0008C242.084,-30.1663 76,-55.492 76,-104 76,-628 76,-628 76,-628 76,-679.947 250.029,-702.457 327.994,-709.935"/>
<polygon fill="black" stroke="black" points="328.049,-713.455 338.33,-710.892 328.695,-706.485 328.049,-713.455"/>
<text text-anchor="middle" x="91.5" y="-362.3" font-family="Times,serif" font-size="14.00">0.359</text>
</g>
<!-- BI -->
<g id="node7" class="node"><title>BI</title>
<ellipse fill="none" stroke="black" cx="394" cy="-105" rx="27" ry="18"/>
<text text-anchor="middle" x="394" y="-101.3" font-family="Times,serif" font-size="14.00">BI</text>
</g>
<!-- PEU&#45;&gt;BI -->
<g id="edge23" class="edge"><title>PEU&#45;&gt;BI</title>
<path fill="none" stroke="black" d="M351.91,-32.4089C358.778,-38.469 366.397,-46.0492 372,-54 376.993,-61.0862 381.225,-69.4864 384.604,-77.359"/>
<polygon fill="black" stroke="black" points="381.459,-78.9219 388.419,-86.9101 387.96,-76.3252 381.459,-78.9219"/>
<text text-anchor="middle" x="395.5" y="-57.8" font-family="Times,serif" font-size="14.00">0.035</text>
</g>
<!-- PEU&#45;&gt;Pf -->
<g id="edge39" class="edge"><title>PEU&#45;&gt;Pf</title>
<path fill="none" stroke="black" d="M307.475,-18.9009C253.723,-20.303 140,-31.8006 140,-104 140,-367 140,-367 140,-367 140,-374.001 217.68,-474.575 261,-504 277.126,-514.954 283.494,-513.422 301,-522 301.84,-522.412 302.691,-522.833 303.548,-523.261"/>
<polygon fill="black" stroke="black" points="302.295,-526.552 312.789,-528.006 305.492,-520.325 302.295,-526.552"/>
<text text-anchor="middle" x="158" y="-275.3" font-family="Times,serif" font-size="14.00">&#45;0.081</text>
</g>
<!-- ENJ -->
<g id="node10" class="node"><title>ENJ</title>
<ellipse fill="none" stroke="black" cx="379" cy="-279" rx="27" ry="18"/>
<text text-anchor="middle" x="379" y="-275.3" font-family="Times,serif" font-size="14.00">ENJ</text>
</g>
<!-- PEU&#45;&gt;ENJ -->
<g id="edge25" class="edge"><title>PEU&#45;&gt;ENJ</title>
<path fill="none" stroke="black" d="M328.112,-35.4437C326.036,-41.2061 324.035,-47.7905 323,-54 321.904,-60.576 322.13,-62.3904 323,-69 331.844,-136.18 356.028,-212.452 369.543,-251.65"/>
<polygon fill="black" stroke="black" points="366.29,-252.951 372.892,-261.238 372.898,-250.643 366.29,-252.951"/>
<text text-anchor="middle" x="355.5" y="-144.8" font-family="Times,serif" font-size="14.00">0.014</text>
</g>
<!-- PU&#45;&gt;Im -->
<g id="edge16" class="edge"><title>PU&#45;&gt;Im</title>
<path fill="none" stroke="black" d="M185.113,-379.698C125.225,-423.709 -59.8634,-572.766 24,-678 103.388,-777.618 525.228,-795.995 653.784,-799.297"/>
<polygon fill="black" stroke="black" points="653.835,-802.799 663.917,-799.541 654.004,-795.801 653.835,-802.799"/>
<text text-anchor="middle" x="25.5" y="-579.8" font-family="Times,serif" font-size="14.00">0.053</text>
</g>
<!-- PU&#45;&gt;Use -->
<g id="edge5" class="edge"><title>PU&#45;&gt;Use</title>
<path fill="none" stroke="black" d="M205.691,-384.204C207.307,-393.884 209.526,-406.166 212,-417 217.546,-441.284 218.548,-447.569 227,-471 241.378,-510.86 245.874,-520.71 266,-558 291.838,-605.874 327.134,-658.679 347.854,-688.646"/>
<polygon fill="black" stroke="black" points="345.208,-690.971 353.79,-697.183 350.955,-686.974 345.208,-690.971"/>
<text text-anchor="middle" x="281.5" y="-536.3" font-family="Times,serif" font-size="14.00">0.359</text>
</g>
<!-- PU&#45;&gt;ENJ -->
<g id="edge26" class="edge"><title>PU&#45;&gt;ENJ</title>
<path fill="none" stroke="black" d="M210.431,-348.195C216.156,-337.154 225.107,-323.271 237,-315 268.141,-293.344 311.291,-285.045 341.832,-281.887"/>
<polygon fill="black" stroke="black" points="342.419,-285.349 352.068,-280.971 341.796,-278.377 342.419,-285.349"/>
<text text-anchor="middle" x="252.5" y="-318.8" font-family="Times,serif" font-size="14.00">0.014</text>
</g>
<!-- BI&#45;&gt;JR -->
<g id="edge35" class="edge"><title>BI&#45;&gt;JR</title>
<path fill="none" stroke="black" d="M419.837,-110.318C440.014,-114.876 467.621,-123.875 486,-141 579.544,-228.164 579.465,-277.141 607,-402 622.491,-472.244 603.337,-557.17 591.322,-599.428"/>
<polygon fill="black" stroke="black" points="587.907,-598.637 588.447,-609.218 594.623,-600.609 587.907,-598.637"/>
<text text-anchor="middle" x="620" y="-362.3" font-family="Times,serif" font-size="14.00">&#45;0.004</text>
</g>
<!-- BI&#45;&gt;Qu -->
<g id="edge13" class="edge"><title>BI&#45;&gt;Qu</title>
<path fill="none" stroke="black" d="M420.758,-107.658C479.839,-111.612 619.625,-122.655 663,-141 695.923,-154.924 726,-155.253 726,-191 726,-367 726,-367 726,-367 726,-386.313 724.183,-408.01 722.4,-424.65"/>
<polygon fill="black" stroke="black" points="718.901,-424.447 721.253,-434.778 725.857,-425.235 718.901,-424.447"/>
<text text-anchor="middle" x="741.5" y="-275.3" font-family="Times,serif" font-size="14.00">0.146</text>
</g>
<!-- BI&#45;&gt;PEU -->
<g id="edge43" class="edge"><title>BI&#45;&gt;PEU</title>
<path fill="none" stroke="black" d="M369.614,-96.9951C355.963,-91.6856 340.102,-82.8769 332,-69 327.976,-62.1073 327.223,-53.73 327.913,-45.8188"/>
<polygon fill="black" stroke="black" points="331.384,-46.2765 329.497,-35.8511 324.47,-45.1777 331.384,-46.2765"/>
<text text-anchor="middle" x="350" y="-57.8" font-family="Times,serif" font-size="14.00">&#45;0.328</text>
</g>
<!-- BI&#45;&gt;PU -->
<g id="edge8" class="edge"><title>BI&#45;&gt;PU</title>
<path fill="none" stroke="black" d="M366.983,-107.613C341.332,-110.518 303.197,-118.6 279,-141 222.105,-193.668 207.793,-290.481 204.2,-337.682"/>
<polygon fill="black" stroke="black" points="200.701,-337.557 203.54,-347.765 207.686,-338.014 200.701,-337.557"/>
<text text-anchor="middle" x="241.5" y="-231.8" font-family="Times,serif" font-size="14.00">0.157</text>
</g>
<!-- BI&#45;&gt;SA -->
<g id="edge29" class="edge"><title>BI&#45;&gt;SA</title>
<path fill="none" stroke="black" d="M414.653,-117.145C424.288,-123.173 435.3,-131.362 443,-141 448.515,-147.903 452.809,-156.464 456.035,-164.54"/>
<polygon fill="black" stroke="black" points="452.765,-165.788 459.452,-174.006 459.349,-163.411 452.765,-165.788"/>
<text text-anchor="middle" x="466.5" y="-144.8" font-family="Times,serif" font-size="14.00">0.005</text>
</g>
<!-- Pf&#45;&gt;Qu -->
<g id="edge14" class="edge"><title>Pf&#45;&gt;Qu</title>
<path fill="none" stroke="black" d="M358.327,-533.423C425.206,-518.696 606.673,-478.735 683.681,-461.777"/>
<polygon fill="black" stroke="black" points="684.818,-465.111 693.832,-459.542 683.313,-458.275 684.818,-465.111"/>
<text text-anchor="middle" x="564.5" y="-492.8" font-family="Times,serif" font-size="14.00">0.146</text>
</g>
<!-- Pf&#45;&gt;PU -->
<g id="edge9" class="edge"><title>Pf&#45;&gt;PU</title>
<path fill="none" stroke="black" d="M313.488,-527.338C303.399,-520.951 291.115,-512.599 281,-504 265.668,-490.967 261.184,-487.729 250,-471 233.554,-446.4 220.3,-415.107 212.112,-393.303"/>
<polygon fill="black" stroke="black" points="215.33,-391.912 208.61,-383.722 208.756,-394.315 215.33,-391.912"/>
<text text-anchor="middle" x="265.5" y="-449.3" font-family="Times,serif" font-size="14.00">0.157</text>
</g>
<!-- Pf&#45;&gt;BI -->
<g id="edge22" class="edge"><title>Pf&#45;&gt;BI</title>
<path fill="none" stroke="black" d="M325.899,-522.259C313.686,-491.9 290,-425.482 290,-367 290,-367 290,-367 290,-191 290,-153.861 330.252,-130.034 360.672,-117.33"/>
<polygon fill="black" stroke="black" points="362.124,-120.52 370.14,-113.593 359.554,-114.009 362.124,-120.52"/>
<text text-anchor="middle" x="305.5" y="-318.8" font-family="Times,serif" font-size="14.00">0.035</text>
</g>
<!-- Pf&#45;&gt;ENJ -->
<g id="edge24" class="edge"><title>Pf&#45;&gt;ENJ</title>
<path fill="none" stroke="black" d="M340.5,-522.535C342.879,-516.771 345.324,-510.191 347,-504 365.795,-434.585 374.073,-349.902 377.264,-307.283"/>
<polygon fill="black" stroke="black" points="380.767,-307.37 377.986,-297.147 373.785,-306.873 380.767,-307.37"/>
<text text-anchor="middle" x="381.5" y="-405.8" font-family="Times,serif" font-size="14.00">0.014</text>
</g>
<!-- SA&#45;&gt;JR -->
<g id="edge30" class="edge"><title>SA&#45;&gt;JR</title>
<path fill="none" stroke="black" d="M473.621,-208.986C495.759,-246.717 550.086,-344.921 572,-435 579.344,-465.188 581.829,-553.252 582.634,-598.484"/>
<polygon fill="black" stroke="black" points="579.139,-598.801 582.801,-608.743 586.138,-598.687 579.139,-598.801"/>
<text text-anchor="middle" x="585" y="-405.8" font-family="Times,serif" font-size="14.00">&#45;0.004</text>
</g>
<!-- SA&#45;&gt;Qu -->
<g id="edge10" class="edge"><title>SA&#45;&gt;Qu</title>
<path fill="none" stroke="black" d="M490.886,-195.139C517.564,-198.444 558.481,-206.821 587,-228 656.043,-279.273 695.43,-378.295 711.061,-425.596"/>
<polygon fill="black" stroke="black" points="707.733,-426.68 714.121,-435.133 714.399,-424.542 707.733,-426.68"/>
<text text-anchor="middle" x="684.5" y="-318.8" font-family="Times,serif" font-size="14.00">0.146</text>
</g>
<!-- SA&#45;&gt;BI -->
<g id="edge20" class="edge"><title>SA&#45;&gt;BI</title>
<path fill="none" stroke="black" d="M442.622,-180.731C432.153,-174.774 420.094,-166.386 412,-156 406.737,-149.246 402.924,-140.817 400.202,-132.816"/>
<polygon fill="black" stroke="black" points="403.509,-131.659 397.31,-123.067 396.798,-133.65 403.509,-131.659"/>
<text text-anchor="middle" x="427.5" y="-144.8" font-family="Times,serif" font-size="14.00">0.035</text>
</g>
<!-- ENJ&#45;&gt;Im -->
<g id="edge15" class="edge"><title>ENJ&#45;&gt;Im</title>
<path fill="none" stroke="black" d="M384.589,-296.64C386.433,-302.418 388.416,-308.962 390,-315 407.978,-383.549 401.878,-403.353 423,-471 438.08,-519.299 450.491,-528.171 467,-576 482.338,-620.438 467.25,-640.054 495,-678 536.683,-734.998 613.82,-771.325 657.873,-788.437"/>
<polygon fill="black" stroke="black" points="656.679,-791.728 667.27,-791.991 659.155,-785.18 656.679,-791.728"/>
<text text-anchor="middle" x="475.5" y="-536.3" font-family="Times,serif" font-size="14.00">0.053</text>
</g>
<!-- ENJ&#45;&gt;JR -->
<g id="edge31" class="edge"><title>ENJ&#45;&gt;JR</title>
<path fill="none" stroke="black" d="M399.745,-290.663C432.183,-308.625 493.9,-348.282 520,-402 557.055,-478.266 507.226,-515.594 546,-591 548.849,-596.541 552.934,-601.684 557.357,-606.228"/>
<polygon fill="black" stroke="black" points="555.249,-609.045 564.963,-613.273 560.005,-603.91 555.249,-609.045"/>
<text text-anchor="middle" x="552" y="-449.3" font-family="Times,serif" font-size="14.00">&#45;0.004</text>
</g>
<!-- ENJ&#45;&gt;BI -->
<g id="edge21" class="edge"><title>ENJ&#45;&gt;BI</title>
<path fill="none" stroke="black" d="M380.493,-260.879C383.099,-231.001 388.496,-169.113 391.621,-133.274"/>
<polygon fill="black" stroke="black" points="395.131,-133.318 392.513,-123.052 388.157,-132.71 395.131,-133.318"/>
<text text-anchor="middle" x="402.5" y="-188.3" font-family="Times,serif" font-size="14.00">0.035</text>
</g>
<!-- ENJ&#45;&gt;Pf -->
<g id="edge36" class="edge"><title>ENJ&#45;&gt;Pf</title>
<path fill="none" stroke="black" d="M369.391,-295.842C356.304,-318.437 333.528,-361.662 325,-402 317.082,-439.453 322.254,-483.859 327.204,-511.737"/>
<polygon fill="black" stroke="black" points="323.832,-512.737 329.133,-521.911 330.709,-511.434 323.832,-512.737"/>
<text text-anchor="middle" x="343" y="-405.8" font-family="Times,serif" font-size="14.00">&#45;0.081</text>
</g>
<!-- ENJ&#45;&gt;SA -->
<g id="edge27" class="edge"><title>ENJ&#45;&gt;SA</title>
<path fill="none" stroke="black" d="M388.521,-262.108C395.178,-251.737 404.694,-238.267 415,-228 421.388,-221.636 429.033,-215.588 436.364,-210.364"/>
<polygon fill="black" stroke="black" points="438.453,-213.176 444.731,-204.642 434.501,-207.398 438.453,-213.176"/>
<text text-anchor="middle" x="430.5" y="-231.8" font-family="Times,serif" font-size="14.00">0.005</text>
</g>
</g>
</svg>
