<?xml version="1.0" encoding="UTF-8" standalone="no"?>
<!DOCTYPE svg PUBLIC "-//W3C//DTD SVG 1.1//EN"
 "http://www.w3.org/Graphics/SVG/1.1/DTD/svg11.dtd">
<!-- Generated by graphviz version 2.38.0 (20140413.2041)
 -->
<!-- Title: G Pages: 1 -->
<svg width="304pt" height="326pt"
 viewBox="0.00 0.00 303.90 326.00" xmlns="http://www.w3.org/2000/svg" xmlns:xlink="http://www.w3.org/1999/xlink">
<g id="graph0" class="graph" transform="scale(1 1) rotate(0) translate(4 322)">
<title>G</title>
<polygon fill="white" stroke="none" points="-4,4 -4,-322 299.897,-322 299.897,4 -4,4"/>
<!-- PU -->
<g id="node1" class="node"><title>PU</title>
<ellipse fill="none" stroke="black" cx="125.897" cy="-300" rx="27" ry="18"/>
<text text-anchor="middle" x="125.897" y="-296.3" font-family="Times,serif" font-size="14.00">PU</text>
</g>
<!-- BI -->
<g id="node2" class="node"><title>BI</title>
<ellipse fill="none" stroke="black" cx="145.897" cy="-213" rx="27" ry="18"/>
<text text-anchor="middle" x="145.897" y="-209.3" font-family="Times,serif" font-size="14.00">BI</text>
</g>
<!-- PU&#45;&gt;BI -->
<g id="edge1" class="edge"><title>PU&#45;&gt;BI</title>
<path fill="none" stroke="black" d="M108.91,-285.72C98.4171,-275.813 88.14,-261.833 94.8973,-249 99.38,-240.487 106.972,-233.646 114.947,-228.349"/>
<polygon fill="black" stroke="black" points="116.809,-231.314 123.623,-223.201 113.237,-225.294 116.809,-231.314"/>
<text text-anchor="middle" x="115.397" y="-252.8" font-family="Times,serif" font-size="14.00">0.377</text>
</g>
<!-- Qu -->
<g id="node6" class="node"><title>Qu</title>
<ellipse fill="none" stroke="black" cx="221.897" cy="-213" rx="27" ry="18"/>
<text text-anchor="middle" x="221.897" y="-209.3" font-family="Times,serif" font-size="14.00">Qu</text>
</g>
<!-- PU&#45;&gt;Qu -->
<g id="edge6" class="edge"><title>PU&#45;&gt;Qu</title>
<path fill="none" stroke="black" d="M147.473,-288.871C159.294,-282.694 173.761,-274.058 184.897,-264 193.072,-256.617 200.606,-247.18 206.712,-238.497"/>
<polygon fill="black" stroke="black" points="209.636,-240.421 212.314,-230.17 203.828,-236.514 209.636,-240.421"/>
<text text-anchor="middle" x="219.397" y="-252.8" font-family="Times,serif" font-size="14.00">0.173</text>
</g>
<!-- ENJ -->
<g id="node7" class="node"><title>ENJ</title>
<ellipse fill="none" stroke="black" cx="29.8973" cy="-159" rx="29.795" ry="18"/>
<text text-anchor="middle" x="29.8973" y="-155.3" font-family="Times,serif" font-size="14.00">ENJ</text>
</g>
<!-- PU&#45;&gt;ENJ -->
<g id="edge7" class="edge"><title>PU&#45;&gt;ENJ</title>
<path fill="none" stroke="black" d="M100.215,-294.064C82.7737,-289.342 60.6408,-280.413 47.8973,-264 30.9203,-242.134 27.7121,-209.857 27.9342,-187.072"/>
<polygon fill="black" stroke="black" points="31.4335,-187.147 28.2567,-177.039 24.4371,-186.922 31.4335,-187.147"/>
<text text-anchor="middle" x="68.3973" y="-252.8" font-family="Times,serif" font-size="14.00">0.168</text>
</g>
<!-- BI&#45;&gt;PU -->
<g id="edge3" class="edge"><title>BI&#45;&gt;PU</title>
<path fill="none" stroke="black" d="M142.813,-231.2C140.989,-240.878 138.525,-253.16 135.897,-264 135.25,-266.672 134.533,-269.446 133.79,-272.211"/>
<polygon fill="black" stroke="black" points="130.38,-271.41 131.058,-281.984 137.122,-273.295 130.38,-271.41"/>
<text text-anchor="middle" x="160.397" y="-252.8" font-family="Times,serif" font-size="14.00">0.278</text>
</g>
<!-- Use -->
<g id="node3" class="node"><title>Use</title>
<ellipse fill="none" stroke="black" cx="234.897" cy="-105" rx="28.6953" ry="18"/>
<text text-anchor="middle" x="234.897" y="-101.3" font-family="Times,serif" font-size="14.00">Use</text>
</g>
<!-- BI&#45;&gt;Use -->
<g id="edge2" class="edge"><title>BI&#45;&gt;Use</title>
<path fill="none" stroke="black" d="M159.305,-197.127C164.812,-190.95 171.217,-183.677 176.897,-177 190.221,-161.339 204.868,-143.403 216.109,-129.477"/>
<polygon fill="black" stroke="black" points="219.082,-131.365 222.626,-121.38 213.629,-126.976 219.082,-131.365"/>
<text text-anchor="middle" x="226.397" y="-155.3" font-family="Times,serif" font-size="14.00">0.335</text>
</g>
<!-- Im -->
<g id="node4" class="node"><title>Im</title>
<ellipse fill="none" stroke="black" cx="129.897" cy="-105" rx="27" ry="18"/>
<text text-anchor="middle" x="129.897" y="-101.3" font-family="Times,serif" font-size="14.00">Im</text>
</g>
<!-- BI&#45;&gt;Im -->
<g id="edge5" class="edge"><title>BI&#45;&gt;Im</title>
<path fill="none" stroke="black" d="M143.327,-194.969C140.807,-178.279 136.928,-152.579 133.985,-133.084"/>
<polygon fill="black" stroke="black" points="137.415,-132.354 132.462,-122.988 130.493,-133.399 137.415,-132.354"/>
<text text-anchor="middle" x="156.897" y="-155.3" font-family="Times,serif" font-size="14.00">0.19</text>
</g>
<!-- Pf -->
<g id="node9" class="node"><title>Pf</title>
<ellipse fill="none" stroke="black" cx="268.897" cy="-18" rx="27" ry="18"/>
<text text-anchor="middle" x="268.897" y="-14.3" font-family="Times,serif" font-size="14.00">Pf</text>
</g>
<!-- Use&#45;&gt;Pf -->
<g id="edge10" class="edge"><title>Use&#45;&gt;Pf</title>
<path fill="none" stroke="black" d="M241.615,-87.2067C246.442,-75.1377 253.042,-58.6384 258.541,-44.8906"/>
<polygon fill="black" stroke="black" points="261.845,-46.0538 262.31,-35.4692 255.346,-43.454 261.845,-46.0538"/>
<text text-anchor="middle" x="275.397" y="-57.8" font-family="Times,serif" font-size="14.00">0.093</text>
</g>
<!-- PEU -->
<g id="node5" class="node"><title>PEU</title>
<ellipse fill="none" stroke="black" cx="120.897" cy="-18" rx="31.3957" ry="18"/>
<text text-anchor="middle" x="120.897" y="-14.3" font-family="Times,serif" font-size="14.00">PEU</text>
</g>
<!-- Im&#45;&gt;PEU -->
<g id="edge4" class="edge"><title>Im&#45;&gt;PEU</title>
<path fill="none" stroke="black" d="M128.076,-86.799C126.844,-75.1626 125.191,-59.5479 123.781,-46.2368"/>
<polygon fill="black" stroke="black" points="127.249,-45.7513 122.716,-36.1754 120.288,-46.4884 127.249,-45.7513"/>
<text text-anchor="middle" x="147.397" y="-57.8" font-family="Times,serif" font-size="14.00">0.197</text>
</g>
<!-- SA -->
<g id="node8" class="node"><title>SA</title>
<ellipse fill="none" stroke="black" cx="37.8973" cy="-18" rx="27" ry="18"/>
<text text-anchor="middle" x="37.8973" y="-14.3" font-family="Times,serif" font-size="14.00">SA</text>
</g>
<!-- Im&#45;&gt;SA -->
<g id="edge8" class="edge"><title>Im&#45;&gt;SA</title>
<path fill="none" stroke="black" d="M110.496,-92.132C100.847,-85.8142 89.2748,-77.5871 79.8973,-69 71.2805,-61.1094 62.7944,-51.4682 55.7305,-42.7649"/>
<polygon fill="black" stroke="black" points="58.3808,-40.4735 49.4358,-34.7957 52.8877,-44.8124 58.3808,-40.4735"/>
<text text-anchor="middle" x="100.397" y="-57.8" font-family="Times,serif" font-size="14.00">0.127</text>
</g>
<!-- JR -->
<g id="node10" class="node"><title>JR</title>
<ellipse fill="none" stroke="black" cx="196.897" cy="-18" rx="27" ry="18"/>
<text text-anchor="middle" x="196.897" y="-14.3" font-family="Times,serif" font-size="14.00">JR</text>
</g>
<!-- Im&#45;&gt;JR -->
<g id="edge11" class="edge"><title>Im&#45;&gt;JR</title>
<path fill="none" stroke="black" d="M148.128,-91.4698C156.116,-85.3507 165.179,-77.4823 171.897,-69 177.614,-61.7819 182.527,-53.0465 186.447,-44.9099"/>
<polygon fill="black" stroke="black" points="189.653,-46.3141 190.581,-35.76 183.274,-43.4318 189.653,-46.3141"/>
<text text-anchor="middle" x="202.397" y="-57.8" font-family="Times,serif" font-size="14.00">0.092</text>
</g>
<!-- ENJ&#45;&gt;SA -->
<g id="edge9" class="edge"><title>ENJ&#45;&gt;SA</title>
<path fill="none" stroke="black" d="M30.8783,-140.956C32.2338,-117.404 34.6951,-74.6391 36.3131,-46.5255"/>
<polygon fill="black" stroke="black" points="39.8279,-46.3682 36.9084,-36.1835 32.8395,-45.9659 39.8279,-46.3682"/>
<text text-anchor="middle" x="54.3973" y="-101.3" font-family="Times,serif" font-size="14.00">0.127</text>
</g>
</g>
</svg>
