<?xml version="1.0" encoding="UTF-8" standalone="no"?>
<!DOCTYPE svg PUBLIC "-//W3C//DTD SVG 1.1//EN"
 "http://www.w3.org/Graphics/SVG/1.1/DTD/svg11.dtd">
<!-- Generated by graphviz version 2.38.0 (20140413.2041)
 -->
<!-- Title: G Pages: 1 -->
<svg width="501pt" height="305pt"
 viewBox="0.00 0.00 501.00 305.00" xmlns="http://www.w3.org/2000/svg" xmlns:xlink="http://www.w3.org/1999/xlink">
<g id="graph0" class="graph" transform="scale(1 1) rotate(0) translate(4 301)">
<title>G</title>
<polygon fill="white" stroke="none" points="-4,4 -4,-301 497,-301 497,4 -4,4"/>
<!-- PU -->
<g id="node1" class="node"><title>PU</title>
<ellipse fill="none" stroke="black" cx="328" cy="-279" rx="27" ry="18"/>
<text text-anchor="middle" x="328" y="-275.3" font-family="Times,serif" font-size="14.00">PU</text>
</g>
<!-- Use -->
<g id="node2" class="node"><title>Use</title>
<ellipse fill="none" stroke="black" cx="163" cy="-192" rx="28.6953" ry="18"/>
<text text-anchor="middle" x="163" y="-188.3" font-family="Times,serif" font-size="14.00">Use</text>
</g>
<!-- PU&#45;&gt;Use -->
<g id="edge1" class="edge"><title>PU&#45;&gt;Use</title>
<path fill="none" stroke="black" d="M303.243,-271.723C282.425,-265.894 252.263,-256.135 228,-243 213.148,-234.96 198.103,-223.635 186.234,-213.796"/>
<polygon fill="black" stroke="black" points="188.452,-211.088 178.565,-207.28 183.919,-216.422 188.452,-211.088"/>
<text text-anchor="middle" x="248.5" y="-231.8" font-family="Times,serif" font-size="14.00">0.295</text>
</g>
<!-- PEU -->
<g id="node5" class="node"><title>PEU</title>
<ellipse fill="none" stroke="black" cx="373" cy="-192" rx="31.3957" ry="18"/>
<text text-anchor="middle" x="373" y="-188.3" font-family="Times,serif" font-size="14.00">PEU</text>
</g>
<!-- PU&#45;&gt;PEU -->
<g id="edge4" class="edge"><title>PU&#45;&gt;PEU</title>
<path fill="none" stroke="black" d="M336.676,-261.611C343.151,-249.382 352.118,-232.443 359.523,-218.456"/>
<polygon fill="black" stroke="black" points="362.765,-219.814 364.35,-209.339 356.578,-216.539 362.765,-219.814"/>
<text text-anchor="middle" x="374.5" y="-231.8" font-family="Times,serif" font-size="14.00">0.151</text>
</g>
<!-- ENJ -->
<g id="node7" class="node"><title>ENJ</title>
<ellipse fill="none" stroke="black" cx="452" cy="-192" rx="29.795" ry="18"/>
<text text-anchor="middle" x="452" y="-188.3" font-family="Times,serif" font-size="14.00">ENJ</text>
</g>
<!-- PU&#45;&gt;ENJ -->
<g id="edge7" class="edge"><title>PU&#45;&gt;ENJ</title>
<path fill="none" stroke="black" d="M350.701,-268.888C365.132,-262.603 383.876,-253.506 399,-243 410.363,-235.106 421.691,-224.831 430.94,-215.65"/>
<polygon fill="black" stroke="black" points="433.673,-217.862 438.175,-208.271 428.674,-212.961 433.673,-217.862"/>
<text text-anchor="middle" x="434" y="-231.8" font-family="Times,serif" font-size="14.00">0.08</text>
</g>
<!-- BI -->
<g id="node3" class="node"><title>BI</title>
<ellipse fill="none" stroke="black" cx="27" cy="-105" rx="27" ry="18"/>
<text text-anchor="middle" x="27" y="-101.3" font-family="Times,serif" font-size="14.00">BI</text>
</g>
<!-- Use&#45;&gt;BI -->
<g id="edge2" class="edge"><title>Use&#45;&gt;BI</title>
<path fill="none" stroke="black" d="M136.056,-185.798C115.165,-180.775 86.2826,-171.582 65,-156 55.8949,-149.334 47.9408,-139.885 41.6953,-130.993"/>
<polygon fill="black" stroke="black" points="44.4648,-128.835 36.0399,-122.411 38.6197,-132.687 44.4648,-128.835"/>
<text text-anchor="middle" x="85.5" y="-144.8" font-family="Times,serif" font-size="14.00">0.284</text>
</g>
<!-- Qu -->
<g id="node4" class="node"><title>Qu</title>
<ellipse fill="none" stroke="black" cx="263" cy="-105" rx="27" ry="18"/>
<text text-anchor="middle" x="263" y="-101.3" font-family="Times,serif" font-size="14.00">Qu</text>
</g>
<!-- Use&#45;&gt;Qu -->
<g id="edge6" class="edge"><title>Use&#45;&gt;Qu</title>
<path fill="none" stroke="black" d="M179.813,-177.098C187.514,-170.702 196.746,-162.996 205,-156 216.476,-146.273 229.139,-135.376 239.697,-126.244"/>
<polygon fill="black" stroke="black" points="242.039,-128.846 247.306,-119.653 237.456,-123.555 242.039,-128.846"/>
<text text-anchor="middle" x="242.5" y="-144.8" font-family="Times,serif" font-size="14.00">0.103</text>
</g>
<!-- Im -->
<g id="node6" class="node"><title>Im</title>
<ellipse fill="none" stroke="black" cx="99" cy="-105" rx="27" ry="18"/>
<text text-anchor="middle" x="99" y="-101.3" font-family="Times,serif" font-size="14.00">Im</text>
</g>
<!-- Use&#45;&gt;Im -->
<g id="edge5" class="edge"><title>Use&#45;&gt;Im</title>
<path fill="none" stroke="black" d="M143.013,-179.016C134.363,-173.007 124.706,-165.074 118,-156 112.878,-149.069 108.972,-140.591 106.074,-132.6"/>
<polygon fill="black" stroke="black" points="109.34,-131.324 102.927,-122.89 102.681,-133.482 109.34,-131.324"/>
<text text-anchor="middle" x="138.5" y="-144.8" font-family="Times,serif" font-size="14.00">0.114</text>
</g>
<!-- Pf -->
<g id="node8" class="node"><title>Pf</title>
<ellipse fill="none" stroke="black" cx="171" cy="-105" rx="27" ry="18"/>
<text text-anchor="middle" x="171" y="-101.3" font-family="Times,serif" font-size="14.00">Pf</text>
</g>
<!-- Use&#45;&gt;Pf -->
<g id="edge9" class="edge"><title>Use&#45;&gt;Pf</title>
<path fill="none" stroke="black" d="M162.594,-173.827C162.552,-164.157 162.813,-151.875 164,-141 164.282,-138.413 164.66,-135.732 165.095,-133.059"/>
<polygon fill="black" stroke="black" points="168.579,-133.468 166.971,-122.996 161.698,-132.185 168.579,-133.468"/>
<text text-anchor="middle" x="184.5" y="-144.8" font-family="Times,serif" font-size="14.00">0.029</text>
</g>
<!-- Qu&#45;&gt;PU -->
<g id="edge3" class="edge"><title>Qu&#45;&gt;PU</title>
<path fill="none" stroke="black" d="M266.542,-122.936C271.177,-143.826 280.128,-180.227 292,-210 297.874,-224.732 306.044,-240.427 313.116,-253.022"/>
<polygon fill="black" stroke="black" points="310.243,-255.048 318.253,-261.981 316.315,-251.565 310.243,-255.048"/>
<text text-anchor="middle" x="312.5" y="-188.3" font-family="Times,serif" font-size="14.00">0.192</text>
</g>
<!-- SA -->
<g id="node10" class="node"><title>SA</title>
<ellipse fill="none" stroke="black" cx="452" cy="-105" rx="27" ry="18"/>
<text text-anchor="middle" x="452" y="-101.3" font-family="Times,serif" font-size="14.00">SA</text>
</g>
<!-- ENJ&#45;&gt;SA -->
<g id="edge10" class="edge"><title>ENJ&#45;&gt;SA</title>
<path fill="none" stroke="black" d="M452,-173.799C452,-162.163 452,-146.548 452,-133.237"/>
<polygon fill="black" stroke="black" points="455.5,-133.175 452,-123.175 448.5,-133.175 455.5,-133.175"/>
<text text-anchor="middle" x="472.5" y="-144.8" font-family="Times,serif" font-size="14.00">0.021</text>
</g>
<!-- JR -->
<g id="node9" class="node"><title>JR</title>
<ellipse fill="none" stroke="black" cx="171" cy="-18" rx="27" ry="18"/>
<text text-anchor="middle" x="171" y="-14.3" font-family="Times,serif" font-size="14.00">JR</text>
</g>
<!-- Pf&#45;&gt;JR -->
<g id="edge8" class="edge"><title>Pf&#45;&gt;JR</title>
<path fill="none" stroke="black" d="M171,-86.799C171,-75.1626 171,-59.5479 171,-46.2368"/>
<polygon fill="black" stroke="black" points="174.5,-46.1754 171,-36.1754 167.5,-46.1755 174.5,-46.1754"/>
<text text-anchor="middle" x="191.5" y="-57.8" font-family="Times,serif" font-size="14.00">0.049</text>
</g>
</g>
</svg>
