<?xml version="1.0" encoding="UTF-8" standalone="no"?>
<!DOCTYPE svg PUBLIC "-//W3C//DTD SVG 1.1//EN"
 "http://www.w3.org/Graphics/SVG/1.1/DTD/svg11.dtd">
<!-- Generated by graphviz version 2.38.0 (20140413.2041)
 -->
<!-- Title: G Pages: 1 -->
<svg width="403pt" height="413pt"
 viewBox="0.00 0.00 402.90 413.00" xmlns="http://www.w3.org/2000/svg" xmlns:xlink="http://www.w3.org/1999/xlink">
<g id="graph0" class="graph" transform="scale(1 1) rotate(0) translate(4 409)">
<title>G</title>
<polygon fill="white" stroke="none" points="-4,4 -4,-409 398.897,-409 398.897,4 -4,4"/>
<!-- PU -->
<g id="node1" class="node"><title>PU</title>
<ellipse fill="none" stroke="black" cx="266" cy="-387" rx="27" ry="18"/>
<text text-anchor="middle" x="266" y="-383.3" font-family="Times,serif" font-size="14.00">PU</text>
</g>
<!-- BI -->
<g id="node2" class="node"><title>BI</title>
<ellipse fill="none" stroke="black" cx="161" cy="-300" rx="27" ry="18"/>
<text text-anchor="middle" x="161" y="-296.3" font-family="Times,serif" font-size="14.00">BI</text>
</g>
<!-- PU&#45;&gt;BI -->
<g id="edge1" class="edge"><title>PU&#45;&gt;BI</title>
<path fill="none" stroke="black" d="M241.125,-379.434C224.498,-374.024 203.005,-364.943 188,-351 180.859,-344.364 175.208,-335.402 170.961,-326.898"/>
<polygon fill="black" stroke="black" points="174.078,-325.298 166.757,-317.639 167.704,-328.191 174.078,-325.298"/>
<text text-anchor="middle" x="208.5" y="-339.8" font-family="Times,serif" font-size="14.00">0.359</text>
</g>
<!-- Use -->
<g id="node3" class="node"><title>Use</title>
<ellipse fill="none" stroke="black" cx="289" cy="-300" rx="28.6953" ry="18"/>
<text text-anchor="middle" x="289" y="-296.3" font-family="Times,serif" font-size="14.00">Use</text>
</g>
<!-- PU&#45;&gt;Use -->
<g id="edge2" class="edge"><title>PU&#45;&gt;Use</title>
<path fill="none" stroke="black" d="M248.912,-372.666C238.37,-362.733 228.074,-348.743 235,-336 239.791,-327.185 247.866,-320.247 256.331,-314.955"/>
<polygon fill="black" stroke="black" points="258.143,-317.952 265.173,-310.025 254.734,-311.838 258.143,-317.952"/>
<text text-anchor="middle" x="255.5" y="-339.8" font-family="Times,serif" font-size="14.00">0.331</text>
</g>
<!-- ENJ -->
<g id="node8" class="node"><title>ENJ</title>
<ellipse fill="none" stroke="black" cx="365" cy="-300" rx="29.795" ry="18"/>
<text text-anchor="middle" x="365" y="-296.3" font-family="Times,serif" font-size="14.00">ENJ</text>
</g>
<!-- PU&#45;&gt;ENJ -->
<g id="edge7" class="edge"><title>PU&#45;&gt;ENJ</title>
<path fill="none" stroke="black" d="M287.431,-375.708C299.206,-369.479 313.676,-360.847 325,-351 333.556,-343.56 341.645,-334.111 348.279,-325.435"/>
<polygon fill="black" stroke="black" points="351.289,-327.25 354.393,-317.12 345.649,-323.103 351.289,-327.25"/>
<text text-anchor="middle" x="359.5" y="-339.8" font-family="Times,serif" font-size="14.00">0.132</text>
</g>
<!-- Pf -->
<g id="node4" class="node"><title>Pf</title>
<ellipse fill="none" stroke="black" cx="27" cy="-213" rx="27" ry="18"/>
<text text-anchor="middle" x="27" y="-209.3" font-family="Times,serif" font-size="14.00">Pf</text>
</g>
<!-- BI&#45;&gt;Pf -->
<g id="edge11" class="edge"><title>BI&#45;&gt;Pf</title>
<path fill="none" stroke="black" d="M133.926,-296.848C109.098,-293.546 72.6904,-285.183 49,-264 42.0895,-257.821 37.2487,-249.071 33.9047,-240.614"/>
<polygon fill="black" stroke="black" points="37.166,-239.333 30.6323,-230.992 30.5388,-241.587 37.166,-239.333"/>
<text text-anchor="middle" x="69.5" y="-252.8" font-family="Times,serif" font-size="14.00">0.082</text>
</g>
<!-- Qu -->
<g id="node6" class="node"><title>Qu</title>
<ellipse fill="none" stroke="black" cx="99" cy="-213" rx="27" ry="18"/>
<text text-anchor="middle" x="99" y="-209.3" font-family="Times,serif" font-size="14.00">Qu</text>
</g>
<!-- BI&#45;&gt;Qu -->
<g id="edge5" class="edge"><title>BI&#45;&gt;Qu</title>
<path fill="none" stroke="black" d="M136.553,-292.219C122.614,-286.961 106.312,-278.127 98,-264 93.9588,-257.132 92.9439,-248.762 93.3047,-240.849"/>
<polygon fill="black" stroke="black" points="96.7866,-241.206 94.4326,-230.876 89.8309,-240.419 96.7866,-241.206"/>
<text text-anchor="middle" x="118.5" y="-252.8" font-family="Times,serif" font-size="14.00">0.157</text>
</g>
<!-- Im -->
<g id="node7" class="node"><title>Im</title>
<ellipse fill="none" stroke="black" cx="161" cy="-159" rx="27" ry="18"/>
<text text-anchor="middle" x="161" y="-155.3" font-family="Times,serif" font-size="14.00">Im</text>
</g>
<!-- BI&#45;&gt;Im -->
<g id="edge6" class="edge"><title>BI&#45;&gt;Im</title>
<path fill="none" stroke="black" d="M159.242,-281.929C158.735,-276.234 158.25,-269.849 158,-264 156.889,-238.028 157.975,-208.39 159.139,-187.416"/>
<polygon fill="black" stroke="black" points="162.641,-187.494 159.744,-177.303 155.653,-187.076 162.641,-187.494"/>
<text text-anchor="middle" x="178.5" y="-252.8" font-family="Times,serif" font-size="14.00">0.156</text>
</g>
<!-- JR -->
<g id="node10" class="node"><title>JR</title>
<ellipse fill="none" stroke="black" cx="257" cy="-213" rx="27" ry="18"/>
<text text-anchor="middle" x="257" y="-209.3" font-family="Times,serif" font-size="14.00">JR</text>
</g>
<!-- BI&#45;&gt;JR -->
<g id="edge13" class="edge"><title>BI&#45;&gt;JR</title>
<path fill="none" stroke="black" d="M177.523,-285.566C185.33,-279.135 194.729,-271.267 203,-264 213.603,-254.684 225.111,-244.098 234.768,-235.072"/>
<polygon fill="black" stroke="black" points="237.169,-237.619 242.063,-228.223 232.377,-232.516 237.169,-237.619"/>
<text text-anchor="middle" x="240.5" y="-252.8" font-family="Times,serif" font-size="14.00">0.076</text>
</g>
<!-- Use&#45;&gt;PU -->
<g id="edge3" class="edge"><title>Use&#45;&gt;PU</title>
<path fill="none" stroke="black" d="M284.649,-318.151C282.17,-327.815 278.974,-340.097 276,-351 275.236,-353.801 274.424,-356.723 273.606,-359.634"/>
<polygon fill="black" stroke="black" points="270.23,-358.712 270.863,-369.288 276.963,-360.626 270.23,-358.712"/>
<text text-anchor="middle" x="300.5" y="-339.8" font-family="Times,serif" font-size="14.00">0.261</text>
</g>
<!-- SA -->
<g id="node9" class="node"><title>SA</title>
<ellipse fill="none" stroke="black" cx="161" cy="-18" rx="27" ry="18"/>
<text text-anchor="middle" x="161" y="-14.3" font-family="Times,serif" font-size="14.00">SA</text>
</g>
<!-- Use&#45;&gt;SA -->
<g id="edge8" class="edge"><title>Use&#45;&gt;SA</title>
<path fill="none" stroke="black" d="M305.643,-284.984C311.33,-279.15 317.007,-271.893 320,-264 322.364,-257.766 321.532,-255.488 320,-249 299.019,-160.124 223.015,-77.6695 184.184,-40.1912"/>
<polygon fill="black" stroke="black" points="186.157,-37.238 176.495,-32.8903 181.336,-42.3142 186.157,-37.238"/>
<text text-anchor="middle" x="312.5" y="-155.3" font-family="Times,serif" font-size="14.00">0.119</text>
</g>
<!-- Use&#45;&gt;JR -->
<g id="edge12" class="edge"><title>Use&#45;&gt;JR</title>
<path fill="none" stroke="black" d="M282.678,-282.207C278.164,-270.216 272.003,-253.851 266.847,-240.157"/>
<polygon fill="black" stroke="black" points="270.108,-238.884 263.309,-230.758 263.557,-241.35 270.108,-238.884"/>
<text text-anchor="middle" x="295.5" y="-252.8" font-family="Times,serif" font-size="14.00">0.076</text>
</g>
<!-- PEU -->
<g id="node5" class="node"><title>PEU</title>
<ellipse fill="none" stroke="black" cx="76" cy="-105" rx="31.3957" ry="18"/>
<text text-anchor="middle" x="76" y="-101.3" font-family="Times,serif" font-size="14.00">PEU</text>
</g>
<!-- Pf&#45;&gt;PEU -->
<g id="edge4" class="edge"><title>Pf&#45;&gt;PEU</title>
<path fill="none" stroke="black" d="M34.6562,-195.438C42.5209,-178.424 54.8738,-151.702 64.0309,-131.892"/>
<polygon fill="black" stroke="black" points="67.2167,-133.342 68.2358,-122.796 60.8628,-130.404 67.2167,-133.342"/>
<text text-anchor="middle" x="79.5" y="-155.3" font-family="Times,serif" font-size="14.00">0.191</text>
</g>
<!-- PEU&#45;&gt;SA -->
<g id="edge10" class="edge"><title>PEU&#45;&gt;SA</title>
<path fill="none" stroke="black" d="M83.4973,-87.3773C88.7591,-76.9611 96.5351,-63.7173 106,-54 113.209,-46.5986 122.271,-40.0252 130.947,-34.6304"/>
<polygon fill="black" stroke="black" points="132.91,-37.5365 139.755,-29.4498 129.361,-31.5027 132.91,-37.5365"/>
<text text-anchor="middle" x="126.5" y="-57.8" font-family="Times,serif" font-size="14.00">0.119</text>
</g>
<!-- Im&#45;&gt;SA -->
<g id="edge9" class="edge"><title>Im&#45;&gt;SA</title>
<path fill="none" stroke="black" d="M161,-140.956C161,-117.404 161,-74.6391 161,-46.5255"/>
<polygon fill="black" stroke="black" points="164.5,-46.1835 161,-36.1835 157.5,-46.1836 164.5,-46.1835"/>
<text text-anchor="middle" x="181.5" y="-101.3" font-family="Times,serif" font-size="14.00">0.119</text>
</g>
</g>
</svg>
