<?xml version="1.0" encoding="UTF-8" standalone="no"?>
<!DOCTYPE svg PUBLIC "-//W3C//DTD SVG 1.1//EN"
 "http://www.w3.org/Graphics/SVG/1.1/DTD/svg11.dtd">
<!-- Generated by graphviz version 2.38.0 (20140413.2041)
 -->
<!-- Title: G Pages: 1 -->
<svg width="1279pt" height="740pt"
 viewBox="0.00 0.00 1279.00 740.00" xmlns="http://www.w3.org/2000/svg" xmlns:xlink="http://www.w3.org/1999/xlink">
<g id="graph0" class="graph" transform="scale(1 1) rotate(0) translate(4 736)">
<title>G</title>
<polygon fill="white" stroke="none" points="-4,4 -4,-736 1275,-736 1275,4 -4,4"/>
<!-- SA -->
<g id="node1" class="node"><title>SA</title>
<ellipse fill="none" stroke="black" cx="595" cy="-714" rx="27" ry="18"/>
<text text-anchor="middle" x="595" y="-710.3" font-family="Times,serif" font-size="14.00">SA</text>
</g>
<!-- BI -->
<g id="node2" class="node"><title>BI</title>
<ellipse fill="none" stroke="black" cx="643" cy="-627" rx="27" ry="18"/>
<text text-anchor="middle" x="643" y="-623.3" font-family="Times,serif" font-size="14.00">BI</text>
</g>
<!-- SA&#45;&gt;BI -->
<g id="edge1" class="edge"><title>SA&#45;&gt;BI</title>
<path fill="none" stroke="black" d="M607.428,-697.833C612.01,-691.858 617.043,-684.805 621,-678 625.358,-670.506 629.408,-661.989 632.815,-654.135"/>
<polygon fill="black" stroke="black" points="636.145,-655.245 636.762,-644.669 629.684,-652.552 636.145,-655.245"/>
<text text-anchor="middle" x="643.5" y="-666.8" font-family="Times,serif" font-size="14.00">0.597</text>
</g>
<!-- Pf -->
<g id="node3" class="node"><title>Pf</title>
<ellipse fill="none" stroke="black" cx="507" cy="-279" rx="27" ry="18"/>
<text text-anchor="middle" x="507" y="-275.3" font-family="Times,serif" font-size="14.00">Pf</text>
</g>
<!-- SA&#45;&gt;Pf -->
<g id="edge45" class="edge"><title>SA&#45;&gt;Pf</title>
<path fill="none" stroke="black" d="M567.911,-713.568C525.016,-713.422 439.787,-708.829 376,-678 323.571,-652.66 247.287,-611.231 204,-504 159.649,-394.134 282.998,-361.433 392,-315 418.091,-303.886 448.886,-294.709 472.04,-288.544"/>
<polygon fill="black" stroke="black" points="472.982,-291.916 481.777,-286.009 471.218,-285.142 472.982,-291.916"/>
<text text-anchor="middle" x="219.5" y="-492.8" font-family="Times,serif" font-size="14.00">0.136</text>
</g>
<!-- PEU -->
<g id="node5" class="node"><title>PEU</title>
<ellipse fill="none" stroke="black" cx="821" cy="-105" rx="27.0966" ry="18"/>
<text text-anchor="middle" x="821" y="-101.3" font-family="Times,serif" font-size="14.00">PEU</text>
</g>
<!-- SA&#45;&gt;PEU -->
<g id="edge24" class="edge"><title>SA&#45;&gt;PEU</title>
<path fill="none" stroke="black" d="M621.865,-711.773C733.128,-706.342 1152,-682.291 1152,-628 1152,-628 1152,-628 1152,-452 1152,-444.389 1154.43,-321.795 1151,-315 1151,-315 963,-174 963,-174 937.044,-157.374 929.73,-154.46 902,-141 886.06,-133.263 867.989,-125.373 852.966,-119.047"/>
<polygon fill="black" stroke="black" points="854.164,-115.754 843.587,-115.133 851.468,-122.214 854.164,-115.754"/>
<text text-anchor="middle" x="1167.5" y="-405.8" font-family="Times,serif" font-size="14.00">0.314</text>
</g>
<!-- Use -->
<g id="node6" class="node"><title>Use</title>
<ellipse fill="none" stroke="black" cx="236" cy="-18" rx="27" ry="18"/>
<text text-anchor="middle" x="236" y="-14.3" font-family="Times,serif" font-size="14.00">Use</text>
</g>
<!-- SA&#45;&gt;Use -->
<g id="edge8" class="edge"><title>SA&#45;&gt;Use</title>
<path fill="none" stroke="black" d="M567.888,-712.027C451.489,-707.496 0,-686.174 0,-628 0,-628 0,-628 0,-104 0,-70.3013 26.7532,-68.8572 57,-54 102.723,-31.541 161.668,-23.4875 199.161,-20.6033"/>
<polygon fill="black" stroke="black" points="199.401,-24.0952 209.139,-19.9193 198.923,-17.1116 199.401,-24.0952"/>
<text text-anchor="middle" x="15.5" y="-362.3" font-family="Times,serif" font-size="14.00">0.552</text>
</g>
<!-- JR -->
<g id="node8" class="node"><title>JR</title>
<ellipse fill="none" stroke="black" cx="541" cy="-366" rx="27" ry="18"/>
<text text-anchor="middle" x="541" y="-362.3" font-family="Times,serif" font-size="14.00">JR</text>
</g>
<!-- SA&#45;&gt;JR -->
<g id="edge53" class="edge"><title>SA&#45;&gt;JR</title>
<path fill="none" stroke="black" d="M579.323,-699.236C572.518,-692.996 564.61,-685.375 558,-678 516.79,-632.021 502.597,-617.994 488,-558 484.217,-542.454 485.496,-537.803 488,-522 496.775,-466.611 507.909,-454.73 527,-402 528.058,-399.079 529.204,-396.038 530.371,-393.022"/>
<polygon fill="black" stroke="black" points="533.655,-394.235 534.079,-383.648 527.146,-391.659 533.655,-394.235"/>
<text text-anchor="middle" x="503.5" y="-536.3" font-family="Times,serif" font-size="14.00">0.126</text>
</g>
<!-- PU -->
<g id="node9" class="node"><title>PU</title>
<ellipse fill="none" stroke="black" cx="828" cy="-453" rx="27" ry="18"/>
<text text-anchor="middle" x="828" y="-449.3" font-family="Times,serif" font-size="14.00">PU</text>
</g>
<!-- SA&#45;&gt;PU -->
<g id="edge15" class="edge"><title>SA&#45;&gt;PU</title>
<path fill="none" stroke="black" d="M619.928,-706.768C665.933,-693.84 763.617,-659.429 809,-591 830.867,-558.028 832.457,-510.748 830.813,-481.235"/>
<polygon fill="black" stroke="black" points="834.301,-480.949 830.092,-471.226 827.319,-481.451 834.301,-480.949"/>
<text text-anchor="middle" x="832.5" y="-579.8" font-family="Times,serif" font-size="14.00">0.436</text>
</g>
<!-- Im -->
<g id="node10" class="node"><title>Im</title>
<ellipse fill="none" stroke="black" cx="348" cy="-540" rx="27" ry="18"/>
<text text-anchor="middle" x="348" y="-536.3" font-family="Times,serif" font-size="14.00">Im</text>
</g>
<!-- SA&#45;&gt;Im -->
<g id="edge31" class="edge"><title>SA&#45;&gt;Im</title>
<path fill="none" stroke="black" d="M567.916,-711.973C536.684,-709.631 484.912,-702.083 448,-678 405.718,-650.413 375.219,-598.331 359.684,-566.936"/>
<polygon fill="black" stroke="black" points="362.651,-565.029 355.17,-557.527 356.339,-568.057 362.651,-565.029"/>
<text text-anchor="middle" x="422.5" y="-623.3" font-family="Times,serif" font-size="14.00">0.26</text>
</g>
<!-- BI&#45;&gt;SA -->
<g id="edge42" class="edge"><title>BI&#45;&gt;SA</title>
<path fill="none" stroke="black" d="M620.726,-637.201C609.973,-642.915 598.104,-651.408 592,-663 588.281,-670.062 587.615,-678.487 588.29,-686.39"/>
<polygon fill="black" stroke="black" points="584.836,-686.963 589.806,-696.32 591.756,-685.907 584.836,-686.963"/>
<text text-anchor="middle" x="604.5" y="-666.8" font-family="Times,serif" font-size="14.00">0.19</text>
</g>
<!-- BI&#45;&gt;Use -->
<g id="edge13" class="edge"><title>BI&#45;&gt;Use</title>
<path fill="none" stroke="black" d="M616.151,-625.075C563.823,-622.778 444.836,-615.13 348,-591 308.677,-581.202 297.319,-579.552 263,-558 117.429,-466.583 48,-408.396 48,-236.5 48,-236.5 48,-236.5 48,-104 48,-38.3803 144.271,-23.1484 199.031,-19.7921"/>
<polygon fill="black" stroke="black" points="199.255,-23.2853 209.064,-19.2808 198.899,-16.2944 199.255,-23.2853"/>
<text text-anchor="middle" x="72.5" y="-318.8" font-family="Times,serif" font-size="14.00">0.552</text>
</g>
<!-- Qu -->
<g id="node7" class="node"><title>Qu</title>
<ellipse fill="none" stroke="black" cx="767" cy="-192" rx="27" ry="18"/>
<text text-anchor="middle" x="767" y="-188.3" font-family="Times,serif" font-size="14.00">Qu</text>
</g>
<!-- BI&#45;&gt;Qu -->
<g id="edge27" class="edge"><title>BI&#45;&gt;Qu</title>
<path fill="none" stroke="black" d="M654.292,-610.316C680.203,-573.231 743.363,-476.305 765,-384 778.363,-326.992 774.244,-257.761 770.401,-220.288"/>
<polygon fill="black" stroke="black" points="773.86,-219.719 769.288,-210.161 766.902,-220.484 773.86,-219.719"/>
<text text-anchor="middle" x="775.5" y="-405.8" font-family="Times,serif" font-size="14.00">0.262</text>
</g>
<!-- BI&#45;&gt;JR -->
<g id="edge59" class="edge"><title>BI&#45;&gt;JR</title>
<path fill="none" stroke="black" d="M632.95,-609.988C619,-587.189 593.712,-543.724 578,-504 563.376,-467.027 552.486,-422.225 546.434,-394.158"/>
<polygon fill="black" stroke="black" points="549.838,-393.337 544.353,-384.272 542.988,-394.778 549.838,-393.337"/>
<text text-anchor="middle" x="593.5" y="-492.8" font-family="Times,serif" font-size="14.00">0.126</text>
</g>
<!-- BI&#45;&gt;Im -->
<g id="edge35" class="edge"><title>BI&#45;&gt;Im</title>
<path fill="none" stroke="black" d="M619.662,-617.598C602.508,-611.108 578.833,-601.486 559,-591 548.211,-585.296 547.329,-580.538 536,-576 535.113,-575.645 438.241,-557.693 383.92,-547.642"/>
<polygon fill="black" stroke="black" points="384.455,-544.182 373.985,-545.804 383.181,-551.065 384.455,-544.182"/>
<text text-anchor="middle" x="571.5" y="-579.8" font-family="Times,serif" font-size="14.00">0.26</text>
</g>
<!-- Pf&#45;&gt;BI -->
<g id="edge2" class="edge"><title>Pf&#45;&gt;BI</title>
<path fill="none" stroke="black" d="M529.18,-289.562C541.74,-295.666 557.24,-304.416 569,-315 604.293,-346.762 611.293,-358.802 631,-402 666.059,-478.85 660.953,-507.119 651,-591 650.681,-593.693 650.239,-596.481 649.725,-599.254"/>
<polygon fill="black" stroke="black" points="646.301,-598.528 647.643,-609.038 653.148,-599.985 646.301,-598.528"/>
<text text-anchor="middle" x="669.5" y="-449.3" font-family="Times,serif" font-size="14.00">0.597</text>
</g>
<!-- Pf&#45;&gt;PEU -->
<g id="edge25" class="edge"><title>Pf&#45;&gt;PEU</title>
<path fill="none" stroke="black" d="M511.109,-260.767C519.729,-229.19 543.082,-163.255 592,-141 654.963,-112.355 736.688,-106.402 783.545,-105.579"/>
<polygon fill="black" stroke="black" points="783.593,-109.079 793.555,-105.473 783.518,-102.08 783.593,-109.079"/>
<text text-anchor="middle" x="565.5" y="-188.3" font-family="Times,serif" font-size="14.00">0.314</text>
</g>
<!-- Pf&#45;&gt;Use -->
<g id="edge9" class="edge"><title>Pf&#45;&gt;Use</title>
<path fill="none" stroke="black" d="M481.003,-274.087C444.221,-267.276 376.924,-249.947 336,-210 284.09,-159.329 329.519,-113.485 288,-54 282.465,-46.0706 274.508,-39.4289 266.476,-34.1365"/>
<polygon fill="black" stroke="black" points="268.213,-31.0968 257.843,-28.926 264.596,-37.0899 268.213,-31.0968"/>
<text text-anchor="middle" x="325.5" y="-144.8" font-family="Times,serif" font-size="14.00">0.552</text>
</g>
<!-- Pf&#45;&gt;Qu -->
<g id="edge26" class="edge"><title>Pf&#45;&gt;Qu</title>
<path fill="none" stroke="black" d="M533.379,-274.949C564.944,-270.649 618.931,-261.209 662,-243 673.241,-238.248 674.236,-233.751 685,-228 700.791,-219.564 719.052,-211.606 734.327,-205.417"/>
<polygon fill="black" stroke="black" points="735.88,-208.566 743.878,-201.617 733.293,-202.061 735.88,-208.566"/>
<text text-anchor="middle" x="700.5" y="-231.8" font-family="Times,serif" font-size="14.00">0.262</text>
</g>
<!-- Pf&#45;&gt;JR -->
<g id="edge54" class="edge"><title>Pf&#45;&gt;JR</title>
<path fill="none" stroke="black" d="M497.282,-295.925C492.421,-306.063 488.607,-319.259 494,-330 497.788,-337.543 504.057,-343.874 510.802,-348.985"/>
<polygon fill="black" stroke="black" points="509.198,-352.124 519.448,-354.806 513.108,-346.318 509.198,-352.124"/>
<text text-anchor="middle" x="509.5" y="-318.8" font-family="Times,serif" font-size="14.00">0.126</text>
</g>
<!-- Pf&#45;&gt;Im -->
<g id="edge32" class="edge"><title>Pf&#45;&gt;Im</title>
<path fill="none" stroke="black" d="M494.366,-295.135C475.861,-316.681 439.596,-356.617 403,-384 389.623,-394.009 381.527,-389.907 370,-402 342.048,-431.324 341.327,-481.242 344.122,-512.043"/>
<polygon fill="black" stroke="black" points="340.652,-512.515 345.218,-522.075 347.611,-511.754 340.652,-512.515"/>
<text text-anchor="middle" x="382.5" y="-405.8" font-family="Times,serif" font-size="14.00">0.26</text>
</g>
<!-- ENJ -->
<g id="node4" class="node"><title>ENJ</title>
<ellipse fill="none" stroke="black" cx="1050" cy="-18" rx="27" ry="18"/>
<text text-anchor="middle" x="1050" y="-14.3" font-family="Times,serif" font-size="14.00">ENJ</text>
</g>
<!-- ENJ&#45;&gt;SA -->
<g id="edge43" class="edge"><title>ENJ&#45;&gt;SA</title>
<path fill="none" stroke="black" d="M1077.25,-18.8389C1131.11,-20.0983 1246,-31.3039 1246,-104 1246,-628 1246,-628 1246,-628 1246,-687.423 1180.17,-665.883 1122,-678 1028.16,-697.546 736.104,-708.51 632.178,-711.873"/>
<polygon fill="black" stroke="black" points="632.035,-708.376 622.151,-712.193 632.258,-715.372 632.035,-708.376"/>
<text text-anchor="middle" x="1258.5" y="-362.3" font-family="Times,serif" font-size="14.00">0.19</text>
</g>
<!-- ENJ&#45;&gt;BI -->
<g id="edge3" class="edge"><title>ENJ&#45;&gt;BI</title>
<path fill="none" stroke="black" d="M1075.8,-23.8922C1113.44,-32.6953 1179,-55.0525 1179,-104 1179,-236.5 1179,-236.5 1179,-236.5 1179,-311.521 1117.29,-495.366 1076,-558 1063.69,-576.675 1058.59,-582.254 1038,-591 974.056,-618.166 765.414,-624.252 679.982,-625.611"/>
<polygon fill="black" stroke="black" points="679.903,-622.112 669.955,-625.757 680.005,-629.111 679.903,-622.112"/>
<text text-anchor="middle" x="1182.5" y="-318.8" font-family="Times,serif" font-size="14.00">0.597</text>
</g>
<!-- ENJ&#45;&gt;Pf -->
<g id="edge47" class="edge"><title>ENJ&#45;&gt;Pf</title>
<path fill="none" stroke="black" d="M1022.91,-20.3411C918.016,-25.8059 542.612,-47.98 508,-87 467.616,-132.527 484.62,-210.939 497.485,-251.689"/>
<polygon fill="black" stroke="black" points="494.243,-253.035 500.71,-261.428 500.889,-250.835 494.243,-253.035"/>
<text text-anchor="middle" x="499.5" y="-144.8" font-family="Times,serif" font-size="14.00">0.136</text>
</g>
<!-- ENJ&#45;&gt;PEU -->
<g id="edge22" class="edge"><title>ENJ&#45;&gt;PEU</title>
<path fill="none" stroke="black" d="M1027.06,-27.5145C986.181,-42.6884 900.621,-74.4465 853.63,-91.8885"/>
<polygon fill="black" stroke="black" points="852.375,-88.6208 844.218,-95.382 854.811,-95.1834 852.375,-88.6208"/>
<text text-anchor="middle" x="964.5" y="-57.8" font-family="Times,serif" font-size="14.00">0.314</text>
</g>
<!-- ENJ&#45;&gt;JR -->
<g id="edge56" class="edge"><title>ENJ&#45;&gt;JR</title>
<path fill="none" stroke="black" d="M1022.77,-19.4522C931.73,-21.1895 638.548,-28.6632 548,-54 517.181,-62.6238 509.064,-67.101 484,-87 434.035,-126.668 392.048,-148.78 410,-210 427.832,-270.808 442.294,-285.089 487,-330 494.195,-337.228 503.125,-343.752 511.639,-349.154"/>
<polygon fill="black" stroke="black" points="509.898,-352.192 520.269,-354.361 513.514,-346.198 509.898,-352.192"/>
<text text-anchor="middle" x="425.5" y="-188.3" font-family="Times,serif" font-size="14.00">0.126</text>
</g>
<!-- ENJ&#45;&gt;PU -->
<g id="edge16" class="edge"><title>ENJ&#45;&gt;PU</title>
<path fill="none" stroke="black" d="M1073.84,-26.5648C1086.71,-32.003 1101.46,-40.753 1109,-54 1143.31,-114.248 1132.37,-144.724 1109,-210 1068.87,-322.083 1037.63,-350.337 939,-417 916.498,-432.208 887.024,-441.095 864.104,-446.106"/>
<polygon fill="black" stroke="black" points="863.184,-442.721 854.083,-448.144 864.58,-449.581 863.184,-442.721"/>
<text text-anchor="middle" x="1117.5" y="-231.8" font-family="Times,serif" font-size="14.00">0.436</text>
</g>
<!-- PEU&#45;&gt;SA -->
<g id="edge41" class="edge"><title>PEU&#45;&gt;SA</title>
<path fill="none" stroke="black" d="M846.028,-112.385C881.872,-122.203 949.109,-143.161 1000,-174 1131.52,-253.697 1206,-298.22 1206,-452 1206,-628 1206,-628 1206,-628 1206,-686.263 764.524,-706.892 632.106,-711.769"/>
<polygon fill="black" stroke="black" points="631.91,-708.274 622.042,-712.131 632.162,-715.27 631.91,-708.274"/>
<text text-anchor="middle" x="1216.5" y="-405.8" font-family="Times,serif" font-size="14.00">0.19</text>
</g>
<!-- PEU&#45;&gt;BI -->
<g id="edge4" class="edge"><title>PEU&#45;&gt;BI</title>
<path fill="none" stroke="black" d="M840.555,-117.853C898.455,-153.63 1065,-261.733 1065,-321.5 1065,-541 1065,-541 1065,-541 1065,-619.136 783.459,-626.338 680.301,-626.354"/>
<polygon fill="black" stroke="black" points="680.048,-622.854 670.04,-626.332 680.032,-629.854 680.048,-622.854"/>
<text text-anchor="middle" x="1080.5" y="-362.3" font-family="Times,serif" font-size="14.00">0.597</text>
</g>
<!-- PEU&#45;&gt;Pf -->
<g id="edge49" class="edge"><title>PEU&#45;&gt;Pf</title>
<path fill="none" stroke="black" d="M793.696,-106.73C758.631,-108.722 696.841,-115.863 651,-141 613.52,-161.552 616.857,-182.658 584,-210 572.914,-219.225 568.153,-218.856 557,-228 546.616,-236.513 535.978,-246.878 527.199,-255.96"/>
<polygon fill="black" stroke="black" points="524.655,-253.555 520.308,-263.217 529.732,-258.375 524.655,-253.555"/>
<text text-anchor="middle" x="629.5" y="-188.3" font-family="Times,serif" font-size="14.00">0.136</text>
</g>
<!-- PEU&#45;&gt;ENJ -->
<g id="edge37" class="edge"><title>PEU&#45;&gt;ENJ</title>
<path fill="none" stroke="black" d="M835.732,-89.5322C848.137,-78.1709 866.873,-62.8409 886,-54 927.193,-34.9594 979.024,-26.13 1013.27,-22.1359"/>
<polygon fill="black" stroke="black" points="1013.73,-25.6058 1023.3,-21.0457 1012.98,-18.6468 1013.73,-25.6058"/>
<text text-anchor="middle" x="901.5" y="-57.8" font-family="Times,serif" font-size="14.00">0.219</text>
</g>
<!-- PEU&#45;&gt;Use -->
<g id="edge12" class="edge"><title>PEU&#45;&gt;Use</title>
<path fill="none" stroke="black" d="M794.344,-100.127C699.813,-86.3916 380.495,-39.995 272.241,-24.2657"/>
<polygon fill="black" stroke="black" points="272.544,-20.7731 262.144,-22.7988 271.537,-27.7004 272.544,-20.7731"/>
<text text-anchor="middle" x="578.5" y="-57.8" font-family="Times,serif" font-size="14.00">0.552</text>
</g>
<!-- PEU&#45;&gt;Qu -->
<g id="edge28" class="edge"><title>PEU&#45;&gt;Qu</title>
<path fill="none" stroke="black" d="M797.359,-114.031C785.063,-119.552 771.144,-128.231 764,-141 760.103,-147.966 759.386,-156.363 760.07,-164.271"/>
<polygon fill="black" stroke="black" points="756.623,-164.883 761.626,-174.223 763.539,-163.802 756.623,-164.883"/>
<text text-anchor="middle" x="779.5" y="-144.8" font-family="Times,serif" font-size="14.00">0.262</text>
</g>
<!-- PEU&#45;&gt;JR -->
<g id="edge58" class="edge"><title>PEU&#45;&gt;JR</title>
<path fill="none" stroke="black" d="M799.92,-116.673C787.053,-123.354 770.369,-132.315 756,-141 741.204,-149.943 638.749,-215.318 627,-228 591.558,-266.255 598.269,-286.838 569,-330 566.251,-334.053 563.162,-338.229 560.065,-342.222"/>
<polygon fill="black" stroke="black" points="557.309,-340.065 553.806,-350.064 562.78,-344.432 557.309,-340.065"/>
<text text-anchor="middle" x="642.5" y="-231.8" font-family="Times,serif" font-size="14.00">0.126</text>
</g>
<!-- PEU&#45;&gt;PU -->
<g id="edge18" class="edge"><title>PEU&#45;&gt;PU</title>
<path fill="none" stroke="black" d="M831.959,-121.821C835.589,-127.641 839.369,-134.42 842,-141 900.512,-287.302 890.419,-263.118 881,-330 875.39,-369.838 874.481,-381.265 856,-417 853.851,-421.156 851.167,-425.29 848.317,-429.184"/>
<polygon fill="black" stroke="black" points="845.408,-427.221 841.96,-437.238 850.903,-431.558 845.408,-427.221"/>
<text text-anchor="middle" x="903.5" y="-275.3" font-family="Times,serif" font-size="14.00">0.436</text>
</g>
<!-- PEU&#45;&gt;Im -->
<g id="edge33" class="edge"><title>PEU&#45;&gt;Im</title>
<path fill="none" stroke="black" d="M793.903,-107.841C736.902,-112.015 606.518,-123.24 566,-141 544.892,-150.252 543.513,-159.019 526,-174 313.393,-355.869 347.927,-323.798 333,-348 303.926,-395.14 305.649,-416.105 313,-471 315.018,-486.068 315.352,-490.328 322,-504 323.936,-507.982 326.346,-511.972 328.91,-515.758"/>
<polygon fill="black" stroke="black" points="326.299,-518.118 335.027,-524.123 331.95,-513.985 326.299,-518.118"/>
<text text-anchor="middle" x="374.5" y="-318.8" font-family="Times,serif" font-size="14.00">0.26</text>
</g>
<!-- Use&#45;&gt;BI -->
<g id="edge5" class="edge"><title>Use&#45;&gt;BI</title>
<path fill="none" stroke="black" d="M214.625,-29.2248C190.033,-42.6534 153,-68.7306 153,-104 153,-236.5 153,-236.5 153,-236.5 153,-395.908 182.81,-464.615 312,-558 358.941,-591.932 530.4,-613.975 606.358,-622.282"/>
<polygon fill="black" stroke="black" points="606.102,-625.775 616.419,-623.363 606.85,-618.815 606.102,-625.775"/>
<text text-anchor="middle" x="173.5" y="-318.8" font-family="Times,serif" font-size="14.00">0.597</text>
</g>
<!-- Use&#45;&gt;Pf -->
<g id="edge50" class="edge"><title>Use&#45;&gt;Pf</title>
<path fill="none" stroke="black" d="M260.369,-26.1693C275.465,-31.6788 294.324,-40.6422 307,-54 313.493,-60.8418 367.557,-203.111 374,-210 401.134,-239.015 443.416,-257.654 473.003,-267.945"/>
<polygon fill="black" stroke="black" points="471.916,-271.272 482.509,-271.118 474.132,-264.632 471.916,-271.272"/>
<text text-anchor="middle" x="366.5" y="-144.8" font-family="Times,serif" font-size="14.00">0.136</text>
</g>
<!-- Use&#45;&gt;PU -->
<g id="edge19" class="edge"><title>Use&#45;&gt;PU</title>
<path fill="none" stroke="black" d="M241.259,-35.9164C260.988,-99.1945 330.034,-318.904 341,-330 423.107,-413.081 475.579,-389.076 589,-417 626.567,-426.249 734.141,-440.348 791.289,-447.5"/>
<polygon fill="black" stroke="black" points="790.988,-450.99 801.344,-448.752 791.853,-444.044 790.988,-450.99"/>
<text text-anchor="middle" x="323.5" y="-231.8" font-family="Times,serif" font-size="14.00">0.436</text>
</g>
<!-- Use&#45;&gt;Im -->
<g id="edge34" class="edge"><title>Use&#45;&gt;Im</title>
<path fill="none" stroke="black" d="M231.076,-35.8607C219.06,-79.5873 190.795,-199.988 213,-297 235.797,-396.597 253.824,-420.708 313,-504 316.507,-508.937 320.736,-513.807 325.022,-518.275"/>
<polygon fill="black" stroke="black" points="322.605,-520.806 332.175,-525.352 327.528,-515.83 322.605,-520.806"/>
<text text-anchor="middle" x="225.5" y="-275.3" font-family="Times,serif" font-size="14.00">0.26</text>
</g>
<!-- Qu&#45;&gt;BI -->
<g id="edge6" class="edge"><title>Qu&#45;&gt;BI</title>
<path fill="none" stroke="black" d="M792.674,-197.741C826.85,-205.328 887.134,-223.351 923,-261 962.04,-301.981 967.279,-328.535 956,-384 931.412,-504.913 877.428,-528.57 771,-591 742.668,-607.619 706.192,-616.583 679.431,-621.263"/>
<polygon fill="black" stroke="black" points="678.637,-617.847 669.329,-622.909 679.762,-624.756 678.637,-617.847"/>
<text text-anchor="middle" x="966.5" y="-405.8" font-family="Times,serif" font-size="14.00">0.597</text>
</g>
<!-- Qu&#45;&gt;Pf -->
<g id="edge51" class="edge"><title>Qu&#45;&gt;Pf</title>
<path fill="none" stroke="black" d="M740.765,-196.394C695.835,-202.444 606.179,-215.622 577,-228 572.067,-230.093 550.665,-245.553 532.81,-258.735"/>
<polygon fill="black" stroke="black" points="530.368,-256.189 524.418,-264.955 534.536,-261.813 530.368,-256.189"/>
<text text-anchor="middle" x="592.5" y="-231.8" font-family="Times,serif" font-size="14.00">0.136</text>
</g>
<!-- Qu&#45;&gt;PEU -->
<g id="edge23" class="edge"><title>Qu&#45;&gt;PEU</title>
<path fill="none" stroke="black" d="M781.851,-176.901C787.691,-170.843 794.145,-163.45 799,-156 803.733,-148.737 807.891,-140.287 811.281,-132.422"/>
<polygon fill="black" stroke="black" points="814.625,-133.489 815.15,-122.908 808.141,-130.853 814.625,-133.489"/>
<text text-anchor="middle" x="822.5" y="-144.8" font-family="Times,serif" font-size="14.00">0.314</text>
</g>
<!-- Qu&#45;&gt;Use -->
<g id="edge14" class="edge"><title>Qu&#45;&gt;Use</title>
<path fill="none" stroke="black" d="M744.324,-182.228C684.627,-159.317 517.943,-96.5118 376,-54 340.624,-43.4049 299.573,-33.4075 271.11,-26.832"/>
<polygon fill="black" stroke="black" points="271.755,-23.3893 261.226,-24.5694 270.193,-30.2128 271.755,-23.3893"/>
<text text-anchor="middle" x="593.5" y="-101.3" font-family="Times,serif" font-size="14.00">0.552</text>
</g>
<!-- Qu&#45;&gt;JR -->
<g id="edge60" class="edge"><title>Qu&#45;&gt;JR</title>
<path fill="none" stroke="black" d="M753.486,-207.892C743.628,-218.333 729.655,-232.281 716,-243 704.067,-252.367 696.777,-249.401 687,-261 665.669,-286.304 683.511,-307.762 659,-330 646.861,-341.014 606.895,-351.396 576.813,-357.949"/>
<polygon fill="black" stroke="black" points="575.704,-354.606 566.646,-360.102 577.154,-361.454 575.704,-354.606"/>
<text text-anchor="middle" x="702.5" y="-275.3" font-family="Times,serif" font-size="14.00">0.126</text>
</g>
<!-- Qu&#45;&gt;PU -->
<g id="edge20" class="edge"><title>Qu&#45;&gt;PU</title>
<path fill="none" stroke="black" d="M789.69,-201.933C801.211,-207.652 814.354,-216.232 822,-228 864.412,-293.274 838.876,-324.22 842,-402 842.268,-408.661 843.261,-410.454 842,-417 841.413,-420.051 840.562,-423.173 839.565,-426.236"/>
<polygon fill="black" stroke="black" points="836.266,-425.065 836.03,-435.657 842.82,-427.524 836.266,-425.065"/>
<text text-anchor="middle" x="861.5" y="-318.8" font-family="Times,serif" font-size="14.00">0.436</text>
</g>
<!-- JR&#45;&gt;SA -->
<g id="edge44" class="edge"><title>JR&#45;&gt;SA</title>
<path fill="none" stroke="black" d="M537.2,-383.891C529.374,-421.659 513.669,-515.549 532,-591 540.883,-627.561 562.76,-665.415 578.232,-689.069"/>
<polygon fill="black" stroke="black" points="575.34,-691.04 583.808,-697.407 581.159,-687.149 575.34,-691.04"/>
<text text-anchor="middle" x="538.5" y="-536.3" font-family="Times,serif" font-size="14.00">0.19</text>
</g>
<!-- JR&#45;&gt;BI -->
<g id="edge7" class="edge"><title>JR&#45;&gt;BI</title>
<path fill="none" stroke="black" d="M552.521,-382.728C568.436,-405.189 596.991,-448.255 613,-489 627.369,-525.572 635.544,-570.479 639.624,-598.678"/>
<polygon fill="black" stroke="black" points="636.16,-599.185 640.991,-608.615 643.095,-598.231 636.16,-599.185"/>
<text text-anchor="middle" x="632.5" y="-492.8" font-family="Times,serif" font-size="14.00">0.597</text>
</g>
<!-- JR&#45;&gt;Pf -->
<g id="edge52" class="edge"><title>JR&#45;&gt;Pf</title>
<path fill="none" stroke="black" d="M538.324,-347.899C536.432,-338.032 533.432,-325.532 529,-315 527.447,-311.31 525.526,-307.566 523.472,-303.968"/>
<polygon fill="black" stroke="black" points="526.443,-302.117 518.223,-295.433 520.481,-305.785 526.443,-302.117"/>
<text text-anchor="middle" x="549.5" y="-318.8" font-family="Times,serif" font-size="14.00">0.136</text>
</g>
<!-- JR&#45;&gt;PU -->
<g id="edge21" class="edge"><title>JR&#45;&gt;PU</title>
<path fill="none" stroke="black" d="M558.385,-379.951C574.735,-391.478 600.324,-407.885 625,-417 632.777,-419.873 735.824,-436.952 792.024,-446.146"/>
<polygon fill="black" stroke="black" points="791.505,-449.608 801.939,-447.766 792.634,-442.699 791.505,-449.608"/>
<text text-anchor="middle" x="640.5" y="-405.8" font-family="Times,serif" font-size="14.00">0.436</text>
</g>
<!-- JR&#45;&gt;Im -->
<g id="edge36" class="edge"><title>JR&#45;&gt;Im</title>
<path fill="none" stroke="black" d="M519.197,-376.748C506.3,-383.03 489.999,-391.897 477,-402 428.086,-440.016 424.696,-459.113 382,-504 377.986,-508.22 373.676,-512.698 369.518,-516.99"/>
<polygon fill="black" stroke="black" points="366.755,-514.811 362.295,-524.421 371.775,-519.69 366.755,-514.811"/>
<text text-anchor="middle" x="452.5" y="-449.3" font-family="Times,serif" font-size="14.00">0.26</text>
</g>
<!-- PU&#45;&gt;SA -->
<g id="edge39" class="edge"><title>PU&#45;&gt;SA</title>
<path fill="none" stroke="black" d="M836.822,-470.403C849.82,-496.942 870.666,-550.415 852,-591 813.274,-675.199 693.241,-701.511 631.901,-709.56"/>
<polygon fill="black" stroke="black" points="631.376,-706.098 621.872,-710.781 632.222,-713.047 631.376,-706.098"/>
<text text-anchor="middle" x="869.5" y="-579.8" font-family="Times,serif" font-size="14.00">0.19</text>
</g>
<!-- PU&#45;&gt;Pf -->
<g id="edge46" class="edge"><title>PU&#45;&gt;Pf</title>
<path fill="none" stroke="black" d="M819.723,-435.766C813.03,-424.391 802.508,-409.868 789,-402 741.639,-374.414 714.857,-410.715 667,-384 632.02,-364.473 642.038,-337.659 609,-315 589.056,-301.321 563.269,-292.535 542.613,-287.187"/>
<polygon fill="black" stroke="black" points="543.179,-283.723 532.636,-284.764 541.527,-290.526 543.179,-283.723"/>
<text text-anchor="middle" x="682.5" y="-362.3" font-family="Times,serif" font-size="14.00">0.136</text>
</g>
<!-- PU&#45;&gt;ENJ -->
<g id="edge38" class="edge"><title>PU&#45;&gt;ENJ</title>
<path fill="none" stroke="black" d="M847.273,-440.132C855.98,-434.043 865.887,-426.012 873,-417 882.982,-404.354 881.399,-398.696 888,-384 945.064,-256.96 1012.32,-104.552 1038.64,-44.8093"/>
<polygon fill="black" stroke="black" points="1041.96,-45.9565 1042.79,-35.394 1035.55,-43.1351 1041.96,-45.9565"/>
<text text-anchor="middle" x="972.5" y="-231.8" font-family="Times,serif" font-size="14.00">0.219</text>
</g>
<!-- PU&#45;&gt;Use -->
<g id="edge10" class="edge"><title>PU&#45;&gt;Use</title>
<path fill="none" stroke="black" d="M801.653,-448.395C773.728,-444.664 728.318,-438.852 689,-435 580.779,-424.397 551.69,-438.009 445,-417 423.901,-412.845 419.551,-408.332 399,-402 371.579,-393.551 362.131,-397.846 337,-384 269.71,-346.926 253.236,-318.092 237,-243 221.954,-173.416 227.916,-88.8052 232.533,-46.2416"/>
<polygon fill="black" stroke="black" points="236.032,-46.4534 233.694,-36.1198 229.078,-45.6559 236.032,-46.4534"/>
<text text-anchor="middle" x="252.5" y="-231.8" font-family="Times,serif" font-size="14.00">0.552</text>
</g>
<!-- PU&#45;&gt;Qu -->
<g id="edge29" class="edge"><title>PU&#45;&gt;Qu</title>
<path fill="none" stroke="black" d="M825.477,-435.003C817.776,-383.159 795.026,-230.402 794,-228 792.187,-223.757 789.736,-219.576 787.047,-215.663"/>
<polygon fill="black" stroke="black" points="789.766,-213.456 780.935,-207.602 784.188,-217.685 789.766,-213.456"/>
<text text-anchor="middle" x="824.5" y="-318.8" font-family="Times,serif" font-size="14.00">0.262</text>
</g>
<!-- PU&#45;&gt;JR -->
<g id="edge55" class="edge"><title>PU&#45;&gt;JR</title>
<path fill="none" stroke="black" d="M803.238,-445.229C778.167,-438.322 738.306,-427.2 704,-417 682.576,-410.63 677.358,-408.587 656,-402 628.726,-393.588 597.773,-384.175 574.855,-377.231"/>
<polygon fill="black" stroke="black" points="575.831,-373.87 565.246,-374.322 573.803,-380.57 575.831,-373.87"/>
<text text-anchor="middle" x="719.5" y="-405.8" font-family="Times,serif" font-size="14.00">0.126</text>
</g>
<!-- Im&#45;&gt;SA -->
<g id="edge40" class="edge"><title>Im&#45;&gt;SA</title>
<path fill="none" stroke="black" d="M344.432,-558.19C340.848,-580.335 338.117,-619.057 356,-645 379.029,-678.409 497.268,-699.436 558.355,-708.239"/>
<polygon fill="black" stroke="black" points="557.964,-711.718 568.354,-709.644 558.938,-704.786 557.964,-711.718"/>
<text text-anchor="middle" x="368.5" y="-623.3" font-family="Times,serif" font-size="14.00">0.19</text>
</g>
<!-- Im&#45;&gt;Pf -->
<g id="edge48" class="edge"><title>Im&#45;&gt;Pf</title>
<path fill="none" stroke="black" d="M339.112,-522.785C325.756,-496.051 304.181,-441.735 325,-402 355.955,-342.919 429.888,-307.537 473.402,-291.106"/>
<polygon fill="black" stroke="black" points="474.789,-294.326 482.983,-287.609 472.389,-287.751 474.789,-294.326"/>
<text text-anchor="middle" x="340.5" y="-405.8" font-family="Times,serif" font-size="14.00">0.136</text>
</g>
<!-- Im&#45;&gt;Use -->
<g id="edge11" class="edge"><title>Im&#45;&gt;Use</title>
<path fill="none" stroke="black" d="M322.331,-534.216C282.504,-526.602 209.399,-511.796 200,-504 101.566,-422.362 94,-364.383 94,-236.5 94,-236.5 94,-236.5 94,-104 94,-54.762 157.632,-33.3554 199.704,-24.5831"/>
<polygon fill="black" stroke="black" points="200.471,-27.9996 209.624,-22.6623 199.141,-21.1273 200.471,-27.9996"/>
<text text-anchor="middle" x="111.5" y="-275.3" font-family="Times,serif" font-size="14.00">0.552</text>
</g>
<!-- Im&#45;&gt;Qu -->
<g id="edge30" class="edge"><title>Im&#45;&gt;Qu</title>
<path fill="none" stroke="black" d="M368.715,-528.289C390.173,-517.463 424.861,-500.704 456,-489 535.778,-459.015 557.829,-457.616 640,-435 670.972,-426.476 687.314,-439.743 710,-417 724.044,-402.921 750.514,-276.343 761.747,-219.926"/>
<polygon fill="black" stroke="black" points="765.215,-220.431 763.721,-209.942 758.348,-219.073 765.215,-220.431"/>
<text text-anchor="middle" x="748.5" y="-362.3" font-family="Times,serif" font-size="14.00">0.262</text>
</g>
<!-- Im&#45;&gt;JR -->
<g id="edge57" class="edge"><title>Im&#45;&gt;JR</title>
<path fill="none" stroke="black" d="M348.367,-521.752C349.741,-499.188 355.34,-459.634 377,-435 410.115,-397.339 467.382,-380.082 504.725,-372.506"/>
<polygon fill="black" stroke="black" points="505.519,-375.917 514.693,-370.616 504.216,-369.04 505.519,-375.917"/>
<text text-anchor="middle" x="392.5" y="-449.3" font-family="Times,serif" font-size="14.00">0.126</text>
</g>
<!-- Im&#45;&gt;PU -->
<g id="edge17" class="edge"><title>Im&#45;&gt;PU</title>
<path fill="none" stroke="black" d="M371.433,-530.875C405.01,-519.581 468.951,-499.359 525,-489 612.327,-472.86 635.9,-482.17 724,-471 746.72,-468.119 772.087,-463.991 792.081,-460.524"/>
<polygon fill="black" stroke="black" points="792.76,-463.959 802.004,-458.782 791.549,-457.064 792.76,-463.959"/>
<text text-anchor="middle" x="540.5" y="-492.8" font-family="Times,serif" font-size="14.00">0.436</text>
</g>
</g>
</svg>
