<?xml version="1.0" encoding="UTF-8" standalone="no"?>
<!DOCTYPE svg PUBLIC "-//W3C//DTD SVG 1.1//EN"
 "http://www.w3.org/Graphics/SVG/1.1/DTD/svg11.dtd">
<!-- Generated by graphviz version 2.38.0 (20140413.2041)
 -->
<!-- Title: G Pages: 1 -->
<svg width="1285pt" height="740pt"
 viewBox="0.00 0.00 1285.00 740.00" xmlns="http://www.w3.org/2000/svg" xmlns:xlink="http://www.w3.org/1999/xlink">
<g id="graph0" class="graph" transform="scale(1 1) rotate(0) translate(4 736)">
<title>G</title>
<polygon fill="white" stroke="none" points="-4,4 -4,-736 1281,-736 1281,4 -4,4"/>
<!-- PU -->
<g id="node1" class="node"><title>PU</title>
<ellipse fill="none" stroke="black" cx="243" cy="-714" rx="27" ry="18"/>
<text text-anchor="middle" x="243" y="-710.3" font-family="Times,serif" font-size="14.00">PU</text>
</g>
<!-- BI -->
<g id="node2" class="node"><title>BI</title>
<ellipse fill="none" stroke="black" cx="840" cy="-627" rx="27" ry="18"/>
<text text-anchor="middle" x="840" y="-623.3" font-family="Times,serif" font-size="14.00">BI</text>
</g>
<!-- PU&#45;&gt;BI -->
<g id="edge1" class="edge"><title>PU&#45;&gt;BI</title>
<path fill="none" stroke="black" d="M269.423,-709.238C365.173,-695.605 694.094,-648.774 803.95,-633.133"/>
<polygon fill="black" stroke="black" points="804.476,-636.593 813.882,-631.719 803.489,-629.663 804.476,-636.593"/>
<text text-anchor="middle" x="598.5" y="-666.8" font-family="Times,serif" font-size="14.00">0.628</text>
</g>
<!-- JR -->
<g id="node3" class="node"><title>JR</title>
<ellipse fill="none" stroke="black" cx="776" cy="-540" rx="27" ry="18"/>
<text text-anchor="middle" x="776" y="-536.3" font-family="Times,serif" font-size="14.00">JR</text>
</g>
<!-- PU&#45;&gt;JR -->
<g id="edge44" class="edge"><title>PU&#45;&gt;JR</title>
<path fill="none" stroke="black" d="M266.937,-705.275C352.519,-677.658 643.489,-583.761 742.611,-551.775"/>
<polygon fill="black" stroke="black" points="743.687,-555.105 752.129,-548.703 741.537,-548.444 743.687,-555.105"/>
<text text-anchor="middle" x="583.5" y="-623.3" font-family="Times,serif" font-size="14.00">0.153</text>
</g>
<!-- ENJ -->
<g id="node7" class="node"><title>ENJ</title>
<ellipse fill="none" stroke="black" cx="398" cy="-279" rx="29.795" ry="18"/>
<text text-anchor="middle" x="398" y="-275.3" font-family="Times,serif" font-size="14.00">ENJ</text>
</g>
<!-- PU&#45;&gt;ENJ -->
<g id="edge27" class="edge"><title>PU&#45;&gt;ENJ</title>
<path fill="none" stroke="black" d="M242.553,-695.767C241.971,-646.93 245.062,-504.515 296,-402 315.757,-362.239 350.944,-324.288 374.378,-301.564"/>
<polygon fill="black" stroke="black" points="377.009,-303.892 381.836,-294.461 372.181,-298.823 377.009,-303.892"/>
<text text-anchor="middle" x="281" y="-492.8" font-family="Times,serif" font-size="14.00">0.28</text>
</g>
<!-- Qu -->
<g id="node9" class="node"><title>Qu</title>
<ellipse fill="none" stroke="black" cx="219" cy="-192" rx="27" ry="18"/>
<text text-anchor="middle" x="219" y="-188.3" font-family="Times,serif" font-size="14.00">Qu</text>
</g>
<!-- PU&#45;&gt;Qu -->
<g id="edge23" class="edge"><title>PU&#45;&gt;Qu</title>
<path fill="none" stroke="black" d="M215.96,-711.268C168.922,-706.631 77,-689.68 77,-628 77,-628 77,-628 77,-278 77,-228.762 140.632,-207.355 182.704,-198.583"/>
<polygon fill="black" stroke="black" points="183.471,-202 192.624,-196.662 182.141,-195.127 183.471,-202"/>
<text text-anchor="middle" x="97.5" y="-449.3" font-family="Times,serif" font-size="14.00">0.289</text>
</g>
<!-- BI&#45;&gt;JR -->
<g id="edge48" class="edge"><title>BI&#45;&gt;JR</title>
<path fill="none" stroke="black" d="M815.062,-619.977C800.042,-614.925 782.112,-606.041 773,-591 768.864,-584.174 768.08,-575.815 768.775,-567.901"/>
<polygon fill="black" stroke="black" points="772.248,-568.348 770.384,-557.918 765.337,-567.234 772.248,-568.348"/>
<text text-anchor="middle" x="793.5" y="-579.8" font-family="Times,serif" font-size="14.00">0.153</text>
</g>
<!-- Use -->
<g id="node4" class="node"><title>Use</title>
<ellipse fill="none" stroke="black" cx="880" cy="-105" rx="28.6953" ry="18"/>
<text text-anchor="middle" x="880" y="-101.3" font-family="Times,serif" font-size="14.00">Use</text>
</g>
<!-- BI&#45;&gt;Use -->
<g id="edge9" class="edge"><title>BI&#45;&gt;Use</title>
<path fill="none" stroke="black" d="M867.038,-624.765C945.383,-620.458 1167,-602.81 1167,-541 1167,-541 1167,-541 1167,-191 1167,-139.818 997.071,-117.075 918.724,-109.309"/>
<polygon fill="black" stroke="black" points="918.592,-105.78 908.304,-108.311 917.925,-112.748 918.592,-105.78"/>
<text text-anchor="middle" x="1187.5" y="-362.3" font-family="Times,serif" font-size="14.00">0.558</text>
</g>
<!-- PEU -->
<g id="node5" class="node"><title>PEU</title>
<ellipse fill="none" stroke="black" cx="548" cy="-366" rx="31.3957" ry="18"/>
<text text-anchor="middle" x="548" y="-362.3" font-family="Times,serif" font-size="14.00">PEU</text>
</g>
<!-- BI&#45;&gt;PEU -->
<g id="edge17" class="edge"><title>BI&#45;&gt;PEU</title>
<path fill="none" stroke="black" d="M813.455,-623.559C717.719,-614.199 392.249,-577.394 324,-504 292.84,-470.491 279.128,-435.775 310,-402 340.107,-369.062 466.821,-395.265 510,-384 511.941,-383.494 513.907,-382.897 515.871,-382.237"/>
<polygon fill="black" stroke="black" points="517.464,-385.374 525.537,-378.513 514.947,-378.842 517.464,-385.374"/>
<text text-anchor="middle" x="344.5" y="-492.8" font-family="Times,serif" font-size="14.00">0.329</text>
</g>
<!-- Pf -->
<g id="node8" class="node"><title>Pf</title>
<ellipse fill="none" stroke="black" cx="816" cy="-192" rx="27" ry="18"/>
<text text-anchor="middle" x="816" y="-188.3" font-family="Times,serif" font-size="14.00">Pf</text>
</g>
<!-- BI&#45;&gt;Pf -->
<g id="edge41" class="edge"><title>BI&#45;&gt;Pf</title>
<path fill="none" stroke="black" d="M865.022,-619.706C918.426,-604.763 1036.98,-562.77 1015,-489 990.885,-408.076 954.734,-402.233 911,-330 884.104,-285.576 886.169,-268.768 854,-228 849.916,-222.825 845.045,-217.736 840.175,-213.111"/>
<polygon fill="black" stroke="black" points="842.397,-210.401 832.637,-206.279 837.696,-215.588 842.397,-210.401"/>
<text text-anchor="middle" x="999.5" y="-405.8" font-family="Times,serif" font-size="14.00">0.156</text>
</g>
<!-- JR&#45;&gt;BI -->
<g id="edge2" class="edge"><title>JR&#45;&gt;BI</title>
<path fill="none" stroke="black" d="M794.425,-553.38C802.452,-559.469 811.492,-567.355 818,-576 823.353,-583.11 827.737,-591.727 831.144,-599.789"/>
<polygon fill="black" stroke="black" points="827.923,-601.164 834.815,-609.211 834.446,-598.623 827.923,-601.164"/>
<text text-anchor="middle" x="847.5" y="-579.8" font-family="Times,serif" font-size="14.00">0.628</text>
</g>
<!-- JR&#45;&gt;Use -->
<g id="edge7" class="edge"><title>JR&#45;&gt;Use</title>
<path fill="none" stroke="black" d="M802.678,-536.806C843.917,-532.852 920.349,-523.106 939,-504 995.418,-446.206 1003.6,-206.964 957,-141 947.637,-127.748 932.011,-119.415 917.273,-114.224"/>
<polygon fill="black" stroke="black" points="917.888,-110.749 907.299,-111.11 915.802,-117.431 917.888,-110.749"/>
<text text-anchor="middle" x="1007.5" y="-318.8" font-family="Times,serif" font-size="14.00">0.558</text>
</g>
<!-- JR&#45;&gt;Pf -->
<g id="edge39" class="edge"><title>JR&#45;&gt;Pf</title>
<path fill="none" stroke="black" d="M784.679,-522.821C802.538,-488.499 842.908,-405.355 857,-330 864.511,-289.833 845.416,-244.683 830.821,-217.563"/>
<polygon fill="black" stroke="black" points="833.834,-215.779 825.898,-208.759 827.724,-219.195 833.834,-215.779"/>
<text text-anchor="middle" x="873.5" y="-362.3" font-family="Times,serif" font-size="14.00">0.156</text>
</g>
<!-- SA -->
<g id="node10" class="node"><title>SA</title>
<ellipse fill="none" stroke="black" cx="582" cy="-453" rx="27" ry="18"/>
<text text-anchor="middle" x="582" y="-449.3" font-family="Times,serif" font-size="14.00">SA</text>
</g>
<!-- JR&#45;&gt;SA -->
<g id="edge33" class="edge"><title>JR&#45;&gt;SA</title>
<path fill="none" stroke="black" d="M754.123,-529.415C719.775,-514.365 653.045,-485.128 613.521,-467.811"/>
<polygon fill="black" stroke="black" points="614.659,-464.488 604.095,-463.681 611.85,-470.9 614.659,-464.488"/>
<text text-anchor="middle" x="711.5" y="-492.8" font-family="Times,serif" font-size="14.00">0.212</text>
</g>
<!-- Use&#45;&gt;PU -->
<g id="edge12" class="edge"><title>Use&#45;&gt;PU</title>
<path fill="none" stroke="black" d="M905.11,-113.952C916.299,-117.217 929.703,-120.752 942,-123 1025.88,-138.331 1052.85,-111.913 1133,-141 1157.34,-149.832 1166.39,-152.625 1181,-174 1241.4,-262.386 1236,-301.45 1236,-408.5 1236,-628 1236,-628 1236,-628 1236,-676.933 460.431,-705.764 280.131,-711.805"/>
<polygon fill="black" stroke="black" points="279.954,-708.309 270.075,-712.139 280.186,-715.305 279.954,-708.309"/>
<text text-anchor="middle" x="1256.5" y="-405.8" font-family="Times,serif" font-size="14.00">0.464</text>
</g>
<!-- Use&#45;&gt;BI -->
<g id="edge3" class="edge"><title>Use&#45;&gt;BI</title>
<path fill="none" stroke="black" d="M906.276,-112.21C926.417,-117.742 954.338,-127.128 976,-141 1039.25,-181.507 1066.4,-191.546 1095,-261 1119.97,-321.653 1090,-342.907 1090,-408.5 1090,-541 1090,-541 1090,-541 1090,-585.586 945.667,-611.49 876.336,-621.361"/>
<polygon fill="black" stroke="black" points="875.707,-617.915 866.282,-622.755 876.668,-624.849 875.707,-617.915"/>
<text text-anchor="middle" x="1119.5" y="-362.3" font-family="Times,serif" font-size="14.00">0.628</text>
</g>
<!-- Use&#45;&gt;JR -->
<g id="edge47" class="edge"><title>Use&#45;&gt;JR</title>
<path fill="none" stroke="black" d="M896.831,-119.588C902.812,-125.465 908.841,-132.864 912,-141 914.413,-147.215 912.204,-149.336 912,-156 908.887,-257.476 932.008,-288.341 898,-384 878.183,-439.744 829.553,-490.839 800.023,-518.174"/>
<polygon fill="black" stroke="black" points="797.293,-515.926 792.24,-525.238 801.998,-521.109 797.293,-515.926"/>
<text text-anchor="middle" x="935.5" y="-318.8" font-family="Times,serif" font-size="14.00">0.153</text>
</g>
<!-- Im -->
<g id="node6" class="node"><title>Im</title>
<ellipse fill="none" stroke="black" cx="650" cy="-18" rx="27" ry="18"/>
<text text-anchor="middle" x="650" y="-14.3" font-family="Times,serif" font-size="14.00">Im</text>
</g>
<!-- Use&#45;&gt;Im -->
<g id="edge22" class="edge"><title>Use&#45;&gt;Im</title>
<path fill="none" stroke="black" d="M866.862,-88.4831C856.407,-77.165 840.787,-62.394 824,-54 780.229,-32.1127 723.797,-23.9118 687.261,-20.8395"/>
<polygon fill="black" stroke="black" points="687.289,-17.3318 677.055,-20.0714 686.764,-24.3121 687.289,-17.3318"/>
<text text-anchor="middle" x="867.5" y="-57.8" font-family="Times,serif" font-size="14.00">0.316</text>
</g>
<!-- Use&#45;&gt;Pf -->
<g id="edge40" class="edge"><title>Use&#45;&gt;Pf</title>
<path fill="none" stroke="black" d="M874.815,-122.789C871.143,-133.018 865.529,-145.999 858,-156 853.628,-161.808 848.112,-167.274 842.528,-172.082"/>
<polygon fill="black" stroke="black" points="840.01,-169.617 834.425,-178.62 844.405,-175.065 840.01,-169.617"/>
<text text-anchor="middle" x="887.5" y="-144.8" font-family="Times,serif" font-size="14.00">0.156</text>
</g>
<!-- PEU&#45;&gt;JR -->
<g id="edge43" class="edge"><title>PEU&#45;&gt;JR</title>
<path fill="none" stroke="black" d="M529.629,-380.97C523.143,-386.798 516.38,-394.063 512,-402 497.107,-428.988 486.041,-446.696 505,-471 533.674,-507.758 672.07,-527.653 739.254,-535.285"/>
<polygon fill="black" stroke="black" points="739.074,-538.787 749.398,-536.406 739.842,-531.829 739.074,-538.787"/>
<text text-anchor="middle" x="525.5" y="-449.3" font-family="Times,serif" font-size="14.00">0.153</text>
</g>
<!-- PEU&#45;&gt;Use -->
<g id="edge4" class="edge"><title>PEU&#45;&gt;Use</title>
<path fill="none" stroke="black" d="M568.266,-351.924C577.789,-345.57 589.181,-337.666 599,-330 635.483,-301.518 639.872,-288.636 677,-261 689.169,-251.942 694.091,-252.397 706,-243 756.578,-203.093 756.537,-178.395 809,-141 820.682,-132.673 834.643,-125.317 847.081,-119.525"/>
<polygon fill="black" stroke="black" points="848.548,-122.704 856.233,-115.411 845.678,-116.319 848.548,-122.704"/>
<text text-anchor="middle" x="744.5" y="-231.8" font-family="Times,serif" font-size="14.00">0.558</text>
</g>
<!-- PEU&#45;&gt;Im -->
<g id="edge19" class="edge"><title>PEU&#45;&gt;Im</title>
<path fill="none" stroke="black" d="M557.169,-348.771C559.936,-343.026 562.607,-336.398 564,-330 565.418,-323.486 564.085,-321.666 564,-315 563.556,-280.103 562,-271.4 562,-236.5 562,-236.5 562,-236.5 562,-104 562,-71.4615 593.51,-47.4285 618.82,-33.3728"/>
<polygon fill="black" stroke="black" points="620.575,-36.4039 627.794,-28.6485 617.315,-30.2097 620.575,-36.4039"/>
<text text-anchor="middle" x="582.5" y="-188.3" font-family="Times,serif" font-size="14.00">0.316</text>
</g>
<!-- PEU&#45;&gt;ENJ -->
<g id="edge26" class="edge"><title>PEU&#45;&gt;ENJ</title>
<path fill="none" stroke="black" d="M522.836,-355.294C516.389,-352.862 509.453,-350.293 503,-348 479.162,-339.528 470.586,-343.193 449,-330 442.381,-325.954 430.049,-313.919 419.169,-302.67"/>
<polygon fill="black" stroke="black" points="421.394,-299.932 411.958,-295.116 416.331,-304.766 421.394,-299.932"/>
<text text-anchor="middle" x="465" y="-318.8" font-family="Times,serif" font-size="14.00">0.28</text>
</g>
<!-- PEU&#45;&gt;Pf -->
<g id="edge35" class="edge"><title>PEU&#45;&gt;Pf</title>
<path fill="none" stroke="black" d="M573,-355.036C588.767,-348.482 609.403,-339.402 627,-330 677.57,-302.981 686.405,-289.768 736,-261 750.79,-252.421 756.461,-253.442 770,-243 780.114,-235.2 789.901,-225.053 797.829,-215.94"/>
<polygon fill="black" stroke="black" points="800.514,-218.186 804.279,-208.283 795.16,-213.676 800.514,-218.186"/>
<text text-anchor="middle" x="756.5" y="-275.3" font-family="Times,serif" font-size="14.00">0.156</text>
</g>
<!-- PEU&#45;&gt;SA -->
<g id="edge30" class="edge"><title>PEU&#45;&gt;SA</title>
<path fill="none" stroke="black" d="M530.651,-380.986C520.422,-390.998 510.772,-404.809 518,-417 524.61,-428.149 536.164,-435.977 547.652,-441.358"/>
<polygon fill="black" stroke="black" points="546.599,-444.711 557.176,-445.322 549.289,-438.249 546.599,-444.711"/>
<text text-anchor="middle" x="538.5" y="-405.8" font-family="Times,serif" font-size="14.00">0.212</text>
</g>
<!-- Im&#45;&gt;JR -->
<g id="edge45" class="edge"><title>Im&#45;&gt;JR</title>
<path fill="none" stroke="black" d="M676.707,-20.6832C731.538,-24.4885 854.782,-34.9405 892,-54 1009.16,-114.001 1013.44,-184.681 1032,-315 1032.94,-321.6 1033.17,-323.437 1032,-330 1020.26,-395.753 1009.65,-411.151 980,-471 972.282,-486.577 973.382,-494.234 959,-504 935.614,-519.88 858.859,-530.391 812.51,-535.462"/>
<polygon fill="black" stroke="black" points="812.126,-531.983 802.552,-536.519 812.865,-538.944 812.126,-531.983"/>
<text text-anchor="middle" x="1050.5" y="-275.3" font-family="Times,serif" font-size="14.00">0.153</text>
</g>
<!-- Im&#45;&gt;Use -->
<g id="edge5" class="edge"><title>Im&#45;&gt;Use</title>
<path fill="none" stroke="black" d="M673.171,-27.5633C714.02,-42.6596 798.99,-74.0616 846.321,-91.5536"/>
<polygon fill="black" stroke="black" points="845.227,-94.8806 855.821,-95.0642 847.654,-88.3146 845.227,-94.8806"/>
<text text-anchor="middle" x="799.5" y="-57.8" font-family="Times,serif" font-size="14.00">0.558</text>
</g>
<!-- Im&#45;&gt;PEU -->
<g id="edge15" class="edge"><title>Im&#45;&gt;PEU</title>
<path fill="none" stroke="black" d="M624.478,-24.7252C603.079,-30.2181 572.224,-39.7925 548,-54 479.04,-94.4457 446.615,-101.01 414,-174 407.472,-188.608 403.782,-197.688 414,-210 441.723,-243.405 475.903,-201.133 510,-228 543.283,-254.226 540.137,-273.563 549,-315 550.555,-322.271 550.958,-330.273 550.805,-337.703"/>
<polygon fill="black" stroke="black" points="547.31,-337.521 550.282,-347.69 554.301,-337.887 547.31,-337.521"/>
<text text-anchor="middle" x="434.5" y="-188.3" font-family="Times,serif" font-size="14.00">0.329</text>
</g>
<!-- Im&#45;&gt;Pf -->
<g id="edge37" class="edge"><title>Im&#45;&gt;Pf</title>
<path fill="none" stroke="black" d="M664.117,-33.6275C693.243,-63.8062 760.149,-133.13 794.614,-168.841"/>
<polygon fill="black" stroke="black" points="792.384,-171.57 801.847,-176.335 797.421,-166.709 792.384,-171.57"/>
<text text-anchor="middle" x="770.5" y="-101.3" font-family="Times,serif" font-size="14.00">0.156</text>
</g>
<!-- Im&#45;&gt;SA -->
<g id="edge31" class="edge"><title>Im&#45;&gt;SA</title>
<path fill="none" stroke="black" d="M652.928,-36.0378C653.775,-41.731 654.582,-48.1223 655,-54 655.473,-60.6499 655.249,-62.338 655,-69 652.108,-146.512 665.21,-348.942 628,-417 624.074,-424.182 617.98,-430.34 611.498,-435.398"/>
<polygon fill="black" stroke="black" points="609.39,-432.601 603.215,-441.21 613.411,-438.331 609.39,-432.601"/>
<text text-anchor="middle" x="675.5" y="-231.8" font-family="Times,serif" font-size="14.00">0.212</text>
</g>
<!-- ENJ&#45;&gt;PU -->
<g id="edge11" class="edge"><title>ENJ&#45;&gt;PU</title>
<path fill="none" stroke="black" d="M376.001,-291.289C371.737,-293.304 367.268,-295.3 363,-297 313.311,-316.79 290.234,-308.659 254,-348 206.054,-400.057 196.937,-420.284 180,-489 162.017,-561.961 203.428,-647.156 227.416,-688.287"/>
<polygon fill="black" stroke="black" points="224.531,-690.283 232.668,-697.069 230.539,-686.69 224.531,-690.283"/>
<text text-anchor="middle" x="200.5" y="-492.8" font-family="Times,serif" font-size="14.00">0.464</text>
</g>
<!-- ENJ&#45;&gt;JR -->
<g id="edge46" class="edge"><title>ENJ&#45;&gt;JR</title>
<path fill="none" stroke="black" d="M389.553,-296.425C376.932,-323.46 356.878,-378.201 379,-417 416.604,-482.951 454.346,-478.915 526,-504 598.449,-529.363 688.786,-536.404 738.621,-538.321"/>
<polygon fill="black" stroke="black" points="738.802,-541.829 748.914,-538.666 739.037,-534.833 738.802,-541.829"/>
<text text-anchor="middle" x="399.5" y="-405.8" font-family="Times,serif" font-size="14.00">0.153</text>
</g>
<!-- ENJ&#45;&gt;Use -->
<g id="edge6" class="edge"><title>ENJ&#45;&gt;Use</title>
<path fill="none" stroke="black" d="M410.81,-262.638C432.937,-236.494 477.962,-185.095 499,-174 617.078,-111.725 663.76,-147.426 795,-123 810.868,-120.047 828.359,-116.584 843.328,-113.558"/>
<polygon fill="black" stroke="black" points="844.135,-116.965 853.238,-111.543 842.741,-110.105 844.135,-116.965"/>
<text text-anchor="middle" x="519.5" y="-188.3" font-family="Times,serif" font-size="14.00">0.558</text>
</g>
<!-- ENJ&#45;&gt;PEU -->
<g id="edge16" class="edge"><title>ENJ&#45;&gt;PEU</title>
<path fill="none" stroke="black" d="M424.033,-288.255C441.814,-294.418 465.577,-303.707 485,-315 498.89,-323.077 513.022,-333.995 524.372,-343.568"/>
<polygon fill="black" stroke="black" points="522.245,-346.356 532.102,-350.241 526.82,-341.057 522.245,-346.356"/>
<text text-anchor="middle" x="527.5" y="-318.8" font-family="Times,serif" font-size="14.00">0.329</text>
</g>
<!-- ENJ&#45;&gt;Im -->
<g id="edge21" class="edge"><title>ENJ&#45;&gt;Im</title>
<path fill="none" stroke="black" d="M391.609,-261.35C383.083,-238.158 368.431,-194.622 363,-156 356.197,-107.617 364.69,-83.0158 404,-54 436.332,-30.1344 551.902,-22.4684 612.426,-20.0632"/>
<polygon fill="black" stroke="black" points="612.838,-23.5505 622.702,-19.6845 612.58,-16.5552 612.838,-23.5505"/>
<text text-anchor="middle" x="383.5" y="-144.8" font-family="Times,serif" font-size="14.00">0.316</text>
</g>
<!-- ENJ&#45;&gt;Pf -->
<g id="edge38" class="edge"><title>ENJ&#45;&gt;Pf</title>
<path fill="none" stroke="black" d="M421.617,-267.689C448.888,-256.213 495.349,-237.974 537,-228 622.232,-207.589 725.135,-198.593 779.005,-195.039"/>
<polygon fill="black" stroke="black" points="779.347,-198.525 789.105,-194.4 778.904,-191.539 779.347,-198.525"/>
<text text-anchor="middle" x="557.5" y="-231.8" font-family="Times,serif" font-size="14.00">0.156</text>
</g>
<!-- ENJ&#45;&gt;Qu -->
<g id="edge25" class="edge"><title>ENJ&#45;&gt;Qu</title>
<path fill="none" stroke="black" d="M375.78,-266.626C363.102,-259.99 346.995,-251.312 333,-243 322.507,-236.768 320.867,-233.555 310,-228 291.605,-218.597 270.067,-210.205 252.563,-203.997"/>
<polygon fill="black" stroke="black" points="253.372,-200.573 242.777,-200.603 251.078,-207.186 253.372,-200.573"/>
<text text-anchor="middle" x="353.5" y="-231.8" font-family="Times,serif" font-size="14.00">0.289</text>
</g>
<!-- ENJ&#45;&gt;SA -->
<g id="edge32" class="edge"><title>ENJ&#45;&gt;SA</title>
<path fill="none" stroke="black" d="M392.782,-296.88C387.04,-319.038 380.838,-358.142 399,-384 416.378,-408.741 498.414,-432.024 546.547,-443.865"/>
<polygon fill="black" stroke="black" points="546.013,-447.337 556.555,-446.283 547.657,-440.532 546.013,-447.337"/>
<text text-anchor="middle" x="419.5" y="-362.3" font-family="Times,serif" font-size="14.00">0.212</text>
</g>
<!-- Pf&#45;&gt;Use -->
<g id="edge8" class="edge"><title>Pf&#45;&gt;Use</title>
<path fill="none" stroke="black" d="M812.316,-174.083C811.008,-163.806 811.09,-150.819 817,-141 823.338,-130.47 834.088,-122.868 844.93,-117.497"/>
<polygon fill="black" stroke="black" points="846.635,-120.571 854.373,-113.334 843.811,-114.166 846.635,-120.571"/>
<text text-anchor="middle" x="837.5" y="-144.8" font-family="Times,serif" font-size="14.00">0.558</text>
</g>
<!-- Pf&#45;&gt;SA -->
<g id="edge34" class="edge"><title>Pf&#45;&gt;SA</title>
<path fill="none" stroke="black" d="M819.193,-210.175C820.536,-219.846 821.482,-232.128 820,-243 809.046,-323.362 826.028,-363.581 765,-417 743.673,-435.668 665.788,-445.179 618.774,-449.322"/>
<polygon fill="black" stroke="black" points="618.346,-445.845 608.674,-450.171 618.932,-452.821 618.346,-445.845"/>
<text text-anchor="middle" x="835.5" y="-318.8" font-family="Times,serif" font-size="14.00">0.212</text>
</g>
<!-- Qu&#45;&gt;PU -->
<g id="edge10" class="edge"><title>Qu&#45;&gt;PU</title>
<path fill="none" stroke="black" d="M192.427,-195.308C160.398,-198.896 105.575,-207.655 63,-228 30.7467,-243.413 0,-242.253 0,-278 0,-628 0,-628 0,-628 0,-663.747 30.5291,-663.051 63,-678 109.522,-699.418 168.657,-707.739 206.181,-710.965"/>
<polygon fill="black" stroke="black" points="205.92,-714.456 216.163,-711.747 206.467,-707.477 205.92,-714.456"/>
<text text-anchor="middle" x="20.5" y="-449.3" font-family="Times,serif" font-size="14.00">0.464</text>
</g>
<!-- Qu&#45;&gt;JR -->
<g id="edge42" class="edge"><title>Qu&#45;&gt;JR</title>
<path fill="none" stroke="black" d="M206.075,-208.191C201.661,-214.056 197.068,-221.029 194,-228 165.712,-292.268 129.565,-325.901 169,-384 187.466,-411.206 398.842,-485.431 475,-504 568.347,-526.76 681.699,-534.859 739.004,-537.632"/>
<polygon fill="black" stroke="black" points="738.885,-541.13 749.034,-538.09 739.205,-534.137 738.885,-541.13"/>
<text text-anchor="middle" x="189.5" y="-362.3" font-family="Times,serif" font-size="14.00">0.153</text>
</g>
<!-- Qu&#45;&gt;PEU -->
<g id="edge13" class="edge"><title>Qu&#45;&gt;PEU</title>
<path fill="none" stroke="black" d="M240.881,-202.921C252.569,-208.98 266.64,-217.57 277,-228 302.138,-253.31 289.859,-275.078 318,-297 387.652,-351.26 426.18,-320.254 510,-348 511.853,-348.613 513.737,-349.286 515.626,-349.999"/>
<polygon fill="black" stroke="black" points="514.401,-353.28 524.983,-353.812 517.043,-346.797 514.401,-353.28"/>
<text text-anchor="middle" x="338.5" y="-275.3" font-family="Times,serif" font-size="14.00">0.329</text>
</g>
<!-- Qu&#45;&gt;Im -->
<g id="edge18" class="edge"><title>Qu&#45;&gt;Im</title>
<path fill="none" stroke="black" d="M228.026,-174.617C246.054,-143.853 289.841,-78.3527 348,-54 395.003,-34.3186 542.908,-24.4153 612.764,-20.7365"/>
<polygon fill="black" stroke="black" points="613.073,-24.2254 622.881,-20.2187 612.715,-17.2345 613.073,-24.2254"/>
<text text-anchor="middle" x="317.5" y="-101.3" font-family="Times,serif" font-size="14.00">0.316</text>
</g>
<!-- Qu&#45;&gt;SA -->
<g id="edge29" class="edge"><title>Qu&#45;&gt;SA</title>
<path fill="none" stroke="black" d="M228.719,-208.874C241.914,-229.917 266.758,-267.791 292,-297 320.368,-329.826 395.968,-404.621 424,-417 475.747,-439.852 496.217,-417.468 550,-435 551.047,-435.341 552.1,-435.715 553.154,-436.116"/>
<polygon fill="black" stroke="black" points="551.941,-439.407 562.5,-440.279 554.789,-433.013 551.941,-439.407"/>
<text text-anchor="middle" x="343.5" y="-318.8" font-family="Times,serif" font-size="14.00">0.212</text>
</g>
<!-- SA&#45;&gt;PEU -->
<g id="edge14" class="edge"><title>SA&#45;&gt;PEU</title>
<path fill="none" stroke="black" d="M575.283,-435.207C570.486,-423.216 563.94,-406.851 558.463,-393.157"/>
<polygon fill="black" stroke="black" points="561.667,-391.743 554.703,-383.758 555.168,-394.343 561.667,-391.743"/>
<text text-anchor="middle" x="588.5" y="-405.8" font-family="Times,serif" font-size="14.00">0.329</text>
</g>
<!-- SA&#45;&gt;Im -->
<g id="edge20" class="edge"><title>SA&#45;&gt;Im</title>
<path fill="none" stroke="black" d="M598.315,-438.319C604.11,-432.429 609.949,-425.045 613,-417 615.364,-410.766 613.251,-408.662 613,-402 610.081,-324.538 588.583,-304.516 601,-228 602.351,-219.676 604.738,-218.124 607,-210 623.1,-152.184 637.447,-83.2594 644.8,-46.0543"/>
<polygon fill="black" stroke="black" points="648.281,-46.4912 646.768,-36.0049 641.411,-45.1459 648.281,-46.4912"/>
<text text-anchor="middle" x="621.5" y="-231.8" font-family="Times,serif" font-size="14.00">0.316</text>
</g>
<!-- SA&#45;&gt;ENJ -->
<g id="edge28" class="edge"><title>SA&#45;&gt;ENJ</title>
<path fill="none" stroke="black" d="M559.678,-442.763C545.474,-436.428 526.998,-427.322 512,-417 468.343,-386.953 432.072,-335.785 412.848,-305.209"/>
<polygon fill="black" stroke="black" points="415.663,-303.106 407.439,-296.427 409.703,-306.777 415.663,-303.106"/>
<text text-anchor="middle" x="490" y="-362.3" font-family="Times,serif" font-size="14.00">0.28</text>
</g>
<!-- SA&#45;&gt;Pf -->
<g id="edge36" class="edge"><title>SA&#45;&gt;Pf</title>
<path fill="none" stroke="black" d="M608.079,-448.257C631.351,-443.885 665.446,-434.844 690,-417 743.289,-378.273 745.821,-355.029 777,-297 790.491,-271.892 801.404,-241.106 808.22,-219.57"/>
<polygon fill="black" stroke="black" points="811.628,-220.394 811.229,-209.807 804.939,-218.332 811.628,-220.394"/>
<text text-anchor="middle" x="788.5" y="-318.8" font-family="Times,serif" font-size="14.00">0.156</text>
</g>
<!-- SA&#45;&gt;Qu -->
<g id="edge24" class="edge"><title>SA&#45;&gt;Qu</title>
<path fill="none" stroke="black" d="M562.524,-440.202C558.499,-438.183 554.202,-436.316 550,-435 485.502,-414.802 463.462,-437.31 399,-417 385.535,-412.757 384.223,-406.946 371,-402 337.271,-389.385 325.477,-397.27 292,-384 247.925,-366.529 223.559,-371.145 200,-330 180.148,-295.329 194.127,-247.855 206.347,-218.866"/>
<polygon fill="black" stroke="black" points="209.675,-219.994 210.537,-209.434 203.278,-217.151 209.675,-219.994"/>
<text text-anchor="middle" x="220.5" y="-318.8" font-family="Times,serif" font-size="14.00">0.289</text>
</g>
</g>
</svg>
