<?xml version="1.0" encoding="UTF-8" standalone="no"?>
<!DOCTYPE svg PUBLIC "-//W3C//DTD SVG 1.1//EN"
 "http://www.w3.org/Graphics/SVG/1.1/DTD/svg11.dtd">
<!-- Generated by graphviz version 2.38.0 (20140413.2041)
 -->
<!-- Title: G Pages: 1 -->
<svg width="362pt" height="392pt"
 viewBox="0.00 0.00 362.00 392.00" xmlns="http://www.w3.org/2000/svg" xmlns:xlink="http://www.w3.org/1999/xlink">
<g id="graph0" class="graph" transform="scale(1 1) rotate(0) translate(4 388)">
<title>G</title>
<polygon fill="white" stroke="none" points="-4,4 -4,-388 358,-388 358,4 -4,4"/>
<!-- BI -->
<g id="node1" class="node"><title>BI</title>
<ellipse fill="none" stroke="black" cx="167" cy="-366" rx="27" ry="18"/>
<text text-anchor="middle" x="167" y="-362.3" font-family="Times,serif" font-size="14.00">BI</text>
</g>
<!-- Use -->
<g id="node2" class="node"><title>Use</title>
<ellipse fill="none" stroke="black" cx="86" cy="-192" rx="28.6953" ry="18"/>
<text text-anchor="middle" x="86" y="-188.3" font-family="Times,serif" font-size="14.00">Use</text>
</g>
<!-- BI&#45;&gt;Use -->
<g id="edge1" class="edge"><title>BI&#45;&gt;Use</title>
<path fill="none" stroke="black" d="M150.199,-351.797C135.554,-339.31 114.988,-319.215 104,-297 92.0468,-272.832 87.8878,-242.089 86.5121,-220.313"/>
<polygon fill="black" stroke="black" points="89.9985,-219.942 86.029,-210.119 83.0064,-220.273 89.9985,-219.942"/>
<text text-anchor="middle" x="124.5" y="-275.3" font-family="Times,serif" font-size="14.00">0.492</text>
</g>
<!-- Pf -->
<g id="node3" class="node"><title>Pf</title>
<ellipse fill="none" stroke="black" cx="27" cy="-279" rx="27" ry="18"/>
<text text-anchor="middle" x="27" y="-275.3" font-family="Times,serif" font-size="14.00">Pf</text>
</g>
<!-- BI&#45;&gt;Pf -->
<g id="edge13" class="edge"><title>BI&#45;&gt;Pf</title>
<path fill="none" stroke="black" d="M139.859,-365.899C109.637,-365.314 61.5546,-359.368 35,-330 29.4449,-323.856 26.8952,-315.462 25.8911,-307.306"/>
<polygon fill="black" stroke="black" points="29.3841,-307.081 25.336,-297.29 22.3948,-307.469 29.3841,-307.081"/>
<text text-anchor="middle" x="55.5" y="-318.8" font-family="Times,serif" font-size="14.00">0.047</text>
</g>
<!-- PU -->
<g id="node5" class="node"><title>PU</title>
<ellipse fill="none" stroke="black" cx="253" cy="-279" rx="27" ry="18"/>
<text text-anchor="middle" x="253" y="-275.3" font-family="Times,serif" font-size="14.00">PU</text>
</g>
<!-- BI&#45;&gt;PU -->
<g id="edge5" class="edge"><title>BI&#45;&gt;PU</title>
<path fill="none" stroke="black" d="M181.589,-350.581C195.179,-337.148 215.623,-316.942 231.159,-301.587"/>
<polygon fill="black" stroke="black" points="233.688,-304.009 238.34,-294.49 228.767,-299.03 233.688,-304.009"/>
<text text-anchor="middle" x="232" y="-318.8" font-family="Times,serif" font-size="14.00">0.32</text>
</g>
<!-- JR -->
<g id="node9" class="node"><title>JR</title>
<ellipse fill="none" stroke="black" cx="309" cy="-105" rx="27" ry="18"/>
<text text-anchor="middle" x="309" y="-101.3" font-family="Times,serif" font-size="14.00">JR</text>
</g>
<!-- BI&#45;&gt;JR -->
<g id="edge11" class="edge"><title>BI&#45;&gt;JR</title>
<path fill="none" stroke="black" d="M192.128,-359.251C221.457,-351.032 268.544,-332.789 289,-297 320.705,-241.531 310.748,-219.584 317,-156 317.652,-149.365 317.747,-147.625 317,-141 316.696,-138.306 316.264,-135.516 315.757,-132.742"/>
<polygon fill="black" stroke="black" points="319.181,-132.014 313.683,-122.958 312.333,-133.466 319.181,-132.014"/>
<text text-anchor="middle" x="333.5" y="-231.8" font-family="Times,serif" font-size="14.00">0.082</text>
</g>
<!-- Use&#45;&gt;BI -->
<g id="edge4" class="edge"><title>Use&#45;&gt;BI</title>
<path fill="none" stroke="black" d="M102.062,-207.018C115.604,-219.744 134.42,-239.729 145,-261 157.093,-285.313 162.553,-316.035 165.009,-337.766"/>
<polygon fill="black" stroke="black" points="161.548,-338.329 166.015,-347.936 168.514,-337.641 161.548,-338.329"/>
<text text-anchor="middle" x="178.5" y="-275.3" font-family="Times,serif" font-size="14.00">0.473</text>
</g>
<!-- Qu -->
<g id="node4" class="node"><title>Qu</title>
<ellipse fill="none" stroke="black" cx="35" cy="-105" rx="27" ry="18"/>
<text text-anchor="middle" x="35" y="-101.3" font-family="Times,serif" font-size="14.00">Qu</text>
</g>
<!-- Use&#45;&gt;Qu -->
<g id="edge9" class="edge"><title>Use&#45;&gt;Qu</title>
<path fill="none" stroke="black" d="M58.901,-185.589C42.5646,-180.781 23.0339,-171.938 13,-156 7.69483,-147.573 10.4426,-137.647 15.5298,-128.87"/>
<polygon fill="black" stroke="black" points="18.4447,-130.808 21.1853,-120.574 12.6607,-126.865 18.4447,-130.808"/>
<text text-anchor="middle" x="33.5" y="-144.8" font-family="Times,serif" font-size="14.00">0.174</text>
</g>
<!-- Im -->
<g id="node8" class="node"><title>Im</title>
<ellipse fill="none" stroke="black" cx="135" cy="-105" rx="27" ry="18"/>
<text text-anchor="middle" x="135" y="-101.3" font-family="Times,serif" font-size="14.00">Im</text>
</g>
<!-- Use&#45;&gt;Im -->
<g id="edge8" class="edge"><title>Use&#45;&gt;Im</title>
<path fill="none" stroke="black" d="M98.943,-175.894C103.705,-169.926 108.925,-162.863 113,-156 117.426,-148.546 121.496,-140.041 124.9,-132.185"/>
<polygon fill="black" stroke="black" points="128.231,-133.288 128.832,-122.71 121.766,-130.604 128.231,-133.288"/>
<text text-anchor="middle" x="141.5" y="-144.8" font-family="Times,serif" font-size="14.00">0.188</text>
</g>
<!-- Pf&#45;&gt;Use -->
<g id="edge2" class="edge"><title>Pf&#45;&gt;Use</title>
<path fill="none" stroke="black" d="M26.4664,-260.605C26.9233,-250.401 28.8908,-237.658 35,-228 39.8687,-220.303 47.1091,-213.864 54.6154,-208.695"/>
<polygon fill="black" stroke="black" points="56.7842,-211.468 63.423,-203.211 53.0841,-205.526 56.7842,-211.468"/>
<text text-anchor="middle" x="55.5" y="-231.8" font-family="Times,serif" font-size="14.00">0.492</text>
</g>
<!-- Qu&#45;&gt;Use -->
<g id="edge3" class="edge"><title>Qu&#45;&gt;Use</title>
<path fill="none" stroke="black" d="M44.5497,-121.916C52.0176,-134.363 62.5352,-151.892 71.107,-166.178"/>
<polygon fill="black" stroke="black" points="68.2611,-168.238 76.4073,-175.012 74.2635,-164.636 68.2611,-168.238"/>
<text text-anchor="middle" x="84.5" y="-144.8" font-family="Times,serif" font-size="14.00">0.492</text>
</g>
<!-- SA -->
<g id="node10" class="node"><title>SA</title>
<ellipse fill="none" stroke="black" cx="35" cy="-18" rx="27" ry="18"/>
<text text-anchor="middle" x="35" y="-14.3" font-family="Times,serif" font-size="14.00">SA</text>
</g>
<!-- Qu&#45;&gt;SA -->
<g id="edge14" class="edge"><title>Qu&#45;&gt;SA</title>
<path fill="none" stroke="black" d="M35,-86.799C35,-75.1626 35,-59.5479 35,-46.2368"/>
<polygon fill="black" stroke="black" points="38.5001,-46.1754 35,-36.1754 31.5001,-46.1755 38.5001,-46.1754"/>
<text text-anchor="middle" x="55.5" y="-57.8" font-family="Times,serif" font-size="14.00">0.034</text>
</g>
<!-- ENJ -->
<g id="node6" class="node"><title>ENJ</title>
<ellipse fill="none" stroke="black" cx="238" cy="-192" rx="29.795" ry="18"/>
<text text-anchor="middle" x="238" y="-188.3" font-family="Times,serif" font-size="14.00">ENJ</text>
</g>
<!-- PU&#45;&gt;ENJ -->
<g id="edge10" class="edge"><title>PU&#45;&gt;ENJ</title>
<path fill="none" stroke="black" d="M231.252,-268.057C221.325,-262.272 210.562,-253.94 205,-243 199.896,-232.961 205.013,-222.469 212.619,-213.704"/>
<polygon fill="black" stroke="black" points="215.202,-216.069 219.748,-206.5 210.226,-211.145 215.202,-216.069"/>
<text text-anchor="middle" x="225.5" y="-231.8" font-family="Times,serif" font-size="14.00">0.118</text>
</g>
<!-- ENJ&#45;&gt;PU -->
<g id="edge6" class="edge"><title>ENJ&#45;&gt;PU</title>
<path fill="none" stroke="black" d="M244.802,-209.836C246.818,-215.516 248.804,-221.95 250,-228 251.427,-235.222 252.239,-243.135 252.685,-250.493"/>
<polygon fill="black" stroke="black" points="249.198,-250.883 253.108,-260.73 256.192,-250.594 249.198,-250.883"/>
<text text-anchor="middle" x="269" y="-231.8" font-family="Times,serif" font-size="14.00">0.32</text>
</g>
<!-- PEU -->
<g id="node7" class="node"><title>PEU</title>
<ellipse fill="none" stroke="black" cx="211" cy="-105" rx="31.3957" ry="18"/>
<text text-anchor="middle" x="211" y="-101.3" font-family="Times,serif" font-size="14.00">PEU</text>
</g>
<!-- ENJ&#45;&gt;PEU -->
<g id="edge7" class="edge"><title>ENJ&#45;&gt;PEU</title>
<path fill="none" stroke="black" d="M223.531,-175.828C218.952,-170.07 214.449,-163.162 212,-156 209.556,-148.853 208.658,-140.789 208.537,-133.256"/>
<polygon fill="black" stroke="black" points="212.039,-133.202 208.803,-123.113 205.042,-133.018 212.039,-133.202"/>
<text text-anchor="middle" x="232.5" y="-144.8" font-family="Times,serif" font-size="14.00">0.252</text>
</g>
<!-- ENJ&#45;&gt;JR -->
<g id="edge12" class="edge"><title>ENJ&#45;&gt;JR</title>
<path fill="none" stroke="black" d="M249.561,-174.9C256.884,-164.931 266.696,-151.98 276,-141 279.712,-136.619 283.81,-132.067 287.819,-127.752"/>
<polygon fill="black" stroke="black" points="290.511,-129.999 294.837,-120.328 285.424,-125.191 290.511,-129.999"/>
<text text-anchor="middle" x="296.5" y="-144.8" font-family="Times,serif" font-size="14.00">0.082</text>
</g>
</g>
</svg>
