<?xml version="1.0" encoding="UTF-8" standalone="no"?>
<!DOCTYPE svg PUBLIC "-//W3C//DTD SVG 1.1//EN"
 "http://www.w3.org/Graphics/SVG/1.1/DTD/svg11.dtd">
<!-- Generated by graphviz version 2.38.0 (20140413.2041)
 -->
<!-- Title: G Pages: 1 -->
<svg width="1186pt" height="740pt"
 viewBox="0.00 0.00 1186.00 740.00" xmlns="http://www.w3.org/2000/svg" xmlns:xlink="http://www.w3.org/1999/xlink">
<g id="graph0" class="graph" transform="scale(1 1) rotate(0) translate(4 736)">
<title>G</title>
<polygon fill="white" stroke="none" points="-4,4 -4,-736 1182,-736 1182,4 -4,4"/>
<!-- JR -->
<g id="node1" class="node"><title>JR</title>
<ellipse fill="none" stroke="black" cx="285" cy="-714" rx="27" ry="18"/>
<text text-anchor="middle" x="285" y="-710.3" font-family="Times,serif" font-size="14.00">JR</text>
</g>
<!-- BI -->
<g id="node2" class="node"><title>BI</title>
<ellipse fill="none" stroke="black" cx="594" cy="-627" rx="27" ry="18"/>
<text text-anchor="middle" x="594" y="-623.3" font-family="Times,serif" font-size="14.00">BI</text>
</g>
<!-- JR&#45;&gt;BI -->
<g id="edge1" class="edge"><title>JR&#45;&gt;BI</title>
<path fill="none" stroke="black" d="M311.266,-709.746C347.647,-704.86 415.204,-694.41 471,-678 503.408,-668.468 539.019,-653.465 563.546,-642.377"/>
<polygon fill="black" stroke="black" points="565.057,-645.535 572.694,-638.191 562.144,-639.17 565.057,-645.535"/>
<text text-anchor="middle" x="533.5" y="-666.8" font-family="Times,serif" font-size="14.00">0.598</text>
</g>
<!-- Im -->
<g id="node7" class="node"><title>Im</title>
<ellipse fill="none" stroke="black" cx="250" cy="-192" rx="27" ry="18"/>
<text text-anchor="middle" x="250" y="-188.3" font-family="Times,serif" font-size="14.00">Im</text>
</g>
<!-- JR&#45;&gt;Im -->
<g id="edge27" class="edge"><title>JR&#45;&gt;Im</title>
<path fill="none" stroke="black" d="M257.796,-713.099C214.664,-712.312 128.739,-706.855 63,-678 30.2677,-663.633 0,-663.747 0,-628 0,-628 0,-628 0,-278 0,-242.253 30.4769,-242.835 63,-228 111.756,-205.761 173.823,-197.653 212.746,-194.696"/>
<polygon fill="black" stroke="black" points="213.341,-198.164 223.08,-193.992 212.865,-191.18 213.341,-198.164"/>
<text text-anchor="middle" x="20.5" y="-449.3" font-family="Times,serif" font-size="14.00">0.253</text>
</g>
<!-- SA -->
<g id="node9" class="node"><title>SA</title>
<ellipse fill="none" stroke="black" cx="486" cy="-366" rx="27" ry="18"/>
<text text-anchor="middle" x="486" y="-362.3" font-family="Times,serif" font-size="14.00">SA</text>
</g>
<!-- JR&#45;&gt;SA -->
<g id="edge35" class="edge"><title>JR&#45;&gt;SA</title>
<path fill="none" stroke="black" d="M266.145,-701.093C245.716,-686.56 216,-659.932 216,-628 216,-628 216,-628 216,-495.5 216,-393.696 374.439,-372.458 448.577,-368.093"/>
<polygon fill="black" stroke="black" points="449.068,-371.572 458.875,-367.563 448.709,-364.581 449.068,-371.572"/>
<text text-anchor="middle" x="236.5" y="-536.3" font-family="Times,serif" font-size="14.00">0.194</text>
</g>
<!-- BI&#45;&gt;JR -->
<g id="edge49" class="edge"><title>BI&#45;&gt;JR</title>
<path fill="none" stroke="black" d="M568.123,-632.268C534.905,-638.002 475.632,-649.099 426,-663 387.967,-673.652 345.365,-689.293 317.043,-700.236"/>
<polygon fill="black" stroke="black" points="315.698,-697.003 307.651,-703.895 318.24,-703.526 315.698,-697.003"/>
<text text-anchor="middle" x="446.5" y="-666.8" font-family="Times,serif" font-size="14.00">0.119</text>
</g>
<!-- Use -->
<g id="node3" class="node"><title>Use</title>
<ellipse fill="none" stroke="black" cx="502" cy="-453" rx="28.6953" ry="18"/>
<text text-anchor="middle" x="502" y="-449.3" font-family="Times,serif" font-size="14.00">Use</text>
</g>
<!-- BI&#45;&gt;Use -->
<g id="edge11" class="edge"><title>BI&#45;&gt;Use</title>
<path fill="none" stroke="black" d="M615.129,-615.3C624.243,-609.467 633.956,-601.313 639,-591 646.13,-576.421 642.927,-552.01 630,-522 622.721,-505.101 619.922,-499.766 605,-489 585.52,-474.945 559.972,-466.217 539.194,-460.991"/>
<polygon fill="black" stroke="black" points="539.96,-457.576 529.425,-458.699 538.361,-464.391 539.96,-457.576"/>
<text text-anchor="middle" x="662.5" y="-536.3" font-family="Times,serif" font-size="14.00">0.553</text>
</g>
<!-- PU -->
<g id="node4" class="node"><title>PU</title>
<ellipse fill="none" stroke="black" cx="829" cy="-192" rx="27" ry="18"/>
<text text-anchor="middle" x="829" y="-188.3" font-family="Times,serif" font-size="14.00">PU</text>
</g>
<!-- BI&#45;&gt;PU -->
<g id="edge16" class="edge"><title>BI&#45;&gt;PU</title>
<path fill="none" stroke="black" d="M620.983,-625.385C704.473,-622.759 953,-609.213 953,-541 953,-541 953,-541 953,-278 953,-234.699 900.923,-211.823 864.266,-201.084"/>
<polygon fill="black" stroke="black" points="864.963,-197.646 854.392,-198.37 863.107,-204.396 864.963,-197.646"/>
<text text-anchor="middle" x="973.5" y="-405.8" font-family="Times,serif" font-size="14.00">0.434</text>
</g>
<!-- BI&#45;&gt;Im -->
<g id="edge30" class="edge"><title>BI&#45;&gt;Im</title>
<path fill="none" stroke="black" d="M569.658,-619.192C481.339,-593.887 180.816,-502.319 140,-417 103.482,-340.666 100.442,-284.983 163,-228 177.488,-214.803 197.587,-206.278 214.817,-200.95"/>
<polygon fill="black" stroke="black" points="215.909,-204.278 224.566,-198.171 213.99,-197.546 215.909,-204.278"/>
<text text-anchor="middle" x="160.5" y="-405.8" font-family="Times,serif" font-size="14.00">0.253</text>
</g>
<!-- Qu -->
<g id="node10" class="node"><title>Qu</title>
<ellipse fill="none" stroke="black" cx="594" cy="-540" rx="27" ry="18"/>
<text text-anchor="middle" x="594" y="-536.3" font-family="Times,serif" font-size="14.00">Qu</text>
</g>
<!-- BI&#45;&gt;Qu -->
<g id="edge26" class="edge"><title>BI&#45;&gt;Qu</title>
<path fill="none" stroke="black" d="M594,-608.799C594,-597.163 594,-581.548 594,-568.237"/>
<polygon fill="black" stroke="black" points="597.5,-568.175 594,-558.175 590.5,-568.175 597.5,-568.175"/>
<text text-anchor="middle" x="614.5" y="-579.8" font-family="Times,serif" font-size="14.00">0.262</text>
</g>
<!-- Use&#45;&gt;JR -->
<g id="edge47" class="edge"><title>Use&#45;&gt;JR</title>
<path fill="none" stroke="black" d="M489.087,-469.412C452.458,-513.131 347.738,-638.119 304.272,-689.998"/>
<polygon fill="black" stroke="black" points="301.344,-688.043 297.605,-697.956 306.71,-692.538 301.344,-688.043"/>
<text text-anchor="middle" x="419.5" y="-579.8" font-family="Times,serif" font-size="14.00">0.119</text>
</g>
<!-- Use&#45;&gt;BI -->
<g id="edge2" class="edge"><title>Use&#45;&gt;BI</title>
<path fill="none" stroke="black" d="M495.567,-470.843C493.706,-476.523 491.927,-482.956 491,-489 486.03,-521.392 497.218,-531.873 517,-558 531.393,-577.01 551.754,-594.711 567.924,-607.285"/>
<polygon fill="black" stroke="black" points="565.862,-610.114 575.943,-613.373 570.094,-604.538 565.862,-610.114"/>
<text text-anchor="middle" x="537.5" y="-536.3" font-family="Times,serif" font-size="14.00">0.598</text>
</g>
<!-- Use&#45;&gt;PU -->
<g id="edge14" class="edge"><title>Use&#45;&gt;PU</title>
<path fill="none" stroke="black" d="M529.724,-447.648C592.828,-436.111 746.896,-398.373 814,-297 829.057,-274.254 831.642,-242.597 831.188,-220.2"/>
<polygon fill="black" stroke="black" points="834.677,-219.873 830.762,-210.029 827.683,-220.166 834.677,-219.873"/>
<text text-anchor="middle" x="820.5" y="-318.8" font-family="Times,serif" font-size="14.00">0.434</text>
</g>
<!-- Pf -->
<g id="node6" class="node"><title>Pf</title>
<ellipse fill="none" stroke="black" cx="442" cy="-18" rx="27" ry="18"/>
<text text-anchor="middle" x="442" y="-14.3" font-family="Times,serif" font-size="14.00">Pf</text>
</g>
<!-- Use&#45;&gt;Pf -->
<g id="edge44" class="edge"><title>Use&#45;&gt;Pf</title>
<path fill="none" stroke="black" d="M485.694,-438.19C443.069,-402.009 331.311,-306.576 327,-297 284.542,-202.677 376.599,-87.9181 420.458,-40.7911"/>
<polygon fill="black" stroke="black" points="423.211,-42.9738 427.55,-33.3081 418.131,-38.1583 423.211,-42.9738"/>
<text text-anchor="middle" x="337.5" y="-231.8" font-family="Times,serif" font-size="14.00">0.137</text>
</g>
<!-- Use&#45;&gt;Im -->
<g id="edge29" class="edge"><title>Use&#45;&gt;Im</title>
<path fill="none" stroke="black" d="M480.522,-440.988C476.39,-438.947 472.079,-436.871 468,-435 449.168,-426.362 443.122,-427.042 425,-417 366.432,-384.544 342.999,-382.94 302,-330 276.334,-296.859 262.166,-249.627 255.327,-220.171"/>
<polygon fill="black" stroke="black" points="258.696,-219.197 253.131,-210.182 251.859,-220.7 258.696,-219.197"/>
<text text-anchor="middle" x="322.5" y="-318.8" font-family="Times,serif" font-size="14.00">0.253</text>
</g>
<!-- Use&#45;&gt;SA -->
<g id="edge37" class="edge"><title>Use&#45;&gt;SA</title>
<path fill="none" stroke="black" d="M512.134,-436.045C517.121,-426.13 521.241,-413.186 517,-402 515.141,-397.097 512.247,-392.441 508.957,-388.218"/>
<polygon fill="black" stroke="black" points="511.553,-385.869 502.315,-380.681 506.301,-390.497 511.553,-385.869"/>
<text text-anchor="middle" x="539.5" y="-405.8" font-family="Times,serif" font-size="14.00">0.194</text>
</g>
<!-- Use&#45;&gt;Qu -->
<g id="edge24" class="edge"><title>Use&#45;&gt;Qu</title>
<path fill="none" stroke="black" d="M496.064,-470.731C493.469,-481.19 492.335,-494.441 499,-504 512.073,-522.748 536.375,-531.48 557.126,-535.535"/>
<polygon fill="black" stroke="black" points="556.831,-539.033 567.269,-537.215 557.975,-532.127 556.831,-539.033"/>
<text text-anchor="middle" x="519.5" y="-492.8" font-family="Times,serif" font-size="14.00">0.262</text>
</g>
<!-- PU&#45;&gt;JR -->
<g id="edge48" class="edge"><title>PU&#45;&gt;JR</title>
<path fill="none" stroke="black" d="M855.794,-194.643C930.729,-199.966 1137,-219.894 1137,-278 1137,-628 1137,-628 1137,-628 1137,-711.092 487.068,-713.879 322.508,-713.253"/>
<polygon fill="black" stroke="black" points="322.398,-709.753 312.383,-713.208 322.367,-716.753 322.398,-709.753"/>
<text text-anchor="middle" x="1157.5" y="-449.3" font-family="Times,serif" font-size="14.00">0.119</text>
</g>
<!-- PU&#45;&gt;BI -->
<g id="edge3" class="edge"><title>PU&#45;&gt;BI</title>
<path fill="none" stroke="black" d="M844.203,-206.881C850.096,-212.906 856.496,-220.333 861,-228 876.555,-254.475 922.046,-337.174 901,-384 886.356,-416.583 684.461,-570.797 655,-591 645.055,-597.82 633.704,-604.587 623.512,-610.327"/>
<polygon fill="black" stroke="black" points="621.609,-607.38 614.552,-615.282 624.997,-613.506 621.609,-607.38"/>
<text text-anchor="middle" x="907.5" y="-405.8" font-family="Times,serif" font-size="14.00">0.598</text>
</g>
<!-- PU&#45;&gt;Use -->
<g id="edge9" class="edge"><title>PU&#45;&gt;Use</title>
<path fill="none" stroke="black" d="M826.776,-209.998C822.861,-233.023 812.573,-273.893 787,-297 765.71,-316.236 750.803,-302.449 725,-315 655.123,-348.99 650.612,-378.701 583,-417 567.911,-425.547 550.328,-433.379 535.407,-439.457"/>
<polygon fill="black" stroke="black" points="534.035,-436.236 526.039,-443.188 536.625,-442.74 534.035,-436.236"/>
<text text-anchor="middle" x="745.5" y="-318.8" font-family="Times,serif" font-size="14.00">0.553</text>
</g>
<!-- ENJ -->
<g id="node5" class="node"><title>ENJ</title>
<ellipse fill="none" stroke="black" cx="732" cy="-105" rx="29.795" ry="18"/>
<text text-anchor="middle" x="732" y="-101.3" font-family="Times,serif" font-size="14.00">ENJ</text>
</g>
<!-- PU&#45;&gt;ENJ -->
<g id="edge32" class="edge"><title>PU&#45;&gt;ENJ</title>
<path fill="none" stroke="black" d="M824.827,-173.946C821.497,-163.358 815.886,-150.085 807,-141 796.409,-130.172 781.823,-122.327 768.328,-116.844"/>
<polygon fill="black" stroke="black" points="769.36,-113.493 758.768,-113.26 766.903,-120.047 769.36,-113.493"/>
<text text-anchor="middle" x="838.5" y="-144.8" font-family="Times,serif" font-size="14.00">0.221</text>
</g>
<!-- PU&#45;&gt;SA -->
<g id="edge38" class="edge"><title>PU&#45;&gt;SA</title>
<path fill="none" stroke="black" d="M812.059,-206.075C794.991,-219.432 768.093,-240.993 746,-261 729.228,-276.189 727.778,-283.002 710,-297 687.901,-314.399 682.164,-319.677 656,-330 643.654,-334.871 567.789,-349.614 521.677,-358.334"/>
<polygon fill="black" stroke="black" points="520.945,-354.91 511.766,-360.202 522.241,-361.789 520.945,-354.91"/>
<text text-anchor="middle" x="766.5" y="-275.3" font-family="Times,serif" font-size="14.00">0.194</text>
</g>
<!-- PU&#45;&gt;Qu -->
<g id="edge25" class="edge"><title>PU&#45;&gt;Qu</title>
<path fill="none" stroke="black" d="M838.127,-209.238C840.89,-214.984 843.57,-221.61 845,-228 863.445,-310.431 873.377,-347.757 825,-417 781.52,-479.234 747.971,-474.545 678,-504 655.459,-513.489 648.422,-512.234 626,-522 625.142,-522.374 624.276,-522.761 623.405,-523.16"/>
<polygon fill="black" stroke="black" points="621.523,-520.184 614.081,-527.725 624.601,-526.471 621.523,-520.184"/>
<text text-anchor="middle" x="878.5" y="-362.3" font-family="Times,serif" font-size="14.00">0.262</text>
</g>
<!-- ENJ&#45;&gt;BI -->
<g id="edge4" class="edge"><title>ENJ&#45;&gt;BI</title>
<path fill="none" stroke="black" d="M761.337,-109.043C830.697,-117.047 999,-141.563 999,-191 999,-323.5 999,-323.5 999,-323.5 999,-447.216 1037.12,-545.697 922,-591 869.811,-611.537 705.475,-621.137 631.152,-624.513"/>
<polygon fill="black" stroke="black" points="630.699,-621.03 620.863,-624.967 631.008,-628.023 630.699,-621.03"/>
<text text-anchor="middle" x="1022.5" y="-362.3" font-family="Times,serif" font-size="14.00">0.598</text>
</g>
<!-- ENJ&#45;&gt;PU -->
<g id="edge15" class="edge"><title>ENJ&#45;&gt;PU</title>
<path fill="none" stroke="black" d="M740.461,-122.311C746.524,-132.86 755.461,-146.37 766,-156 775.216,-164.421 786.818,-171.594 797.546,-177.213"/>
<polygon fill="black" stroke="black" points="796.154,-180.43 806.667,-181.744 799.267,-174.161 796.154,-180.43"/>
<text text-anchor="middle" x="786.5" y="-144.8" font-family="Times,serif" font-size="14.00">0.434</text>
</g>
<!-- ENJ&#45;&gt;Pf -->
<g id="edge45" class="edge"><title>ENJ&#45;&gt;Pf</title>
<path fill="none" stroke="black" d="M705.669,-96.1558C672.437,-86.2682 613.51,-68.777 563,-54 533.8,-45.4574 500.601,-35.8628 476.374,-28.8826"/>
<polygon fill="black" stroke="black" points="477.156,-25.4656 466.578,-26.0619 475.219,-32.1923 477.156,-25.4656"/>
<text text-anchor="middle" x="630.5" y="-57.8" font-family="Times,serif" font-size="14.00">0.137</text>
</g>
<!-- PEU -->
<g id="node8" class="node"><title>PEU</title>
<ellipse fill="none" stroke="black" cx="550" cy="-279" rx="31.3957" ry="18"/>
<text text-anchor="middle" x="550" y="-275.3" font-family="Times,serif" font-size="14.00">PEU</text>
</g>
<!-- ENJ&#45;&gt;PEU -->
<g id="edge20" class="edge"><title>ENJ&#45;&gt;PEU</title>
<path fill="none" stroke="black" d="M705.985,-114.071C678.239,-123.95 634.812,-143.262 609,-174 588.766,-198.095 571.81,-230.115 561.343,-252.229"/>
<polygon fill="black" stroke="black" points="558.151,-250.793 557.133,-261.338 564.505,-253.73 558.151,-250.793"/>
<text text-anchor="middle" x="625" y="-188.3" font-family="Times,serif" font-size="14.00">0.31</text>
</g>
<!-- ENJ&#45;&gt;SA -->
<g id="edge40" class="edge"><title>ENJ&#45;&gt;SA</title>
<path fill="none" stroke="black" d="M733.652,-123.184C734.906,-144.979 734.212,-182.972 718,-210 710.957,-221.741 703.931,-219.756 693,-228 684.41,-234.478 682.59,-236.522 674,-243 663.069,-251.244 659.641,-252.385 649,-261 613.542,-289.708 611.658,-305.773 573,-330 556.663,-340.238 536.824,-348.494 520.219,-354.41"/>
<polygon fill="black" stroke="black" points="518.683,-351.236 510.358,-357.789 520.952,-357.859 518.683,-351.236"/>
<text text-anchor="middle" x="713.5" y="-231.8" font-family="Times,serif" font-size="14.00">0.194</text>
</g>
<!-- Pf&#45;&gt;Use -->
<g id="edge5" class="edge"><title>Pf&#45;&gt;Use</title>
<path fill="none" stroke="black" d="M415.068,-19.4105C380.54,-21.0609 319.896,-27.8371 276,-54 197.193,-100.971 177.16,-152.635 193,-243 193.4,-245.281 211.523,-385.832 274,-417 351.485,-455.656 384.734,-411.229 468,-435 469.428,-435.408 470.867,-435.875 472.305,-436.388"/>
<polygon fill="black" stroke="black" points="471.061,-439.662 481.637,-440.299 473.767,-433.206 471.061,-439.662"/>
<text text-anchor="middle" x="213.5" y="-231.8" font-family="Times,serif" font-size="14.00">0.553</text>
</g>
<!-- Pf&#45;&gt;PEU -->
<g id="edge17" class="edge"><title>Pf&#45;&gt;PEU</title>
<path fill="none" stroke="black" d="M448.746,-35.7141C451.064,-41.4981 453.664,-48.0271 456,-54 473.68,-99.1994 476.352,-111.191 495,-156 508.966,-189.558 526.402,-227.662 537.852,-252.224"/>
<polygon fill="black" stroke="black" points="534.811,-253.983 542.219,-261.558 541.151,-251.017 534.811,-253.983"/>
<text text-anchor="middle" x="511" y="-144.8" font-family="Times,serif" font-size="14.00">0.31</text>
</g>
<!-- Pf&#45;&gt;SA -->
<g id="edge33" class="edge"><title>Pf&#45;&gt;SA</title>
<path fill="none" stroke="black" d="M441.043,-36.0029C439.249,-73.6109 436.602,-166.572 449,-243 454.489,-276.836 466.879,-314.384 475.81,-338.769"/>
<polygon fill="black" stroke="black" points="472.617,-340.222 479.396,-348.364 479.174,-337.772 472.617,-340.222"/>
<text text-anchor="middle" x="465.5" y="-188.3" font-family="Times,serif" font-size="14.00">0.194</text>
</g>
<!-- Pf&#45;&gt;Qu -->
<g id="edge21" class="edge"><title>Pf&#45;&gt;Qu</title>
<path fill="none" stroke="black" d="M468.898,-19.7733C588.719,-23.567 1068,-42.5804 1068,-104 1068,-454 1068,-454 1068,-454 1068,-553.378 720.318,-490.693 626,-522 624.955,-522.347 623.904,-522.726 622.851,-523.131"/>
<polygon fill="black" stroke="black" points="621.207,-520.032 613.512,-527.315 624.069,-526.42 621.207,-520.032"/>
<text text-anchor="middle" x="1088.5" y="-275.3" font-family="Times,serif" font-size="14.00">0.262</text>
</g>
<!-- Im&#45;&gt;JR -->
<g id="edge46" class="edge"><title>Im&#45;&gt;JR</title>
<path fill="none" stroke="black" d="M222.969,-194.234C174.312,-198.062 77,-213.749 77,-278 77,-628 77,-628 77,-628 77,-700.865 187.731,-712.652 247.607,-713.699"/>
<polygon fill="black" stroke="black" points="247.779,-717.2 257.808,-713.782 247.837,-710.2 247.779,-717.2"/>
<text text-anchor="middle" x="97.5" y="-449.3" font-family="Times,serif" font-size="14.00">0.119</text>
</g>
<!-- Im&#45;&gt;Use -->
<g id="edge6" class="edge"><title>Im&#45;&gt;Use</title>
<path fill="none" stroke="black" d="M244.707,-209.817C237.3,-236.029 226.02,-287.982 238,-330 244.239,-351.883 272.704,-404.94 292,-417 325.339,-437.837 430.246,-424.03 468,-435 469.426,-435.414 470.864,-435.887 472.301,-436.405"/>
<polygon fill="black" stroke="black" points="471.053,-439.677 481.627,-440.333 473.769,-433.226 471.053,-439.677"/>
<text text-anchor="middle" x="258.5" y="-318.8" font-family="Times,serif" font-size="14.00">0.553</text>
</g>
<!-- Im&#45;&gt;Pf -->
<g id="edge41" class="edge"><title>Im&#45;&gt;Pf</title>
<path fill="none" stroke="black" d="M248.579,-173.95C247.568,-152.297 248.519,-114.454 264,-87 291.621,-38.0183 361.041,-24.1034 404.573,-20.2824"/>
<polygon fill="black" stroke="black" points="405.06,-23.7561 414.775,-19.5291 404.544,-16.7751 405.06,-23.7561"/>
<text text-anchor="middle" x="284.5" y="-101.3" font-family="Times,serif" font-size="14.00">0.137</text>
</g>
<!-- Im&#45;&gt;SA -->
<g id="edge34" class="edge"><title>Im&#45;&gt;SA</title>
<path fill="none" stroke="black" d="M264.345,-207.254C291.671,-233.866 353.842,-291.856 414,-330 426.627,-338.007 441.357,-345.465 454.191,-351.421"/>
<polygon fill="black" stroke="black" points="453.017,-354.732 463.571,-355.668 455.904,-348.355 453.017,-354.732"/>
<text text-anchor="middle" x="387.5" y="-275.3" font-family="Times,serif" font-size="14.00">0.194</text>
</g>
<!-- Im&#45;&gt;Qu -->
<g id="edge22" class="edge"><title>Im&#45;&gt;Qu</title>
<path fill="none" stroke="black" d="M224.045,-197.693C206.918,-202.283 185.729,-211.154 175,-228 137.756,-286.481 145.058,-321.465 175,-384 229.787,-498.426 311.388,-471.42 434,-504 489.522,-518.753 507.361,-504.255 562,-522 563.047,-522.34 564.101,-522.713 565.155,-523.113"/>
<polygon fill="black" stroke="black" points="563.943,-526.405 574.502,-527.272 566.789,-520.009 563.943,-526.405"/>
<text text-anchor="middle" x="195.5" y="-362.3" font-family="Times,serif" font-size="14.00">0.262</text>
</g>
<!-- PEU&#45;&gt;Use -->
<g id="edge7" class="edge"><title>PEU&#45;&gt;Use</title>
<path fill="none" stroke="black" d="M563.135,-295.739C567.109,-301.444 570.958,-308.173 573,-315 586.044,-358.6 588.939,-378.933 564,-417 557.399,-427.076 546.839,-434.553 536.291,-439.949"/>
<polygon fill="black" stroke="black" points="534.744,-436.807 527.124,-444.168 537.671,-443.166 534.744,-436.807"/>
<text text-anchor="middle" x="603.5" y="-362.3" font-family="Times,serif" font-size="14.00">0.553</text>
</g>
<!-- PEU&#45;&gt;PU -->
<g id="edge12" class="edge"><title>PEU&#45;&gt;PU</title>
<path fill="none" stroke="black" d="M571.536,-265.784C583.034,-259.175 597.378,-250.791 610,-243 620.385,-236.59 621.654,-232.496 633,-228 661.441,-216.729 744.26,-204.311 792.659,-197.721"/>
<polygon fill="black" stroke="black" points="793.278,-201.169 802.722,-196.367 792.345,-194.232 793.278,-201.169"/>
<text text-anchor="middle" x="653.5" y="-231.8" font-family="Times,serif" font-size="14.00">0.434</text>
</g>
<!-- PEU&#45;&gt;ENJ -->
<g id="edge31" class="edge"><title>PEU&#45;&gt;ENJ</title>
<path fill="none" stroke="black" d="M567.024,-263.732C579.503,-253.462 596.988,-239.457 613,-228 625.031,-219.391 629.797,-219.662 641,-210 656.329,-196.781 690.986,-155.804 712.831,-129.405"/>
<polygon fill="black" stroke="black" points="715.771,-131.342 719.433,-121.4 710.371,-126.888 715.771,-131.342"/>
<text text-anchor="middle" x="695.5" y="-188.3" font-family="Times,serif" font-size="14.00">0.221</text>
</g>
<!-- PEU&#45;&gt;Pf -->
<g id="edge42" class="edge"><title>PEU&#45;&gt;Pf</title>
<path fill="none" stroke="black" d="M549.231,-260.57C547.586,-233.986 542.5,-182.066 527,-141 512.404,-102.329 482.813,-64.3047 462.696,-41.2471"/>
<polygon fill="black" stroke="black" points="465.277,-38.8832 456.015,-33.739 460.048,-43.5364 465.277,-38.8832"/>
<text text-anchor="middle" x="552.5" y="-144.8" font-family="Times,serif" font-size="14.00">0.137</text>
</g>
<!-- PEU&#45;&gt;Im -->
<g id="edge28" class="edge"><title>PEU&#45;&gt;Im</title>
<path fill="none" stroke="black" d="M522.929,-269.985C489.078,-259.997 429.329,-242.477 378,-228 346.289,-219.056 310.061,-209.182 284.26,-202.208"/>
<polygon fill="black" stroke="black" points="285.137,-198.82 274.571,-199.593 283.313,-205.578 285.137,-198.82"/>
<text text-anchor="middle" x="451.5" y="-231.8" font-family="Times,serif" font-size="14.00">0.253</text>
</g>
<!-- PEU&#45;&gt;SA -->
<g id="edge36" class="edge"><title>PEU&#45;&gt;SA</title>
<path fill="none" stroke="black" d="M522,-287.093C507.673,-292.296 491.5,-300.97 483,-315 478.864,-321.826 478.08,-330.185 478.775,-338.099"/>
<polygon fill="black" stroke="black" points="475.337,-338.766 480.384,-348.082 482.248,-337.652 475.337,-338.766"/>
<text text-anchor="middle" x="503.5" y="-318.8" font-family="Times,serif" font-size="14.00">0.194</text>
</g>
<!-- SA&#45;&gt;Use -->
<g id="edge8" class="edge"><title>SA&#45;&gt;Use</title>
<path fill="none" stroke="black" d="M478.491,-383.474C475.021,-393.351 472.386,-406.074 476,-417 477.364,-421.123 479.422,-425.156 481.796,-428.933"/>
<polygon fill="black" stroke="black" points="479.053,-431.114 487.726,-437.199 484.741,-427.034 479.053,-431.114"/>
<text text-anchor="middle" x="496.5" y="-405.8" font-family="Times,serif" font-size="14.00">0.553</text>
</g>
<!-- SA&#45;&gt;PU -->
<g id="edge13" class="edge"><title>SA&#45;&gt;PU</title>
<path fill="none" stroke="black" d="M511.663,-360.266C551.917,-352.656 626.333,-337.768 636,-330 662.497,-308.706 642.781,-282.636 669,-261 693.444,-240.828 708.554,-254.72 738,-243 741.282,-241.694 774.662,-223.241 800.052,-209.13"/>
<polygon fill="black" stroke="black" points="801.936,-212.087 808.974,-204.167 798.533,-205.969 801.936,-212.087"/>
<text text-anchor="middle" x="689.5" y="-275.3" font-family="Times,serif" font-size="14.00">0.434</text>
</g>
<!-- SA&#45;&gt;Pf -->
<g id="edge43" class="edge"><title>SA&#45;&gt;Pf</title>
<path fill="none" stroke="black" d="M473.607,-349.951C452.804,-323.585 411.693,-266.456 397,-210 381.601,-150.832 409.907,-80.7561 428.209,-44.143"/>
<polygon fill="black" stroke="black" points="431.368,-45.6534 432.837,-35.1609 425.145,-42.4469 431.368,-45.6534"/>
<text text-anchor="middle" x="417.5" y="-188.3" font-family="Times,serif" font-size="14.00">0.137</text>
</g>
<!-- SA&#45;&gt;PEU -->
<g id="edge18" class="edge"><title>SA&#45;&gt;PEU</title>
<path fill="none" stroke="black" d="M504.425,-352.62C512.452,-346.531 521.492,-338.645 528,-330 533.353,-322.89 537.737,-314.273 541.144,-306.211"/>
<polygon fill="black" stroke="black" points="544.446,-307.377 544.815,-296.789 537.923,-304.836 544.446,-307.377"/>
<text text-anchor="middle" x="553" y="-318.8" font-family="Times,serif" font-size="14.00">0.31</text>
</g>
<!-- SA&#45;&gt;Qu -->
<g id="edge23" class="edge"><title>SA&#45;&gt;Qu</title>
<path fill="none" stroke="black" d="M510.759,-373.194C527.546,-378.471 549.277,-387.548 564,-402 594.505,-431.943 595.663,-447.287 605,-489 606.708,-496.633 605.942,-504.926 604.201,-512.524"/>
<polygon fill="black" stroke="black" points="600.783,-511.748 601.364,-522.327 607.506,-513.694 600.783,-511.748"/>
<text text-anchor="middle" x="621.5" y="-449.3" font-family="Times,serif" font-size="14.00">0.262</text>
</g>
<!-- Qu&#45;&gt;Use -->
<g id="edge10" class="edge"><title>Qu&#45;&gt;Use</title>
<path fill="none" stroke="black" d="M579.897,-524.205C570.062,-514.061 556.51,-500.424 544,-489 538.632,-484.098 532.716,-478.996 527.061,-474.252"/>
<polygon fill="black" stroke="black" points="528.991,-471.306 519.056,-467.625 524.527,-476.698 528.991,-471.306"/>
<text text-anchor="middle" x="580.5" y="-492.8" font-family="Times,serif" font-size="14.00">0.553</text>
</g>
<!-- Qu&#45;&gt;PEU -->
<g id="edge19" class="edge"><title>Qu&#45;&gt;PEU</title>
<path fill="none" stroke="black" d="M613.452,-527.411C654.796,-502.551 749.776,-444.16 776,-417 791.806,-400.631 823.761,-351.883 830,-330 831.828,-323.589 834.475,-319.942 830,-315 816.435,-300.019 669.028,-299.712 649,-297 629.261,-294.327 607.429,-290.655 589.3,-287.408"/>
<polygon fill="black" stroke="black" points="589.837,-283.948 579.373,-285.606 588.587,-290.836 589.837,-283.948"/>
<text text-anchor="middle" x="805" y="-405.8" font-family="Times,serif" font-size="14.00">0.31</text>
</g>
<!-- Qu&#45;&gt;SA -->
<g id="edge39" class="edge"><title>Qu&#45;&gt;SA</title>
<path fill="none" stroke="black" d="M574.375,-527.629C570.362,-525.575 566.108,-523.585 562,-522 500.608,-498.308 457.926,-526.771 423,-471 404.679,-441.745 435.465,-407.432 460.101,-386.459"/>
<polygon fill="black" stroke="black" points="462.615,-388.924 468.139,-379.884 458.183,-383.505 462.615,-388.924"/>
<text text-anchor="middle" x="443.5" y="-449.3" font-family="Times,serif" font-size="14.00">0.194</text>
</g>
</g>
</svg>
