<?xml version="1.0" encoding="UTF-8" standalone="no"?>
<!DOCTYPE svg PUBLIC "-//W3C//DTD SVG 1.1//EN"
 "http://www.w3.org/Graphics/SVG/1.1/DTD/svg11.dtd">
<!-- Generated by graphviz version 2.38.0 (20140413.2041)
 -->
<!-- Title: G Pages: 1 -->
<svg width="340pt" height="392pt"
 viewBox="0.00 0.00 340.20 392.00" xmlns="http://www.w3.org/2000/svg" xmlns:xlink="http://www.w3.org/1999/xlink">
<g id="graph0" class="graph" transform="scale(1 1) rotate(0) translate(4 388)">
<title>G</title>
<polygon fill="white" stroke="none" points="-4,4 -4,-388 336.197,-388 336.197,4 -4,4"/>
<!-- SA -->
<g id="node1" class="node"><title>SA</title>
<ellipse fill="none" stroke="black" cx="73.1972" cy="-192" rx="27" ry="18"/>
<text text-anchor="middle" x="73.1972" y="-188.3" font-family="Times,serif" font-size="14.00">SA</text>
</g>
<!-- Use -->
<g id="node2" class="node"><title>Use</title>
<ellipse fill="none" stroke="black" cx="31.1972" cy="-105" rx="28.6953" ry="18"/>
<text text-anchor="middle" x="31.1972" y="-101.3" font-family="Times,serif" font-size="14.00">Use</text>
</g>
<!-- SA&#45;&gt;Use -->
<g id="edge1" class="edge"><title>SA&#45;&gt;Use</title>
<path fill="none" stroke="black" d="M58.3415,-176.815C52.8614,-170.855 47.055,-163.555 43.1972,-156 39.6248,-149.003 37.0905,-140.909 35.3027,-133.298"/>
<polygon fill="black" stroke="black" points="38.7079,-132.478 33.3001,-123.367 31.8461,-133.862 38.7079,-132.478"/>
<text text-anchor="middle" x="63.6972" y="-144.8" font-family="Times,serif" font-size="14.00">0.049</text>
</g>
<!-- Pf -->
<g id="node10" class="node"><title>Pf</title>
<ellipse fill="none" stroke="black" cx="105.197" cy="-105" rx="27" ry="18"/>
<text text-anchor="middle" x="105.197" y="-101.3" font-family="Times,serif" font-size="14.00">Pf</text>
</g>
<!-- SA&#45;&gt;Pf -->
<g id="edge9" class="edge"><title>SA&#45;&gt;Pf</title>
<path fill="none" stroke="black" d="M79.5194,-174.207C84.0337,-162.216 90.1945,-145.851 95.3499,-132.157"/>
<polygon fill="black" stroke="black" points="98.6404,-133.35 98.8882,-122.758 92.0893,-130.884 98.6404,-133.35"/>
<text text-anchor="middle" x="111.697" y="-144.8" font-family="Times,serif" font-size="14.00">0.005</text>
</g>
<!-- PEU -->
<g id="node7" class="node"><title>PEU</title>
<ellipse fill="none" stroke="black" cx="31.1972" cy="-18" rx="31.3957" ry="18"/>
<text text-anchor="middle" x="31.1972" y="-14.3" font-family="Times,serif" font-size="14.00">PEU</text>
</g>
<!-- Use&#45;&gt;PEU -->
<g id="edge4" class="edge"><title>Use&#45;&gt;PEU</title>
<path fill="none" stroke="black" d="M31.1972,-86.799C31.1972,-75.1626 31.1972,-59.5479 31.1972,-46.2368"/>
<polygon fill="black" stroke="black" points="34.6973,-46.1754 31.1972,-36.1754 27.6973,-46.1755 34.6973,-46.1754"/>
<text text-anchor="middle" x="51.6972" y="-57.8" font-family="Times,serif" font-size="14.00">0.025</text>
</g>
<!-- Qu -->
<g id="node3" class="node"><title>Qu</title>
<ellipse fill="none" stroke="black" cx="154.197" cy="-279" rx="27" ry="18"/>
<text text-anchor="middle" x="154.197" y="-275.3" font-family="Times,serif" font-size="14.00">Qu</text>
</g>
<!-- Qu&#45;&gt;SA -->
<g id="edge10" class="edge"><title>Qu&#45;&gt;SA</title>
<path fill="none" stroke="black" d="M134.254,-266.683C124.467,-260.506 112.934,-252.238 104.197,-243 97.291,-235.698 91.1136,-226.621 86.1252,-218.214"/>
<polygon fill="black" stroke="black" points="89.1572,-216.465 81.2008,-209.469 83.0578,-219.899 89.1572,-216.465"/>
<text text-anchor="middle" x="124.697" y="-231.8" font-family="Times,serif" font-size="14.00">0.003</text>
</g>
<!-- BI -->
<g id="node4" class="node"><title>BI</title>
<ellipse fill="none" stroke="black" cx="145.197" cy="-192" rx="27" ry="18"/>
<text text-anchor="middle" x="145.197" y="-188.3" font-family="Times,serif" font-size="14.00">BI</text>
</g>
<!-- Qu&#45;&gt;BI -->
<g id="edge2" class="edge"><title>Qu&#45;&gt;BI</title>
<path fill="none" stroke="black" d="M152.376,-260.799C151.144,-249.163 149.491,-233.548 148.081,-220.237"/>
<polygon fill="black" stroke="black" points="151.549,-219.751 147.016,-210.175 144.588,-220.488 151.549,-219.751"/>
<text text-anchor="middle" x="171.697" y="-231.8" font-family="Times,serif" font-size="14.00">0.047</text>
</g>
<!-- JR -->
<g id="node9" class="node"><title>JR</title>
<ellipse fill="none" stroke="black" cx="217.197" cy="-192" rx="27" ry="18"/>
<text text-anchor="middle" x="217.197" y="-188.3" font-family="Times,serif" font-size="14.00">JR</text>
</g>
<!-- Qu&#45;&gt;JR -->
<g id="edge8" class="edge"><title>Qu&#45;&gt;JR</title>
<path fill="none" stroke="black" d="M172.171,-265.543C180.005,-259.439 188.831,-251.562 195.197,-243 200.507,-235.858 204.881,-227.233 208.291,-219.173"/>
<polygon fill="black" stroke="black" points="211.59,-220.346 211.97,-209.758 205.07,-217.798 211.59,-220.346"/>
<text text-anchor="middle" x="224.697" y="-231.8" font-family="Times,serif" font-size="14.00">0.008</text>
</g>
<!-- Im -->
<g id="node5" class="node"><title>Im</title>
<ellipse fill="none" stroke="black" cx="225.197" cy="-366" rx="27" ry="18"/>
<text text-anchor="middle" x="225.197" y="-362.3" font-family="Times,serif" font-size="14.00">Im</text>
</g>
<!-- Im&#45;&gt;Qu -->
<g id="edge6" class="edge"><title>Im&#45;&gt;Qu</title>
<path fill="none" stroke="black" d="M205.11,-353.663C195.706,-347.589 184.906,-339.417 177.197,-330 171.518,-323.061 166.911,-314.491 163.355,-306.417"/>
<polygon fill="black" stroke="black" points="166.525,-304.921 159.535,-296.959 160.034,-307.542 166.525,-304.921"/>
<text text-anchor="middle" x="197.697" y="-318.8" font-family="Times,serif" font-size="14.00">0.018</text>
</g>
<!-- PU -->
<g id="node6" class="node"><title>PU</title>
<ellipse fill="none" stroke="black" cx="289.197" cy="-279" rx="27" ry="18"/>
<text text-anchor="middle" x="289.197" y="-275.3" font-family="Times,serif" font-size="14.00">PU</text>
</g>
<!-- Im&#45;&gt;PU -->
<g id="edge3" class="edge"><title>Im&#45;&gt;PU</title>
<path fill="none" stroke="black" d="M221.514,-348.083C220.206,-337.806 220.287,-324.819 226.197,-315 232.801,-304.029 244.194,-296.236 255.491,-290.834"/>
<polygon fill="black" stroke="black" points="257.026,-293.984 264.851,-286.841 254.279,-287.545 257.026,-293.984"/>
<text text-anchor="middle" x="246.697" y="-318.8" font-family="Times,serif" font-size="14.00">0.032</text>
</g>
<!-- PU&#45;&gt;Im -->
<g id="edge5" class="edge"><title>PU&#45;&gt;Im</title>
<path fill="none" stroke="black" d="M284.012,-296.789C280.34,-307.018 274.726,-319.999 267.197,-330 262.825,-335.808 257.309,-341.274 251.726,-346.082"/>
<polygon fill="black" stroke="black" points="249.207,-343.617 243.622,-352.62 253.603,-349.065 249.207,-343.617"/>
<text text-anchor="middle" x="296.697" y="-318.8" font-family="Times,serif" font-size="14.00">0.019</text>
</g>
<!-- ENJ -->
<g id="node8" class="node"><title>ENJ</title>
<ellipse fill="none" stroke="black" cx="292.197" cy="-192" rx="29.795" ry="18"/>
<text text-anchor="middle" x="292.197" y="-188.3" font-family="Times,serif" font-size="14.00">ENJ</text>
</g>
<!-- PU&#45;&gt;ENJ -->
<g id="edge7" class="edge"><title>PU&#45;&gt;ENJ</title>
<path fill="none" stroke="black" d="M289.804,-260.799C290.215,-249.163 290.766,-233.548 291.236,-220.237"/>
<polygon fill="black" stroke="black" points="294.736,-220.293 291.591,-210.175 287.74,-220.046 294.736,-220.293"/>
<text text-anchor="middle" x="311.697" y="-231.8" font-family="Times,serif" font-size="14.00">0.012</text>
</g>
</g>
</svg>
