<?xml version="1.0" encoding="UTF-8" standalone="no"?>
<!DOCTYPE svg PUBLIC "-//W3C//DTD SVG 1.1//EN"
 "http://www.w3.org/Graphics/SVG/1.1/DTD/svg11.dtd">
<!-- Generated by graphviz version 2.38.0 (20140413.2041)
 -->
<!-- Title: G Pages: 1 -->
<svg width="1143pt" height="827pt"
 viewBox="0.00 0.00 1143.00 827.00" xmlns="http://www.w3.org/2000/svg" xmlns:xlink="http://www.w3.org/1999/xlink">
<g id="graph0" class="graph" transform="scale(1 1) rotate(0) translate(4 823)">
<title>G</title>
<polygon fill="white" stroke="none" points="-4,4 -4,-823 1139,-823 1139,4 -4,4"/>
<!-- PU -->
<g id="node1" class="node"><title>PU</title>
<ellipse fill="none" stroke="black" cx="359" cy="-801" rx="27" ry="18"/>
<text text-anchor="middle" x="359" y="-797.3" font-family="Times,serif" font-size="14.00">PU</text>
</g>
<!-- BI -->
<g id="node2" class="node"><title>BI</title>
<ellipse fill="none" stroke="black" cx="359" cy="-714" rx="27" ry="18"/>
<text text-anchor="middle" x="359" y="-710.3" font-family="Times,serif" font-size="14.00">BI</text>
</g>
<!-- PU&#45;&gt;BI -->
<g id="edge1" class="edge"><title>PU&#45;&gt;BI</title>
<path fill="none" stroke="black" d="M359,-782.799C359,-771.163 359,-755.548 359,-742.237"/>
<polygon fill="black" stroke="black" points="362.5,-742.175 359,-732.175 355.5,-742.175 362.5,-742.175"/>
<text text-anchor="middle" x="379.5" y="-753.8" font-family="Times,serif" font-size="14.00">0.006</text>
</g>
<!-- ENJ -->
<g id="node4" class="node"><title>ENJ</title>
<ellipse fill="none" stroke="black" cx="566" cy="-453" rx="29.795" ry="18"/>
<text text-anchor="middle" x="566" y="-449.3" font-family="Times,serif" font-size="14.00">ENJ</text>
</g>
<!-- PU&#45;&gt;ENJ -->
<g id="edge25" class="edge"><title>PU&#45;&gt;ENJ</title>
<path fill="none" stroke="black" d="M383.736,-793.55C417.265,-783.141 473,-759.191 473,-715 473,-715 473,-715 473,-539 473,-505.737 505.816,-481.998 532.462,-468.206"/>
<polygon fill="black" stroke="black" points="534.127,-471.288 541.565,-463.743 531.046,-465.003 534.127,-471.288"/>
<text text-anchor="middle" x="493.5" y="-623.3" font-family="Times,serif" font-size="14.00">0.003</text>
</g>
<!-- Im -->
<g id="node5" class="node"><title>Im</title>
<ellipse fill="none" stroke="black" cx="624" cy="-627" rx="27" ry="18"/>
<text text-anchor="middle" x="624" y="-623.3" font-family="Times,serif" font-size="14.00">Im</text>
</g>
<!-- PU&#45;&gt;Im -->
<g id="edge17" class="edge"><title>PU&#45;&gt;Im</title>
<path fill="none" stroke="black" d="M386,-800.79C435.436,-800.653 540.417,-792.729 595,-732 613.93,-710.939 620.617,-678.517 622.918,-655.477"/>
<polygon fill="black" stroke="black" points="626.422,-655.562 623.713,-645.319 619.444,-655.016 626.422,-655.562"/>
<text text-anchor="middle" x="635.5" y="-710.3" font-family="Times,serif" font-size="14.00">0.003</text>
</g>
<!-- Pf -->
<g id="node6" class="node"><title>Pf</title>
<ellipse fill="none" stroke="black" cx="381" cy="-105" rx="27" ry="18"/>
<text text-anchor="middle" x="381" y="-101.3" font-family="Times,serif" font-size="14.00">Pf</text>
</g>
<!-- PU&#45;&gt;Pf -->
<g id="edge36" class="edge"><title>PU&#45;&gt;Pf</title>
<path fill="none" stroke="black" d="M332.111,-798.23C257.955,-792.618 56,-772.093 56,-715 56,-715 56,-715 56,-191 56,-132.004 258.976,-113.169 344.113,-107.863"/>
<polygon fill="black" stroke="black" points="344.353,-111.355 354.127,-107.268 343.937,-104.367 344.353,-111.355"/>
<text text-anchor="middle" x="76.5" y="-449.3" font-family="Times,serif" font-size="14.00">0.002</text>
</g>
<!-- SA -->
<g id="node7" class="node"><title>SA</title>
<ellipse fill="none" stroke="black" cx="626" cy="-279" rx="27" ry="18"/>
<text text-anchor="middle" x="626" y="-275.3" font-family="Times,serif" font-size="14.00">SA</text>
</g>
<!-- PU&#45;&gt;SA -->
<g id="edge30" class="edge"><title>PU&#45;&gt;SA</title>
<path fill="none" stroke="black" d="M385.933,-799.447C510.531,-796.54 1025,-780.567 1025,-715 1025,-715 1025,-715 1025,-582.5 1025,-428.85 945.339,-379.754 806,-315 759.555,-293.416 700.4,-285.138 662.851,-281.966"/>
<polygon fill="black" stroke="black" points="663.1,-278.475 652.862,-281.2 662.565,-285.454 663.1,-278.475"/>
<text text-anchor="middle" x="1045.5" y="-536.3" font-family="Times,serif" font-size="14.00">0.002</text>
</g>
<!-- JR -->
<g id="node9" class="node"><title>JR</title>
<ellipse fill="none" stroke="black" cx="901" cy="-18" rx="27" ry="18"/>
<text text-anchor="middle" x="901" y="-14.3" font-family="Times,serif" font-size="14.00">JR</text>
</g>
<!-- PU&#45;&gt;JR -->
<g id="edge40" class="edge"><title>PU&#45;&gt;JR</title>
<path fill="none" stroke="black" d="M332.017,-799.385C248.527,-796.759 0,-783.213 0,-715 0,-715 0,-715 0,-104 0,-15.7984 693.211,-16.9303 863.543,-18.5398"/>
<polygon fill="black" stroke="black" points="863.508,-22.0395 873.543,-18.6407 863.579,-15.0399 863.508,-22.0395"/>
<text text-anchor="middle" x="20.5" y="-405.8" font-family="Times,serif" font-size="14.00">0.002</text>
</g>
<!-- BI&#45;&gt;Im -->
<g id="edge19" class="edge"><title>BI&#45;&gt;Im</title>
<path fill="none" stroke="black" d="M379.978,-702.147C402.121,-691.049 438.281,-673.929 471,-663 510.242,-649.892 556.756,-640.021 588.112,-634.158"/>
<polygon fill="black" stroke="black" points="588.926,-637.567 598.132,-632.324 587.666,-630.681 588.926,-637.567"/>
<text text-anchor="middle" x="491.5" y="-666.8" font-family="Times,serif" font-size="14.00">0.003</text>
</g>
<!-- BI&#45;&gt;Pf -->
<g id="edge37" class="edge"><title>BI&#45;&gt;Pf</title>
<path fill="none" stroke="black" d="M349.856,-696.908C342.436,-683.374 332.08,-663.348 325,-645 271.796,-507.11 240,-471.298 240,-323.5 240,-323.5 240,-323.5 240,-191 240,-142.017 303.184,-120.524 344.96,-111.667"/>
<polygon fill="black" stroke="black" points="345.675,-115.093 354.809,-109.725 344.321,-108.225 345.675,-115.093"/>
<text text-anchor="middle" x="266.5" y="-405.8" font-family="Times,serif" font-size="14.00">0.002</text>
</g>
<!-- Use -->
<g id="node3" class="node"><title>Use</title>
<ellipse fill="none" stroke="black" cx="548" cy="-192" rx="28.6953" ry="18"/>
<text text-anchor="middle" x="548" y="-188.3" font-family="Times,serif" font-size="14.00">Use</text>
</g>
<!-- Use&#45;&gt;PU -->
<g id="edge10" class="edge"><title>Use&#45;&gt;PU</title>
<path fill="none" stroke="black" d="M525.071,-203.16C482.42,-222.464 388.63,-266.84 316,-315 261.387,-351.213 202,-342.972 202,-408.5 202,-715 202,-715 202,-715 202,-769.462 275.963,-789.206 322.358,-796.233"/>
<polygon fill="black" stroke="black" points="321.982,-799.714 332.367,-797.619 322.942,-792.78 321.982,-799.714"/>
<text text-anchor="middle" x="222.5" y="-492.8" font-family="Times,serif" font-size="14.00">0.005</text>
</g>
<!-- Use&#45;&gt;BI -->
<g id="edge2" class="edge"><title>Use&#45;&gt;BI</title>
<path fill="none" stroke="black" d="M544.232,-210.233C538.085,-233.924 523.502,-276 494,-297 448.989,-329.038 423.851,-298.9 371,-315 338.482,-324.906 320.454,-319.451 302,-348 281.004,-380.482 300.444,-396.326 300,-435 299.816,-450.999 298.091,-455.114 300,-471 309.599,-550.896 336.416,-642.505 350.349,-686.585"/>
<polygon fill="black" stroke="black" points="347.057,-687.78 353.436,-696.239 353.724,-685.649 347.057,-687.78"/>
<text text-anchor="middle" x="320.5" y="-449.3" font-family="Times,serif" font-size="14.00">0.006</text>
</g>
<!-- Use&#45;&gt;Pf -->
<g id="edge39" class="edge"><title>Use&#45;&gt;Pf</title>
<path fill="none" stroke="black" d="M525.691,-180.651C512.372,-174.156 495.318,-165.276 481,-156 471.97,-150.15 471.239,-146.514 462,-141 446.893,-131.984 429.039,-124.013 413.943,-117.965"/>
<polygon fill="black" stroke="black" points="415.066,-114.646 404.478,-114.276 412.524,-121.168 415.066,-114.646"/>
<text text-anchor="middle" x="501.5" y="-144.8" font-family="Times,serif" font-size="14.00">0.002</text>
</g>
<!-- Use&#45;&gt;SA -->
<g id="edge34" class="edge"><title>Use&#45;&gt;SA</title>
<path fill="none" stroke="black" d="M569.811,-203.907C580.23,-209.929 592.295,-218.182 601,-228 607.201,-234.994 612.275,-243.802 616.192,-252.07"/>
<polygon fill="black" stroke="black" points="613.05,-253.621 620.257,-261.386 619.466,-250.821 613.05,-253.621"/>
<text text-anchor="middle" x="632.5" y="-231.8" font-family="Times,serif" font-size="14.00">0.002</text>
</g>
<!-- ENJ&#45;&gt;BI -->
<g id="edge3" class="edge"><title>ENJ&#45;&gt;BI</title>
<path fill="none" stroke="black" d="M542.035,-463.914C535.872,-466.342 529.224,-468.856 523,-471 496.274,-480.205 483.715,-470.904 462,-489 399.768,-540.861 373.257,-638.468 363.663,-685.838"/>
<polygon fill="black" stroke="black" points="360.17,-685.467 361.72,-695.947 367.044,-686.788 360.17,-685.467"/>
<text text-anchor="middle" x="419.5" y="-579.8" font-family="Times,serif" font-size="14.00">0.006</text>
</g>
<!-- ENJ&#45;&gt;SA -->
<g id="edge35" class="edge"><title>ENJ&#45;&gt;SA</title>
<path fill="none" stroke="black" d="M576.655,-436.18C585.209,-422.806 596.92,-402.866 604,-384 613.486,-358.724 619.314,-328.376 622.568,-307.006"/>
<polygon fill="black" stroke="black" points="626.046,-307.406 624.002,-297.011 619.117,-306.412 626.046,-307.406"/>
<text text-anchor="middle" x="635.5" y="-362.3" font-family="Times,serif" font-size="14.00">0.002</text>
</g>
<!-- Qu -->
<g id="node8" class="node"><title>Qu</title>
<ellipse fill="none" stroke="black" cx="448" cy="-366" rx="27" ry="18"/>
<text text-anchor="middle" x="448" y="-362.3" font-family="Times,serif" font-size="14.00">Qu</text>
</g>
<!-- ENJ&#45;&gt;Qu -->
<g id="edge24" class="edge"><title>ENJ&#45;&gt;Qu</title>
<path fill="none" stroke="black" d="M541.145,-442.528C521.467,-434.749 495.869,-423.922 487,-417 477.924,-409.917 469.755,-400.277 463.267,-391.351"/>
<polygon fill="black" stroke="black" points="466.146,-389.361 457.586,-383.118 460.385,-393.337 466.146,-389.361"/>
<text text-anchor="middle" x="507.5" y="-405.8" font-family="Times,serif" font-size="14.00">0.003</text>
</g>
<!-- PEU -->
<g id="node10" class="node"><title>PEU</title>
<ellipse fill="none" stroke="black" cx="570" cy="-540" rx="31.3957" ry="18"/>
<text text-anchor="middle" x="570" y="-536.3" font-family="Times,serif" font-size="14.00">PEU</text>
</g>
<!-- ENJ&#45;&gt;PEU -->
<g id="edge16" class="edge"><title>ENJ&#45;&gt;PEU</title>
<path fill="none" stroke="black" d="M540.767,-462.831C520.301,-471.517 496.446,-486.063 507,-504 512.987,-514.176 523.12,-521.605 533.529,-526.93"/>
<polygon fill="black" stroke="black" points="532.098,-530.125 542.65,-531.084 535,-523.754 532.098,-530.125"/>
<text text-anchor="middle" x="527.5" y="-492.8" font-family="Times,serif" font-size="14.00">0.003</text>
</g>
<!-- Im&#45;&gt;PU -->
<g id="edge7" class="edge"><title>Im&#45;&gt;PU</title>
<path fill="none" stroke="black" d="M609.129,-642.203C594.874,-655.875 572.807,-677.189 554,-696 523.778,-726.229 523.805,-743.262 487,-765 458.718,-781.704 422.237,-790.658 395.461,-795.314"/>
<polygon fill="black" stroke="black" points="394.666,-791.897 385.353,-796.948 395.783,-798.807 394.666,-791.897"/>
<text text-anchor="middle" x="574.5" y="-710.3" font-family="Times,serif" font-size="14.00">0.005</text>
</g>
<!-- Im&#45;&gt;Use -->
<g id="edge4" class="edge"><title>Im&#45;&gt;Use</title>
<path fill="none" stroke="black" d="M651.132,-626.892C686.774,-626.71 749.776,-621.586 792,-591 852.29,-547.328 864.159,-508.604 853,-435 844.414,-378.369 846.832,-355.169 806,-315 751.334,-261.222 727.032,-259.241 657,-228 633.339,-217.445 605.512,-208.564 583.897,-202.389"/>
<polygon fill="black" stroke="black" points="584.709,-198.982 574.136,-199.663 582.826,-205.724 584.709,-198.982"/>
<text text-anchor="middle" x="871.5" y="-405.8" font-family="Times,serif" font-size="14.00">0.006</text>
</g>
<!-- Im&#45;&gt;ENJ -->
<g id="edge27" class="edge"><title>Im&#45;&gt;ENJ</title>
<path fill="none" stroke="black" d="M631.459,-609.605C633.708,-603.847 635.876,-597.252 637,-591 643.756,-553.405 622.163,-500.941 614,-489 609.335,-482.175 602.885,-476.193 596.226,-471.195"/>
<polygon fill="black" stroke="black" points="598.021,-468.181 587.798,-465.4 594.055,-473.95 598.021,-468.181"/>
<text text-anchor="middle" x="657.5" y="-536.3" font-family="Times,serif" font-size="14.00">0.003</text>
</g>
<!-- Im&#45;&gt;SA -->
<g id="edge32" class="edge"><title>Im&#45;&gt;SA</title>
<path fill="none" stroke="black" d="M637.047,-610.999C648.9,-597.302 666.802,-576.439 682,-558 701.513,-534.326 713.078,-532.268 725,-504 740.146,-468.089 733.551,-455.897 736,-417 738.368,-379.4 728.119,-316.412 727,-315 711.676,-295.664 685.03,-286.972 662.953,-283.083"/>
<polygon fill="black" stroke="black" points="663.279,-279.593 652.871,-281.574 662.243,-286.516 663.279,-279.593"/>
<text text-anchor="middle" x="756.5" y="-449.3" font-family="Times,serif" font-size="14.00">0.002</text>
</g>
<!-- Im&#45;&gt;JR -->
<g id="edge42" class="edge"><title>Im&#45;&gt;JR</title>
<path fill="none" stroke="black" d="M650.754,-624.565C727.179,-619.743 941,-600.899 941,-541 941,-541 941,-541 941,-104 941,-81.7072 929.597,-58.9879 918.967,-42.6528"/>
<polygon fill="black" stroke="black" points="921.763,-40.542 913.219,-34.2779 915.992,-44.5033 921.763,-40.542"/>
<text text-anchor="middle" x="961.5" y="-318.8" font-family="Times,serif" font-size="14.00">0.002</text>
</g>
<!-- Im&#45;&gt;PEU -->
<g id="edge12" class="edge"><title>Im&#45;&gt;PEU</title>
<path fill="none" stroke="black" d="M597.227,-623.822C575.635,-620.493 546.551,-612.104 532,-591 524.849,-580.628 531.895,-569.433 541.778,-560.271"/>
<polygon fill="black" stroke="black" points="544.233,-562.782 549.701,-553.708 539.768,-557.392 544.233,-562.782"/>
<text text-anchor="middle" x="552.5" y="-579.8" font-family="Times,serif" font-size="14.00">0.003</text>
</g>
<!-- Pf&#45;&gt;PU -->
<g id="edge8" class="edge"><title>Pf&#45;&gt;PU</title>
<path fill="none" stroke="black" d="M354.46,-109.35C290.482,-118.164 133,-144.575 133,-191 133,-715 133,-715 133,-715 133,-755.106 259.263,-782.746 323.037,-794.148"/>
<polygon fill="black" stroke="black" points="322.622,-797.629 333.075,-795.901 323.826,-790.733 322.622,-797.629"/>
<text text-anchor="middle" x="153.5" y="-449.3" font-family="Times,serif" font-size="14.00">0.005</text>
</g>
<!-- Pf&#45;&gt;Use -->
<g id="edge5" class="edge"><title>Pf&#45;&gt;Use</title>
<path fill="none" stroke="black" d="M408.226,-105.65C439.991,-106.662 492.43,-112.921 526,-141 533.111,-146.948 537.999,-155.643 541.325,-164.121"/>
<polygon fill="black" stroke="black" points="538.067,-165.416 544.551,-173.795 544.708,-163.202 538.067,-165.416"/>
<text text-anchor="middle" x="557.5" y="-144.8" font-family="Times,serif" font-size="14.00">0.006</text>
</g>
<!-- Pf&#45;&gt;ENJ -->
<g id="edge28" class="edge"><title>Pf&#45;&gt;ENJ</title>
<path fill="none" stroke="black" d="M389.576,-122.184C401.497,-145.186 423.167,-188.891 437,-228 452.6,-272.105 438.313,-290.261 463,-330 469.487,-340.442 475.417,-339.2 484,-348 505.616,-370.162 508.853,-377.673 528,-402 534.606,-410.394 541.721,-419.686 547.988,-427.959"/>
<polygon fill="black" stroke="black" points="545.338,-430.257 554.155,-436.132 550.926,-426.041 545.338,-430.257"/>
<text text-anchor="middle" x="469.5" y="-275.3" font-family="Times,serif" font-size="14.00">0.003</text>
</g>
<!-- Pf&#45;&gt;Im -->
<g id="edge20" class="edge"><title>Pf&#45;&gt;Im</title>
<path fill="none" stroke="black" d="M364.513,-119.472C347.679,-134.847 324,-161.683 324,-191 324,-323.5 324,-323.5 324,-323.5 324,-472.479 402.172,-508.167 526,-591 545.053,-603.745 569.294,-612.455 588.899,-617.998"/>
<polygon fill="black" stroke="black" points="588.112,-621.41 598.677,-620.612 589.92,-614.648 588.112,-621.41"/>
<text text-anchor="middle" x="349.5" y="-362.3" font-family="Times,serif" font-size="14.00">0.003</text>
</g>
<!-- Pf&#45;&gt;JR -->
<g id="edge43" class="edge"><title>Pf&#45;&gt;JR</title>
<path fill="none" stroke="black" d="M407.143,-99.7266C492.986,-85.6945 766.359,-41.0086 865.04,-24.8782"/>
<polygon fill="black" stroke="black" points="865.809,-28.299 875.113,-23.2315 864.679,-21.3906 865.809,-28.299"/>
<text text-anchor="middle" x="693.5" y="-57.8" font-family="Times,serif" font-size="14.00">0.002</text>
</g>
<!-- Pf&#45;&gt;PEU -->
<g id="edge13" class="edge"><title>Pf&#45;&gt;PEU</title>
<path fill="none" stroke="black" d="M377.703,-122.962C370.993,-160.873 357.999,-255.032 378,-330 388.647,-369.909 437.821,-468.134 486,-504 499.93,-514.37 517.384,-522.288 532.768,-527.947"/>
<polygon fill="black" stroke="black" points="531.926,-531.36 542.521,-531.343 534.228,-524.749 531.926,-531.36"/>
<text text-anchor="middle" x="398.5" y="-318.8" font-family="Times,serif" font-size="14.00">0.003</text>
</g>
<!-- SA&#45;&gt;Use -->
<g id="edge6" class="edge"><title>SA&#45;&gt;Use</title>
<path fill="none" stroke="black" d="M601.929,-270.844C587.708,-265.414 570.488,-256.531 560,-243 554.981,-236.524 552.018,-228.265 550.282,-220.333"/>
<polygon fill="black" stroke="black" points="553.705,-219.577 548.638,-210.273 546.797,-220.707 553.705,-219.577"/>
<text text-anchor="middle" x="580.5" y="-231.8" font-family="Times,serif" font-size="14.00">0.006</text>
</g>
<!-- SA&#45;&gt;ENJ -->
<g id="edge29" class="edge"><title>SA&#45;&gt;ENJ</title>
<path fill="none" stroke="black" d="M615.37,-295.747C608.026,-306.058 597.687,-319.514 587,-330 577.483,-339.338 568.963,-336.074 563,-348 550.99,-372.02 553.942,-403.217 558.527,-425.153"/>
<polygon fill="black" stroke="black" points="555.169,-426.164 560.851,-435.106 561.986,-424.572 555.169,-426.164"/>
<text text-anchor="middle" x="583.5" y="-362.3" font-family="Times,serif" font-size="14.00">0.003</text>
</g>
<!-- SA&#45;&gt;Im -->
<g id="edge21" class="edge"><title>SA&#45;&gt;Im</title>
<path fill="none" stroke="black" d="M652.793,-282.255C693.321,-286.244 767.372,-295.98 785,-315 832.409,-366.153 810.792,-401.813 802,-471 795.056,-525.645 810.32,-552.423 771,-591 755.552,-606.156 698.958,-616.314 660.67,-621.621"/>
<polygon fill="black" stroke="black" points="659.856,-618.199 650.406,-622.99 660.781,-625.137 659.856,-618.199"/>
<text text-anchor="middle" x="828.5" y="-449.3" font-family="Times,serif" font-size="14.00">0.003</text>
</g>
<!-- SA&#45;&gt;Qu -->
<g id="edge23" class="edge"><title>SA&#45;&gt;Qu</title>
<path fill="none" stroke="black" d="M599.891,-284.035C563.788,-289.998 500.926,-301.884 482,-315 473.163,-321.124 465.955,-330.351 460.487,-339.218"/>
<polygon fill="black" stroke="black" points="457.294,-337.755 455.423,-348.183 463.388,-341.198 457.294,-337.755"/>
<text text-anchor="middle" x="502.5" y="-318.8" font-family="Times,serif" font-size="14.00">0.003</text>
</g>
<!-- SA&#45;&gt;PEU -->
<g id="edge15" class="edge"><title>SA&#45;&gt;PEU</title>
<path fill="none" stroke="black" d="M652.209,-283.378C671.499,-287.387 696.462,-296.106 709,-315 725.956,-340.552 720.736,-355.668 709,-384 704.67,-394.453 697.615,-392.822 691,-402 661.364,-443.117 675.839,-468.161 640,-504 630.448,-513.552 617.757,-520.964 605.807,-526.457"/>
<polygon fill="black" stroke="black" points="604.274,-523.305 596.455,-530.455 607.026,-529.742 604.274,-523.305"/>
<text text-anchor="middle" x="711.5" y="-405.8" font-family="Times,serif" font-size="14.00">0.003</text>
</g>
<!-- Qu&#45;&gt;PU -->
<g id="edge9" class="edge"><title>Qu&#45;&gt;PU</title>
<path fill="none" stroke="black" d="M432.67,-381.182C386.499,-424.065 251.298,-550.969 241,-576 208.805,-654.257 291.766,-741.492 334.891,-779.945"/>
<polygon fill="black" stroke="black" points="332.61,-782.6 342.443,-786.544 337.216,-777.328 332.61,-782.6"/>
<text text-anchor="middle" x="261.5" y="-579.8" font-family="Times,serif" font-size="14.00">0.005</text>
</g>
<!-- Qu&#45;&gt;Pf -->
<g id="edge38" class="edge"><title>Qu&#45;&gt;Pf</title>
<path fill="none" stroke="black" d="M439.148,-348.58C427.227,-325.654 406.319,-282.425 396,-243 386.266,-205.809 382.842,-161.336 381.642,-133.372"/>
<polygon fill="black" stroke="black" points="385.132,-133.03 381.272,-123.164 378.136,-133.284 385.132,-133.03"/>
<text text-anchor="middle" x="416.5" y="-231.8" font-family="Times,serif" font-size="14.00">0.002</text>
</g>
<!-- Qu&#45;&gt;SA -->
<g id="edge33" class="edge"><title>Qu&#45;&gt;SA</title>
<path fill="none" stroke="black" d="M470.398,-355.542C485.524,-348.914 505.793,-339.563 523,-330 533.667,-324.071 535.262,-320.799 546,-315 561.319,-306.727 578.994,-298.833 593.827,-292.643"/>
<polygon fill="black" stroke="black" points="595.188,-295.868 603.112,-288.834 592.531,-289.392 595.188,-295.868"/>
<text text-anchor="middle" x="566.5" y="-318.8" font-family="Times,serif" font-size="14.00">0.002</text>
</g>
<!-- Qu&#45;&gt;PEU -->
<g id="edge14" class="edge"><title>Qu&#45;&gt;PEU</title>
<path fill="none" stroke="black" d="M450.285,-383.988C454.935,-412.336 468.008,-469.564 501,-504 510.166,-513.566 522.511,-520.957 534.226,-526.428"/>
<polygon fill="black" stroke="black" points="532.845,-529.644 543.412,-530.409 535.628,-523.221 532.845,-529.644"/>
<text text-anchor="middle" x="498.5" y="-449.3" font-family="Times,serif" font-size="14.00">0.003</text>
</g>
<!-- JR&#45;&gt;PU -->
<g id="edge11" class="edge"><title>JR&#45;&gt;PU</title>
<path fill="none" stroke="black" d="M928.243,-19.0051C981.443,-20.5968 1094,-32.4224 1094,-104 1094,-715 1094,-715 1094,-715 1094,-786.033 545.289,-797.773 396.071,-799.653"/>
<polygon fill="black" stroke="black" points="395.989,-796.153 386.031,-799.772 396.072,-803.153 395.989,-796.153"/>
<text text-anchor="middle" x="1114.5" y="-405.8" font-family="Times,serif" font-size="14.00">0.005</text>
</g>
<!-- JR&#45;&gt;Im -->
<g id="edge22" class="edge"><title>JR&#45;&gt;Im</title>
<path fill="none" stroke="black" d="M925.885,-25.2288C959.97,-35.4262 1017,-59.1846 1017,-104 1017,-323.5 1017,-323.5 1017,-323.5 1017,-384.52 1000.71,-550.572 955,-591 933.334,-610.164 743.081,-620.761 661.206,-624.469"/>
<polygon fill="black" stroke="black" points="660.923,-620.978 651.087,-624.917 661.232,-627.971 660.923,-620.978"/>
<text text-anchor="middle" x="1037.5" y="-318.8" font-family="Times,serif" font-size="14.00">0.003</text>
</g>
<!-- PEU&#45;&gt;ENJ -->
<g id="edge26" class="edge"><title>PEU&#45;&gt;ENJ</title>
<path fill="none" stroke="black" d="M569.191,-521.799C568.643,-510.163 567.908,-494.548 567.282,-481.237"/>
<polygon fill="black" stroke="black" points="570.775,-481 566.808,-471.175 563.782,-481.329 570.775,-481"/>
<text text-anchor="middle" x="589.5" y="-492.8" font-family="Times,serif" font-size="14.00">0.003</text>
</g>
<!-- PEU&#45;&gt;Im -->
<g id="edge18" class="edge"><title>PEU&#45;&gt;Im</title>
<path fill="none" stroke="black" d="M577.652,-557.668C582.464,-567.614 589.06,-580.341 596,-591 598.672,-595.104 601.723,-599.306 604.804,-603.309"/>
<polygon fill="black" stroke="black" points="602.089,-605.518 611.062,-611.152 607.561,-601.152 602.089,-605.518"/>
<text text-anchor="middle" x="616.5" y="-579.8" font-family="Times,serif" font-size="14.00">0.003</text>
</g>
<!-- PEU&#45;&gt;SA -->
<g id="edge31" class="edge"><title>PEU&#45;&gt;SA</title>
<path fill="none" stroke="black" d="M590.438,-526.15C598.247,-520.283 606.57,-512.695 612,-504 636.722,-464.41 611.673,-441.206 637,-402 644.044,-391.097 654.315,-395.669 660,-384 672.813,-357.702 657.907,-325.408 643.994,-303.849"/>
<polygon fill="black" stroke="black" points="646.701,-301.607 638.176,-295.316 640.917,-305.55 646.701,-301.607"/>
<text text-anchor="middle" x="657.5" y="-405.8" font-family="Times,serif" font-size="14.00">0.002</text>
</g>
<!-- PEU&#45;&gt;JR -->
<g id="edge41" class="edge"><title>PEU&#45;&gt;JR</title>
<path fill="none" stroke="black" d="M596.8,-530.399C619.657,-522.757 650.444,-511.644 661,-504 716.264,-463.981 861,-256.273 861,-236.5 861,-236.5 861,-236.5 861,-104 861,-81.7072 872.403,-58.9879 883.033,-42.6528"/>
<polygon fill="black" stroke="black" points="886.008,-44.5033 888.781,-34.2779 880.237,-40.542 886.008,-44.5033"/>
<text text-anchor="middle" x="870.5" y="-275.3" font-family="Times,serif" font-size="14.00">0.002</text>
</g>
</g>
</svg>
