<?xml version="1.0" encoding="UTF-8" standalone="no"?>
<!DOCTYPE svg PUBLIC "-//W3C//DTD SVG 1.1//EN"
 "http://www.w3.org/Graphics/SVG/1.1/DTD/svg11.dtd">
<!-- Generated by graphviz version 2.38.0 (20140413.2041)
 -->
<!-- Title: G Pages: 1 -->
<svg width="327pt" height="392pt"
 viewBox="0.00 0.00 326.60 392.00" xmlns="http://www.w3.org/2000/svg" xmlns:xlink="http://www.w3.org/1999/xlink">
<g id="graph0" class="graph" transform="scale(1 1) rotate(0) translate(4 388)">
<title>G</title>
<polygon fill="white" stroke="none" points="-4,4 -4,-388 322.597,-388 322.597,4 -4,4"/>
<!-- Qu -->
<g id="node1" class="node"><title>Qu</title>
<ellipse fill="none" stroke="black" cx="30.5975" cy="-366" rx="27" ry="18"/>
<text text-anchor="middle" x="30.5975" y="-362.3" font-family="Times,serif" font-size="14.00">Qu</text>
</g>
<!-- BI -->
<g id="node2" class="node"><title>BI</title>
<ellipse fill="none" stroke="black" cx="28.5975" cy="-279" rx="27" ry="18"/>
<text text-anchor="middle" x="28.5975" y="-275.3" font-family="Times,serif" font-size="14.00">BI</text>
</g>
<!-- Qu&#45;&gt;BI -->
<g id="edge1" class="edge"><title>Qu&#45;&gt;BI</title>
<path fill="none" stroke="black" d="M16.0687,-350.625C11.1116,-344.747 6.1727,-337.554 3.59746,-330 0.46992,-320.825 3.58788,-311.199 8.55418,-302.87"/>
<polygon fill="black" stroke="black" points="11.5979,-304.625 14.4605,-294.424 5.86142,-300.613 11.5979,-304.625"/>
<text text-anchor="middle" x="19.5975" y="-318.8" font-family="Times,serif" font-size="14.00">0.06</text>
</g>
<!-- BI&#45;&gt;Qu -->
<g id="edge6" class="edge"><title>BI&#45;&gt;Qu</title>
<path fill="none" stroke="black" d="M32.6957,-296.988C33.8804,-302.678 35.0113,-309.08 35.5975,-315 36.3337,-322.435 36.0177,-330.491 35.2712,-337.92"/>
<polygon fill="black" stroke="black" points="31.795,-337.512 33.994,-347.876 38.7381,-338.403 31.795,-337.512"/>
<text text-anchor="middle" x="57.0975" y="-318.8" font-family="Times,serif" font-size="14.00">0.026</text>
</g>
<!-- Use -->
<g id="node3" class="node"><title>Use</title>
<ellipse fill="none" stroke="black" cx="28.5975" cy="-192" rx="28.6953" ry="18"/>
<text text-anchor="middle" x="28.5975" y="-188.3" font-family="Times,serif" font-size="14.00">Use</text>
</g>
<!-- BI&#45;&gt;Use -->
<g id="edge2" class="edge"><title>BI&#45;&gt;Use</title>
<path fill="none" stroke="black" d="M28.5975,-260.799C28.5975,-249.163 28.5975,-233.548 28.5975,-220.237"/>
<polygon fill="black" stroke="black" points="32.0976,-220.175 28.5975,-210.175 25.0976,-220.175 32.0976,-220.175"/>
<text text-anchor="middle" x="49.0975" y="-231.8" font-family="Times,serif" font-size="14.00">0.055</text>
</g>
<!-- PEU -->
<g id="node4" class="node"><title>PEU</title>
<ellipse fill="none" stroke="black" cx="277.597" cy="-105" rx="31.3957" ry="18"/>
<text text-anchor="middle" x="277.597" y="-101.3" font-family="Times,serif" font-size="14.00">PEU</text>
</g>
<!-- PU -->
<g id="node5" class="node"><title>PU</title>
<ellipse fill="none" stroke="black" cx="277.597" cy="-18" rx="27" ry="18"/>
<text text-anchor="middle" x="277.597" y="-14.3" font-family="Times,serif" font-size="14.00">PU</text>
</g>
<!-- PEU&#45;&gt;PU -->
<g id="edge3" class="edge"><title>PEU&#45;&gt;PU</title>
<path fill="none" stroke="black" d="M277.597,-86.799C277.597,-75.1626 277.597,-59.5479 277.597,-46.2368"/>
<polygon fill="black" stroke="black" points="281.098,-46.1754 277.597,-36.1754 274.098,-46.1755 281.098,-46.1754"/>
<text text-anchor="middle" x="298.097" y="-57.8" font-family="Times,serif" font-size="14.00">0.044</text>
</g>
<!-- JR -->
<g id="node6" class="node"><title>JR</title>
<ellipse fill="none" stroke="black" cx="277.597" cy="-192" rx="27" ry="18"/>
<text text-anchor="middle" x="277.597" y="-188.3" font-family="Times,serif" font-size="14.00">JR</text>
</g>
<!-- JR&#45;&gt;PEU -->
<g id="edge4" class="edge"><title>JR&#45;&gt;PEU</title>
<path fill="none" stroke="black" d="M277.597,-173.799C277.597,-162.163 277.597,-146.548 277.597,-133.237"/>
<polygon fill="black" stroke="black" points="281.098,-133.175 277.597,-123.175 274.098,-133.175 281.098,-133.175"/>
<text text-anchor="middle" x="298.097" y="-144.8" font-family="Times,serif" font-size="14.00">0.032</text>
</g>
<!-- Pf -->
<g id="node7" class="node"><title>Pf</title>
<ellipse fill="none" stroke="black" cx="146.597" cy="-192" rx="27" ry="18"/>
<text text-anchor="middle" x="146.597" y="-188.3" font-family="Times,serif" font-size="14.00">Pf</text>
</g>
<!-- Im -->
<g id="node8" class="node"><title>Im</title>
<ellipse fill="none" stroke="black" cx="202.597" cy="-366" rx="27" ry="18"/>
<text text-anchor="middle" x="202.597" y="-362.3" font-family="Times,serif" font-size="14.00">Im</text>
</g>
<!-- Pf&#45;&gt;Im -->
<g id="edge5" class="edge"><title>Pf&#45;&gt;Im</title>
<path fill="none" stroke="black" d="M137.458,-209.183C126.857,-230.238 112.42,-267.783 125.597,-297 135.401,-318.736 155.965,-336.315 173.378,-348.151"/>
<polygon fill="black" stroke="black" points="171.825,-351.315 182.122,-353.809 175.628,-345.438 171.825,-351.315"/>
<text text-anchor="middle" x="146.097" y="-275.3" font-family="Times,serif" font-size="14.00">0.027</text>
</g>
<!-- ENJ -->
<g id="node9" class="node"><title>ENJ</title>
<ellipse fill="none" stroke="black" cx="277.597" cy="-279" rx="29.795" ry="18"/>
<text text-anchor="middle" x="277.597" y="-275.3" font-family="Times,serif" font-size="14.00">ENJ</text>
</g>
<!-- Im&#45;&gt;ENJ -->
<g id="edge7" class="edge"><title>Im&#45;&gt;ENJ</title>
<path fill="none" stroke="black" d="M218.123,-350.799C224.649,-344.605 232.196,-337.139 238.597,-330 245.984,-321.762 253.581,-312.287 260.086,-303.815"/>
<polygon fill="black" stroke="black" points="262.937,-305.847 266.177,-295.76 257.354,-301.625 262.937,-305.847"/>
<text text-anchor="middle" x="272.097" y="-318.8" font-family="Times,serif" font-size="14.00">0.022</text>
</g>
<!-- SA -->
<g id="node10" class="node"><title>SA</title>
<ellipse fill="none" stroke="black" cx="202.597" cy="-279" rx="27" ry="18"/>
<text text-anchor="middle" x="202.597" y="-275.3" font-family="Times,serif" font-size="14.00">SA</text>
</g>
<!-- Im&#45;&gt;SA -->
<g id="edge8" class="edge"><title>Im&#45;&gt;SA</title>
<path fill="none" stroke="black" d="M202.597,-347.799C202.597,-336.163 202.597,-320.548 202.597,-307.237"/>
<polygon fill="black" stroke="black" points="206.098,-307.175 202.597,-297.175 199.098,-307.175 206.098,-307.175"/>
<text text-anchor="middle" x="218.597" y="-318.8" font-family="Times,serif" font-size="14.00">0.02</text>
</g>
<!-- ENJ&#45;&gt;JR -->
<g id="edge10" class="edge"><title>ENJ&#45;&gt;JR</title>
<path fill="none" stroke="black" d="M277.597,-260.799C277.597,-249.163 277.597,-233.548 277.597,-220.237"/>
<polygon fill="black" stroke="black" points="281.098,-220.175 277.597,-210.175 274.098,-220.175 281.098,-220.175"/>
<text text-anchor="middle" x="298.097" y="-231.8" font-family="Times,serif" font-size="14.00">0.012</text>
</g>
<!-- SA&#45;&gt;Pf -->
<g id="edge9" class="edge"><title>SA&#45;&gt;Pf</title>
<path fill="none" stroke="black" d="M192.064,-262.012C183.773,-249.427 172.08,-231.679 162.628,-217.333"/>
<polygon fill="black" stroke="black" points="165.508,-215.341 157.083,-208.916 159.662,-219.192 165.508,-215.341"/>
<text text-anchor="middle" x="199.097" y="-231.8" font-family="Times,serif" font-size="14.00">0.014</text>
</g>
</g>
</svg>
