<?xml version="1.0" encoding="UTF-8" standalone="no"?>
<!DOCTYPE svg PUBLIC "-//W3C//DTD SVG 1.1//EN"
 "http://www.w3.org/Graphics/SVG/1.1/DTD/svg11.dtd">
<!-- Generated by graphviz version 2.38.0 (20140413.2041)
 -->
<!-- Title: G Pages: 1 -->
<svg width="230pt" height="740pt"
 viewBox="0.00 0.00 230.00 740.00" xmlns="http://www.w3.org/2000/svg" xmlns:xlink="http://www.w3.org/1999/xlink">
<g id="graph0" class="graph" transform="scale(1 1) rotate(0) translate(4 736)">
<title>G</title>
<polygon fill="white" stroke="none" points="-4,4 -4,-736 226,-736 226,4 -4,4"/>
<!-- Use -->
<g id="node1" class="node"><title>Use</title>
<ellipse fill="none" stroke="black" cx="89" cy="-714" rx="27" ry="18"/>
<text text-anchor="middle" x="89" y="-710.3" font-family="Times,serif" font-size="14.00">Use</text>
</g>
<!-- PU -->
<g id="node2" class="node"><title>PU</title>
<ellipse fill="none" stroke="black" cx="50" cy="-627" rx="27" ry="18"/>
<text text-anchor="middle" x="50" y="-623.3" font-family="Times,serif" font-size="14.00">PU</text>
</g>
<!-- Use&#45;&gt;PU -->
<g id="edge1" class="edge"><title>Use&#45;&gt;PU</title>
<path fill="none" stroke="black" d="M78.7083,-697.331C75.0613,-691.413 71.0982,-684.53 68,-678 64.4804,-670.582 61.2325,-662.278 58.4927,-654.601"/>
<polygon fill="black" stroke="black" points="61.755,-653.324 55.2036,-644.998 55.1327,-655.593 61.755,-653.324"/>
<text text-anchor="middle" x="83.5" y="-666.8" font-family="Times,serif" font-size="14.00">0.411</text>
</g>
<!-- BI -->
<g id="node3" class="node"><title>BI</title>
<ellipse fill="none" stroke="black" cx="86" cy="-540" rx="27" ry="18"/>
<text text-anchor="middle" x="86" y="-536.3" font-family="Times,serif" font-size="14.00">BI</text>
</g>
<!-- PU&#45;&gt;BI -->
<g id="edge3" class="edge"><title>PU&#45;&gt;BI</title>
<path fill="none" stroke="black" d="M55.4673,-609.122C58.7897,-599.329 63.2897,-586.829 68,-576 69.4053,-572.769 70.9747,-569.42 72.5852,-566.131"/>
<polygon fill="black" stroke="black" points="75.728,-567.672 77.1301,-557.17 69.4851,-564.506 75.728,-567.672"/>
<text text-anchor="middle" x="83.5" y="-579.8" font-family="Times,serif" font-size="14.00">0.291</text>
</g>
<!-- BI&#45;&gt;Use -->
<g id="edge2" class="edge"><title>BI&#45;&gt;Use</title>
<path fill="none" stroke="black" d="M93.4593,-557.395C95.7079,-563.153 97.8764,-569.748 99,-576 107.019,-620.619 105.288,-633.105 99,-678 98.6187,-680.722 98.0783,-683.53 97.4438,-686.316"/>
<polygon fill="black" stroke="black" points="94.0254,-685.552 94.8498,-696.115 100.792,-687.344 94.0254,-685.552"/>
<text text-anchor="middle" x="119.5" y="-623.3" font-family="Times,serif" font-size="14.00">0.342</text>
</g>
<!-- Im -->
<g id="node6" class="node"><title>Im</title>
<ellipse fill="none" stroke="black" cx="83" cy="-192" rx="27" ry="18"/>
<text text-anchor="middle" x="83" y="-188.3" font-family="Times,serif" font-size="14.00">Im</text>
</g>
<!-- BI&#45;&gt;Im -->
<g id="edge5" class="edge"><title>BI&#45;&gt;Im</title>
<path fill="none" stroke="black" d="M64.2986,-529.213C38.8218,-516.066 0,-490.107 0,-454 0,-454 0,-454 0,-278 0,-246.726 29.118,-222.679 52.8609,-208.27"/>
<polygon fill="black" stroke="black" points="54.7051,-211.247 61.6254,-203.225 51.2127,-205.181 54.7051,-211.247"/>
<text text-anchor="middle" x="15.5" y="-362.3" font-family="Times,serif" font-size="14.00">0.133</text>
</g>
<!-- Pf -->
<g id="node8" class="node"><title>Pf</title>
<ellipse fill="none" stroke="black" cx="55" cy="-453" rx="27" ry="18"/>
<text text-anchor="middle" x="55" y="-449.3" font-family="Times,serif" font-size="14.00">Pf</text>
</g>
<!-- BI&#45;&gt;Pf -->
<g id="edge7" class="edge"><title>BI&#45;&gt;Pf</title>
<path fill="none" stroke="black" d="M79.7499,-522.278C77.5982,-516.493 75.1818,-509.966 73,-504 70.1798,-496.288 67.145,-487.896 64.3856,-480.227"/>
<polygon fill="black" stroke="black" points="67.6318,-478.911 60.958,-470.682 61.0436,-481.276 67.6318,-478.911"/>
<text text-anchor="middle" x="88.5" y="-492.8" font-family="Times,serif" font-size="14.00">0.077</text>
</g>
<!-- SA -->
<g id="node9" class="node"><title>SA</title>
<ellipse fill="none" stroke="black" cx="129" cy="-366" rx="27" ry="18"/>
<text text-anchor="middle" x="129" y="-362.3" font-family="Times,serif" font-size="14.00">SA</text>
</g>
<!-- BI&#45;&gt;SA -->
<g id="edge11" class="edge"><title>BI&#45;&gt;SA</title>
<path fill="none" stroke="black" d="M95.4556,-523.056C98.5726,-517.225 101.8,-510.469 104,-504 116.505,-467.221 123.161,-422.643 126.384,-394.543"/>
<polygon fill="black" stroke="black" points="129.898,-394.599 127.492,-384.281 122.939,-393.848 129.898,-394.599"/>
<text text-anchor="middle" x="135.5" y="-449.3" font-family="Times,serif" font-size="14.00">0.054</text>
</g>
<!-- JR -->
<g id="node10" class="node"><title>JR</title>
<ellipse fill="none" stroke="black" cx="194" cy="-453" rx="27" ry="18"/>
<text text-anchor="middle" x="194" y="-449.3" font-family="Times,serif" font-size="14.00">JR</text>
</g>
<!-- BI&#45;&gt;JR -->
<g id="edge14" class="edge"><title>BI&#45;&gt;JR</title>
<path fill="none" stroke="black" d="M103.564,-525.819C112.177,-519.309 122.679,-511.302 132,-504 144.526,-494.187 158.318,-483.094 169.707,-473.854"/>
<polygon fill="black" stroke="black" points="171.973,-476.522 177.523,-467.498 167.556,-471.091 171.973,-476.522"/>
<text text-anchor="middle" x="168" y="-492.8" font-family="Times,serif" font-size="14.00">&#45;0.007</text>
</g>
<!-- Qu -->
<g id="node4" class="node"><title>Qu</title>
<ellipse fill="none" stroke="black" cx="83" cy="-105" rx="27" ry="18"/>
<text text-anchor="middle" x="83" y="-101.3" font-family="Times,serif" font-size="14.00">Qu</text>
</g>
<!-- ENJ -->
<g id="node5" class="node"><title>ENJ</title>
<ellipse fill="none" stroke="black" cx="83" cy="-18" rx="27" ry="18"/>
<text text-anchor="middle" x="83" y="-14.3" font-family="Times,serif" font-size="14.00">ENJ</text>
</g>
<!-- Qu&#45;&gt;ENJ -->
<g id="edge4" class="edge"><title>Qu&#45;&gt;ENJ</title>
<path fill="none" stroke="black" d="M83,-86.799C83,-75.1626 83,-59.5479 83,-46.2368"/>
<polygon fill="black" stroke="black" points="86.5001,-46.1754 83,-36.1754 79.5001,-46.1755 86.5001,-46.1754"/>
<text text-anchor="middle" x="98.5" y="-57.8" font-family="Times,serif" font-size="14.00">0.149</text>
</g>
<!-- Im&#45;&gt;Qu -->
<g id="edge12" class="edge"><title>Im&#45;&gt;Qu</title>
<path fill="none" stroke="black" d="M83,-173.799C83,-162.163 83,-146.548 83,-133.237"/>
<polygon fill="black" stroke="black" points="86.5001,-133.175 83,-123.175 79.5001,-133.175 86.5001,-133.175"/>
<text text-anchor="middle" x="98.5" y="-144.8" font-family="Times,serif" font-size="14.00">0.045</text>
</g>
<!-- Im&#45;&gt;SA -->
<g id="edge9" class="edge"><title>Im&#45;&gt;SA</title>
<path fill="none" stroke="black" d="M74.8653,-209.415C65.6424,-230.397 53.3137,-267.532 65,-297 72.6938,-316.4 88.8338,-333.485 102.98,-345.676"/>
<polygon fill="black" stroke="black" points="101.052,-348.623 110.999,-352.27 105.498,-343.215 101.052,-348.623"/>
<text text-anchor="middle" x="80.5" y="-275.3" font-family="Times,serif" font-size="14.00">0.054</text>
</g>
<!-- Im&#45;&gt;JR -->
<g id="edge13" class="edge"><title>Im&#45;&gt;JR</title>
<path fill="none" stroke="black" d="M105.221,-202.516C117.795,-208.605 133.295,-217.355 145,-228 158.226,-240.028 161.502,-244.345 168,-261 189.588,-316.333 193.74,-386.745 194.255,-424.734"/>
<polygon fill="black" stroke="black" points="190.757,-425.01 194.315,-434.99 197.757,-424.969 190.757,-425.01"/>
<text text-anchor="middle" x="204" y="-318.8" font-family="Times,serif" font-size="14.00">&#45;0.007</text>
</g>
<!-- PEU -->
<g id="node7" class="node"><title>PEU</title>
<ellipse fill="none" stroke="black" cx="132" cy="-279" rx="27.0966" ry="18"/>
<text text-anchor="middle" x="132" y="-275.3" font-family="Times,serif" font-size="14.00">PEU</text>
</g>
<!-- PEU&#45;&gt;Im -->
<g id="edge6" class="edge"><title>PEU&#45;&gt;Im</title>
<path fill="none" stroke="black" d="M122.783,-262.012C115.643,-249.625 105.618,-232.235 97.418,-218.011"/>
<polygon fill="black" stroke="black" points="100.368,-216.121 92.3418,-209.205 94.3039,-219.617 100.368,-216.121"/>
<text text-anchor="middle" x="125.5" y="-231.8" font-family="Times,serif" font-size="14.00">0.133</text>
</g>
<!-- SA&#45;&gt;PEU -->
<g id="edge8" class="edge"><title>SA&#45;&gt;PEU</title>
<path fill="none" stroke="black" d="M129.607,-347.799C130.018,-336.163 130.569,-320.548 131.039,-307.237"/>
<polygon fill="black" stroke="black" points="134.539,-307.293 131.394,-297.175 127.543,-307.046 134.539,-307.293"/>
<text text-anchor="middle" x="142.5" y="-318.8" font-family="Times,serif" font-size="14.00">0.06</text>
</g>
<!-- JR&#45;&gt;SA -->
<g id="edge10" class="edge"><title>JR&#45;&gt;SA</title>
<path fill="none" stroke="black" d="M175.641,-439.57C167.628,-433.471 158.579,-425.59 152,-417 146.548,-409.881 142.002,-401.263 138.431,-393.201"/>
<polygon fill="black" stroke="black" points="141.599,-391.702 134.563,-383.781 135.124,-394.361 141.599,-391.702"/>
<text text-anchor="middle" x="167.5" y="-405.8" font-family="Times,serif" font-size="14.00">0.054</text>
</g>
</g>
</svg>
