<?xml version="1.0" encoding="UTF-8" standalone="no"?>
<!DOCTYPE svg PUBLIC "-//W3C//DTD SVG 1.1//EN"
 "http://www.w3.org/Graphics/SVG/1.1/DTD/svg11.dtd">
<!-- Generated by graphviz version 2.38.0 (20140413.2041)
 -->
<!-- Title: G Pages: 1 -->
<svg width="837pt" height="827pt"
 viewBox="0.00 0.00 837.00 827.00" xmlns="http://www.w3.org/2000/svg" xmlns:xlink="http://www.w3.org/1999/xlink">
<g id="graph0" class="graph" transform="scale(1 1) rotate(0) translate(4 823)">
<title>G</title>
<polygon fill="white" stroke="none" points="-4,4 -4,-823 833,-823 833,4 -4,4"/>
<!-- ENJ -->
<g id="node1" class="node"><title>ENJ</title>
<ellipse fill="none" stroke="black" cx="482" cy="-801" rx="27" ry="18"/>
<text text-anchor="middle" x="482" y="-797.3" font-family="Times,serif" font-size="14.00">ENJ</text>
</g>
<!-- BI -->
<g id="node2" class="node"><title>BI</title>
<ellipse fill="none" stroke="black" cx="304" cy="-714" rx="27" ry="18"/>
<text text-anchor="middle" x="304" y="-710.3" font-family="Times,serif" font-size="14.00">BI</text>
</g>
<!-- ENJ&#45;&gt;BI -->
<g id="edge1" class="edge"><title>ENJ&#45;&gt;BI</title>
<path fill="none" stroke="black" d="M460.529,-789.747C429.038,-774.709 370.185,-746.605 334.303,-729.471"/>
<polygon fill="black" stroke="black" points="335.802,-726.308 325.27,-725.157 332.786,-732.625 335.802,-726.308"/>
<text text-anchor="middle" x="418.5" y="-753.8" font-family="Times,serif" font-size="14.00">0.616</text>
</g>
<!-- PU -->
<g id="node3" class="node"><title>PU</title>
<ellipse fill="none" stroke="black" cx="557" cy="-627" rx="27" ry="18"/>
<text text-anchor="middle" x="557" y="-623.3" font-family="Times,serif" font-size="14.00">PU</text>
</g>
<!-- ENJ&#45;&gt;PU -->
<g id="edge10" class="edge"><title>ENJ&#45;&gt;PU</title>
<path fill="none" stroke="black" d="M507.606,-794.496C526.697,-789.381 552.551,-780.207 571,-765 584.415,-753.942 587.139,-748.691 592,-732 600.073,-704.276 586.317,-672.925 573.751,-651.959"/>
<polygon fill="black" stroke="black" points="576.628,-649.96 568.325,-643.379 570.712,-653.702 576.628,-649.96"/>
<text text-anchor="middle" x="609.5" y="-710.3" font-family="Times,serif" font-size="14.00">0.418</text>
</g>
<!-- BI&#45;&gt;PU -->
<g id="edge13" class="edge"><title>BI&#45;&gt;PU</title>
<path fill="none" stroke="black" d="M324.648,-702C350.742,-688.155 393.209,-665.829 401,-663 440.731,-648.573 488.395,-638.925 520.495,-633.475"/>
<polygon fill="black" stroke="black" points="521.452,-636.865 530.751,-631.787 520.315,-629.958 521.452,-636.865"/>
<text text-anchor="middle" x="416.5" y="-666.8" font-family="Times,serif" font-size="14.00">0.418</text>
</g>
<!-- JR -->
<g id="node4" class="node"><title>JR</title>
<ellipse fill="none" stroke="black" cx="334" cy="-192" rx="27" ry="18"/>
<text text-anchor="middle" x="334" y="-188.3" font-family="Times,serif" font-size="14.00">JR</text>
</g>
<!-- BI&#45;&gt;JR -->
<g id="edge26" class="edge"><title>BI&#45;&gt;JR</title>
<path fill="none" stroke="black" d="M279.587,-706.1C247.181,-695.272 194,-670.959 194,-628 194,-628 194,-628 194,-495.5 194,-429.69 185.429,-410.174 207,-348 222.152,-304.327 236.006,-297.787 264,-261 275.824,-245.462 279.095,-241.707 293,-228 298.105,-222.968 303.825,-217.814 309.336,-213.061"/>
<polygon fill="black" stroke="black" points="311.785,-215.574 317.164,-206.446 307.266,-210.228 311.785,-215.574"/>
<text text-anchor="middle" x="209.5" y="-449.3" font-family="Times,serif" font-size="14.00">0.001</text>
</g>
<!-- Use -->
<g id="node5" class="node"><title>Use</title>
<ellipse fill="none" stroke="black" cx="385" cy="-105" rx="27" ry="18"/>
<text text-anchor="middle" x="385" y="-101.3" font-family="Times,serif" font-size="14.00">Use</text>
</g>
<!-- BI&#45;&gt;Use -->
<g id="edge7" class="edge"><title>BI&#45;&gt;Use</title>
<path fill="none" stroke="black" d="M277.538,-710.098C211.184,-702.091 43,-676.965 43,-628 43,-628 43,-628 43,-495.5 43,-413.526 75.0524,-183.744 145,-141 181.756,-118.539 295.963,-132.401 338,-123 342.827,-121.921 347.834,-120.479 352.702,-118.89"/>
<polygon fill="black" stroke="black" points="354.119,-122.102 362.397,-115.491 351.803,-115.497 354.119,-122.102"/>
<text text-anchor="middle" x="66.5" y="-405.8" font-family="Times,serif" font-size="14.00">0.425</text>
</g>
<!-- Pf -->
<g id="node7" class="node"><title>Pf</title>
<ellipse fill="none" stroke="black" cx="452" cy="-540" rx="27" ry="18"/>
<text text-anchor="middle" x="452" y="-536.3" font-family="Times,serif" font-size="14.00">Pf</text>
</g>
<!-- BI&#45;&gt;Pf -->
<g id="edge31" class="edge"><title>BI&#45;&gt;Pf</title>
<path fill="none" stroke="black" d="M316.875,-698.037C342.788,-667.922 401.385,-599.823 432.204,-564.006"/>
<polygon fill="black" stroke="black" points="435.18,-565.914 439.049,-556.051 429.874,-561.348 435.18,-565.914"/>
<text text-anchor="middle" x="410" y="-623.3" font-family="Times,serif" font-size="14.00">&#45;0.016</text>
</g>
<!-- SA -->
<g id="node8" class="node"><title>SA</title>
<ellipse fill="none" stroke="black" cx="416" cy="-279" rx="27" ry="18"/>
<text text-anchor="middle" x="416" y="-275.3" font-family="Times,serif" font-size="14.00">SA</text>
</g>
<!-- BI&#45;&gt;SA -->
<g id="edge36" class="edge"><title>BI&#45;&gt;SA</title>
<path fill="none" stroke="black" d="M288.974,-698.892C273.93,-683.17 253,-656.223 253,-628 253,-628 253,-628 253,-495.5 253,-467.316 252.621,-455.464 272,-435 287.666,-418.456 300.58,-428.916 320,-417 338.5,-405.648 342.419,-400.931 356,-384 375.77,-359.355 393.162,-327.436 404.062,-305.496"/>
<polygon fill="black" stroke="black" points="407.227,-306.99 408.461,-296.467 400.935,-303.924 407.227,-306.99"/>
<text text-anchor="middle" x="271" y="-492.8" font-family="Times,serif" font-size="14.00">&#45;0.204</text>
</g>
<!-- Qu -->
<g id="node10" class="node"><title>Qu</title>
<ellipse fill="none" stroke="black" cx="308" cy="-453" rx="27" ry="18"/>
<text text-anchor="middle" x="308" y="-449.3" font-family="Times,serif" font-size="14.00">Qu</text>
</g>
<!-- BI&#45;&gt;Qu -->
<g id="edge20" class="edge"><title>BI&#45;&gt;Qu</title>
<path fill="none" stroke="black" d="M304.269,-695.604C304.95,-651.462 306.752,-534.829 307.577,-481.415"/>
<polygon fill="black" stroke="black" points="311.078,-481.373 307.733,-471.32 304.078,-481.265 311.078,-481.373"/>
<text text-anchor="middle" x="321.5" y="-579.8" font-family="Times,serif" font-size="14.00">0.077</text>
</g>
<!-- PU&#45;&gt;ENJ -->
<g id="edge16" class="edge"><title>PU&#45;&gt;ENJ</title>
<path fill="none" stroke="black" d="M549.83,-644.442C536.743,-674.456 508.894,-738.323 493.256,-774.187"/>
<polygon fill="black" stroke="black" points="489.98,-772.942 489.191,-783.508 496.397,-775.74 489.98,-772.942"/>
<text text-anchor="middle" x="541.5" y="-710.3" font-family="Times,serif" font-size="14.00">0.239</text>
</g>
<!-- PU&#45;&gt;BI -->
<g id="edge2" class="edge"><title>PU&#45;&gt;BI</title>
<path fill="none" stroke="black" d="M535.472,-637.915C511.529,-648.702 471.535,-666.006 436,-678 403.874,-688.844 366.446,-698.495 339.666,-704.902"/>
<polygon fill="black" stroke="black" points="338.531,-701.573 329.602,-707.277 340.139,-708.386 338.531,-701.573"/>
<text text-anchor="middle" x="491.5" y="-666.8" font-family="Times,serif" font-size="14.00">0.616</text>
</g>
<!-- PU&#45;&gt;JR -->
<g id="edge29" class="edge"><title>PU&#45;&gt;JR</title>
<path fill="none" stroke="black" d="M567.376,-610.37C571.032,-604.457 574.98,-597.567 578,-591 601.491,-539.925 608.995,-526.492 618,-471 629.237,-401.757 634.751,-372.099 594,-315 540.419,-239.923 428.513,-209.645 370.552,-198.624"/>
<polygon fill="black" stroke="black" points="370.846,-195.12 360.383,-196.783 369.6,-202.008 370.846,-195.12"/>
<text text-anchor="middle" x="641.5" y="-405.8" font-family="Times,serif" font-size="14.00">0.001</text>
</g>
<!-- PU&#45;&gt;Pf -->
<g id="edge33" class="edge"><title>PU&#45;&gt;Pf</title>
<path fill="none" stroke="black" d="M529.839,-625.118C505.356,-622.715 470.583,-614.96 453,-591 448.214,-584.478 446.779,-576.081 446.89,-568.036"/>
<polygon fill="black" stroke="black" points="450.396,-568.118 447.775,-557.853 443.423,-567.512 450.396,-568.118"/>
<text text-anchor="middle" x="471" y="-579.8" font-family="Times,serif" font-size="14.00">&#45;0.016</text>
</g>
<!-- JR&#45;&gt;BI -->
<g id="edge3" class="edge"><title>JR&#45;&gt;BI</title>
<path fill="none" stroke="black" d="M307.803,-196.859C284.4,-201.309 250.042,-210.4 225,-228 115.883,-304.691 89,-362.128 89,-495.5 89,-628 89,-628 89,-628 89,-666.037 206.852,-694.344 268.048,-706.478"/>
<polygon fill="black" stroke="black" points="267.583,-709.953 278.066,-708.421 268.915,-703.081 267.583,-709.953"/>
<text text-anchor="middle" x="107.5" y="-449.3" font-family="Times,serif" font-size="14.00">0.616</text>
</g>
<!-- JR&#45;&gt;PU -->
<g id="edge11" class="edge"><title>JR&#45;&gt;PU</title>
<path fill="none" stroke="black" d="M360.908,-193.63C444.165,-196.302 692,-209.967 692,-278 692,-541 692,-541 692,-541 692,-565.65 686.623,-574.851 668,-591 647.255,-608.989 617.257,-617.742 593.675,-621.996"/>
<polygon fill="black" stroke="black" points="592.995,-618.56 583.678,-623.604 594.107,-625.471 592.995,-618.56"/>
<text text-anchor="middle" x="707.5" y="-405.8" font-family="Times,serif" font-size="14.00">0.418</text>
</g>
<!-- JR&#45;&gt;Use -->
<g id="edge6" class="edge"><title>JR&#45;&gt;Use</title>
<path fill="none" stroke="black" d="M331.971,-173.785C331.574,-163.645 332.52,-150.906 338,-141 342.086,-133.614 348.46,-127.339 355.21,-122.231"/>
<polygon fill="black" stroke="black" points="357.509,-124.901 363.817,-116.389 353.578,-119.109 357.509,-124.901"/>
<text text-anchor="middle" x="353.5" y="-144.8" font-family="Times,serif" font-size="14.00">0.425</text>
</g>
<!-- Im -->
<g id="node6" class="node"><title>Im</title>
<ellipse fill="none" stroke="black" cx="211" cy="-18" rx="27" ry="18"/>
<text text-anchor="middle" x="211" y="-14.3" font-family="Times,serif" font-size="14.00">Im</text>
</g>
<!-- JR&#45;&gt;Im -->
<g id="edge17" class="edge"><title>JR&#45;&gt;Im</title>
<path fill="none" stroke="black" d="M314.318,-179.282C295.67,-167.271 268.05,-146.991 251,-123 234.264,-99.4501 223.441,-67.982 217.328,-45.8496"/>
<polygon fill="black" stroke="black" points="220.695,-44.8907 214.774,-36.1052 213.924,-46.6659 220.695,-44.8907"/>
<text text-anchor="middle" x="266.5" y="-101.3" font-family="Times,serif" font-size="14.00">0.175</text>
</g>
<!-- JR&#45;&gt;SA -->
<g id="edge35" class="edge"><title>JR&#45;&gt;SA</title>
<path fill="none" stroke="black" d="M357.187,-201.569C370.083,-207.342 385.583,-216.092 396,-228 401.777,-234.604 406.006,-243.085 409.045,-251.179"/>
<polygon fill="black" stroke="black" points="405.732,-252.308 412.188,-260.709 412.38,-250.116 405.732,-252.308"/>
<text text-anchor="middle" x="423" y="-231.8" font-family="Times,serif" font-size="14.00">&#45;0.204</text>
</g>
<!-- Use&#45;&gt;BI -->
<g id="edge4" class="edge"><title>Use&#45;&gt;BI</title>
<path fill="none" stroke="black" d="M412.032,-105.8C503.691,-105.838 797,-112.123 797,-191 797,-323.5 797,-323.5 797,-323.5 797,-447.72 819.075,-521.674 716,-591 633.871,-646.238 606.256,-651.118 511,-678 452.47,-694.518 382.298,-704.372 340.526,-709.232"/>
<polygon fill="black" stroke="black" points="340.086,-705.76 330.542,-710.362 340.872,-712.716 340.086,-705.76"/>
<text text-anchor="middle" x="813.5" y="-405.8" font-family="Times,serif" font-size="14.00">0.616</text>
</g>
<!-- Use&#45;&gt;PU -->
<g id="edge12" class="edge"><title>Use&#45;&gt;PU</title>
<path fill="none" stroke="black" d="M412.113,-106.727C494.773,-109.671 738,-124.024 738,-191 738,-541 738,-541 738,-541 738,-572.114 715.887,-575.342 689,-591 659.479,-608.192 621.371,-617.119 593.696,-621.638"/>
<polygon fill="black" stroke="black" points="593.002,-618.203 583.639,-623.163 594.051,-625.124 593.002,-618.203"/>
<text text-anchor="middle" x="753.5" y="-362.3" font-family="Times,serif" font-size="14.00">0.418</text>
</g>
<!-- Use&#45;&gt;JR -->
<g id="edge25" class="edge"><title>Use&#45;&gt;JR</title>
<path fill="none" stroke="black" d="M381.67,-123.062C379.198,-133.148 375.168,-145.884 369,-156 365.98,-160.952 362.12,-165.727 358.072,-170.072"/>
<polygon fill="black" stroke="black" points="355.348,-167.845 350.724,-177.377 360.283,-172.809 355.348,-167.845"/>
<text text-anchor="middle" x="390.5" y="-144.8" font-family="Times,serif" font-size="14.00">0.001</text>
</g>
<!-- Use&#45;&gt;Im -->
<g id="edge18" class="edge"><title>Use&#45;&gt;Im</title>
<path fill="none" stroke="black" d="M369.468,-90.0939C356.481,-79.0587 337.067,-63.893 318,-54 295.085,-42.1106 267.333,-33.1728 245.834,-27.3058"/>
<polygon fill="black" stroke="black" points="246.697,-23.9136 236.135,-24.7498 244.913,-30.6825 246.697,-23.9136"/>
<text text-anchor="middle" x="356.5" y="-57.8" font-family="Times,serif" font-size="14.00">0.175</text>
</g>
<!-- PEU -->
<g id="node9" class="node"><title>PEU</title>
<ellipse fill="none" stroke="black" cx="243" cy="-366" rx="27.0966" ry="18"/>
<text text-anchor="middle" x="243" y="-362.3" font-family="Times,serif" font-size="14.00">PEU</text>
</g>
<!-- Use&#45;&gt;PEU -->
<g id="edge40" class="edge"><title>Use&#45;&gt;PEU</title>
<path fill="none" stroke="black" d="M362.387,-115.443C354.759,-118.286 346.12,-121.141 338,-123 300.107,-131.676 194.196,-116.519 164,-141 116.884,-179.199 121.805,-208.729 136,-243 138.165,-248.226 204.364,-310.666 208,-315 214.773,-323.073 221.566,-332.42 227.341,-340.832"/>
<polygon fill="black" stroke="black" points="224.462,-342.823 232.947,-349.168 230.271,-338.917 224.462,-342.823"/>
<text text-anchor="middle" x="154" y="-231.8" font-family="Times,serif" font-size="14.00">&#45;0.327</text>
</g>
<!-- Im&#45;&gt;BI -->
<g id="edge5" class="edge"><title>Im&#45;&gt;BI</title>
<path fill="none" stroke="black" d="M183.847,-18.0736C126.86,-17.6799 0,-25.6072 0,-104 0,-628 0,-628 0,-628 0,-682.873 186.027,-703.91 267.038,-710.47"/>
<polygon fill="black" stroke="black" points="267.047,-713.981 277.288,-711.268 267.59,-707.002 267.047,-713.981"/>
<text text-anchor="middle" x="15.5" y="-362.3" font-family="Times,serif" font-size="14.00">0.616</text>
</g>
<!-- Im&#45;&gt;JR -->
<g id="edge24" class="edge"><title>Im&#45;&gt;JR</title>
<path fill="none" stroke="black" d="M227.804,-32.2115C243.291,-45.0062 266.199,-65.5692 282,-87 299.972,-111.376 314.738,-142.898 323.884,-164.82"/>
<polygon fill="black" stroke="black" points="320.671,-166.212 327.682,-174.156 327.156,-163.575 320.671,-166.212"/>
<text text-anchor="middle" x="318.5" y="-101.3" font-family="Times,serif" font-size="14.00">0.001</text>
</g>
<!-- Im&#45;&gt;SA -->
<g id="edge34" class="edge"><title>Im&#45;&gt;SA</title>
<path fill="none" stroke="black" d="M208.688,-35.9377C205.828,-63.2267 203.755,-117.731 226,-156 260.706,-215.708 337.628,-251.015 382.224,-267.228"/>
<polygon fill="black" stroke="black" points="381.161,-270.564 391.755,-270.581 383.484,-263.961 381.161,-270.564"/>
<text text-anchor="middle" x="244" y="-144.8" font-family="Times,serif" font-size="14.00">&#45;0.204</text>
</g>
<!-- Im&#45;&gt;PEU -->
<g id="edge39" class="edge"><title>Im&#45;&gt;PEU</title>
<path fill="none" stroke="black" d="M192.518,-31.4324C152.224,-60.2231 62.0026,-134.777 87,-210 108.345,-274.233 174.943,-323.837 213.879,-348.268"/>
<polygon fill="black" stroke="black" points="212.316,-351.415 222.672,-353.653 215.972,-345.446 212.316,-351.415"/>
<text text-anchor="middle" x="105" y="-188.3" font-family="Times,serif" font-size="14.00">&#45;0.327</text>
</g>
<!-- Pf&#45;&gt;PU -->
<g id="edge14" class="edge"><title>Pf&#45;&gt;PU</title>
<path fill="none" stroke="black" d="M468.176,-554.731C480.182,-564.861 497.003,-578.925 512,-591 518.396,-596.15 525.373,-601.638 531.882,-606.704"/>
<polygon fill="black" stroke="black" points="529.75,-609.48 539.799,-612.839 534.038,-603.947 529.75,-609.48"/>
<text text-anchor="middle" x="527.5" y="-579.8" font-family="Times,serif" font-size="14.00">0.418</text>
</g>
<!-- Pf&#45;&gt;JR -->
<g id="edge27" class="edge"><title>Pf&#45;&gt;JR</title>
<path fill="none" stroke="black" d="M449.766,-522.02C446.319,-500.442 438.214,-462.678 421,-435 403.394,-406.692 381.823,-413.342 366,-384 337.532,-331.208 333.2,-259.245 333.191,-220.463"/>
<polygon fill="black" stroke="black" points="336.695,-220.034 333.295,-209.999 329.695,-219.964 336.695,-220.034"/>
<text text-anchor="middle" x="381.5" y="-362.3" font-family="Times,serif" font-size="14.00">0.001</text>
</g>
<!-- Pf&#45;&gt;Use -->
<g id="edge8" class="edge"><title>Pf&#45;&gt;Use</title>
<path fill="none" stroke="black" d="M478.502,-535.671C513.716,-529.668 574.657,-513.417 602,-471 610.669,-457.552 605.922,-450.512 602,-435 568.486,-302.454 455.093,-176.39 406.93,-127.435"/>
<polygon fill="black" stroke="black" points="409.316,-124.872 399.782,-120.251 404.354,-129.809 409.316,-124.872"/>
<text text-anchor="middle" x="574.5" y="-318.8" font-family="Times,serif" font-size="14.00">0.425</text>
</g>
<!-- Pf&#45;&gt;SA -->
<g id="edge37" class="edge"><title>Pf&#45;&gt;SA</title>
<path fill="none" stroke="black" d="M453.489,-521.86C455.962,-488.085 459.333,-410.757 445,-348 441.663,-333.388 435.336,-317.957 429.441,-305.494"/>
<polygon fill="black" stroke="black" points="432.427,-303.636 424.871,-296.209 426.146,-306.727 432.427,-303.636"/>
<text text-anchor="middle" x="472" y="-405.8" font-family="Times,serif" font-size="14.00">&#45;0.204</text>
</g>
<!-- Pf&#45;&gt;Qu -->
<g id="edge21" class="edge"><title>Pf&#45;&gt;Qu</title>
<path fill="none" stroke="black" d="M425.523,-536.334C400.674,-532.66 363.596,-524.035 338,-504 329.921,-497.676 323.537,-488.524 318.773,-479.773"/>
<polygon fill="black" stroke="black" points="321.802,-478.003 314.234,-470.588 315.526,-481.104 321.802,-478.003"/>
<text text-anchor="middle" x="353.5" y="-492.8" font-family="Times,serif" font-size="14.00">0.077</text>
</g>
<!-- SA&#45;&gt;PU -->
<g id="edge9" class="edge"><title>SA&#45;&gt;PU</title>
<path fill="none" stroke="black" d="M441.835,-284.397C461.623,-288.976 488.424,-297.965 506,-315 584.758,-391.337 571.444,-538.822 561.96,-599.219"/>
<polygon fill="black" stroke="black" points="558.502,-598.684 560.314,-609.122 565.407,-599.831 558.502,-598.684"/>
<text text-anchor="middle" x="582.5" y="-449.3" font-family="Times,serif" font-size="14.00">0.418</text>
</g>
<!-- SA&#45;&gt;JR -->
<g id="edge23" class="edge"><title>SA&#45;&gt;JR</title>
<path fill="none" stroke="black" d="M395.646,-266.754C385.66,-260.594 373.898,-252.321 365,-243 358.06,-235.73 351.875,-226.661 346.89,-218.25"/>
<polygon fill="black" stroke="black" points="349.922,-216.502 341.972,-209.498 343.819,-219.931 349.922,-216.502"/>
<text text-anchor="middle" x="380.5" y="-231.8" font-family="Times,serif" font-size="14.00">0.001</text>
</g>
<!-- SA&#45;&gt;Pf -->
<g id="edge30" class="edge"><title>SA&#45;&gt;Pf</title>
<path fill="none" stroke="black" d="M441.525,-285.068C458.088,-289.808 478.479,-298.706 489,-315 511.784,-350.286 503.961,-465.574 487,-504 484.658,-509.307 481.117,-514.248 477.174,-518.648"/>
<polygon fill="black" stroke="black" points="474.45,-516.42 469.811,-525.945 479.377,-521.392 474.45,-516.42"/>
<text text-anchor="middle" x="521" y="-405.8" font-family="Times,serif" font-size="14.00">&#45;0.016</text>
</g>
<!-- SA&#45;&gt;Qu -->
<g id="edge19" class="edge"><title>SA&#45;&gt;Qu</title>
<path fill="none" stroke="black" d="M416.241,-297.217C415.741,-325.392 410.878,-381.733 382,-417 378.938,-420.739 358.239,-430.386 339.51,-438.606"/>
<polygon fill="black" stroke="black" points="338.057,-435.421 330.28,-442.616 340.846,-441.842 338.057,-435.421"/>
<text text-anchor="middle" x="425.5" y="-362.3" font-family="Times,serif" font-size="14.00">0.077</text>
</g>
<!-- PEU&#45;&gt;ENJ -->
<g id="edge15" class="edge"><title>PEU&#45;&gt;ENJ</title>
<path fill="none" stroke="black" d="M220.003,-375.723C191.888,-388.063 148,-413.492 148,-452 148,-715 148,-715 148,-715 148,-775.67 357.588,-793.558 444.712,-798.373"/>
<polygon fill="black" stroke="black" points="444.781,-801.882 454.95,-798.91 445.147,-794.891 444.781,-801.882"/>
<text text-anchor="middle" x="163.5" y="-579.8" font-family="Times,serif" font-size="14.00">0.239</text>
</g>
<!-- PEU&#45;&gt;JR -->
<g id="edge28" class="edge"><title>PEU&#45;&gt;JR</title>
<path fill="none" stroke="black" d="M248.615,-348.265C255.951,-327.265 269.79,-290.437 286,-261 294.552,-245.47 305.931,-229.207 315.464,-216.481"/>
<polygon fill="black" stroke="black" points="318.431,-218.362 321.711,-208.288 312.865,-214.118 318.431,-218.362"/>
<text text-anchor="middle" x="301.5" y="-275.3" font-family="Times,serif" font-size="14.00">0.001</text>
</g>
<!-- PEU&#45;&gt;Pf -->
<g id="edge32" class="edge"><title>PEU&#45;&gt;Pf</title>
<path fill="none" stroke="black" d="M266.84,-375.07C282.736,-381.095 303.638,-390.296 320,-402 354.267,-426.512 355.769,-440.659 385,-471 399.995,-486.564 417.099,-503.917 430.272,-517.197"/>
<polygon fill="black" stroke="black" points="427.998,-519.874 437.528,-524.501 432.964,-514.94 427.998,-519.874"/>
<text text-anchor="middle" x="403" y="-449.3" font-family="Times,serif" font-size="14.00">&#45;0.016</text>
</g>
<!-- PEU&#45;&gt;SA -->
<g id="edge38" class="edge"><title>PEU&#45;&gt;SA</title>
<path fill="none" stroke="black" d="M260.365,-352.088C275.544,-341.21 298.463,-325.745 320,-315 339.914,-305.065 363.365,-296.462 382.104,-290.271"/>
<polygon fill="black" stroke="black" points="383.261,-293.576 391.702,-287.174 381.111,-286.914 383.261,-293.576"/>
<text text-anchor="middle" x="338" y="-318.8" font-family="Times,serif" font-size="14.00">&#45;0.204</text>
</g>
<!-- PEU&#45;&gt;Qu -->
<g id="edge22" class="edge"><title>PEU&#45;&gt;Qu</title>
<path fill="none" stroke="black" d="M257.239,-381.536C262.985,-387.661 269.534,-394.986 275,-402 281.198,-409.952 287.433,-419.052 292.79,-427.289"/>
<polygon fill="black" stroke="black" points="289.885,-429.244 298.213,-435.793 295.787,-425.48 289.885,-429.244"/>
<text text-anchor="middle" x="300.5" y="-405.8" font-family="Times,serif" font-size="14.00">0.077</text>
</g>
<!-- Qu&#45;&gt;PEU -->
<g id="edge41" class="edge"><title>Qu&#45;&gt;PEU</title>
<path fill="none" stroke="black" d="M282.355,-447.009C265.739,-442.302 245.333,-433.414 235,-417 230.587,-409.991 230.506,-401.368 232.166,-393.269"/>
<polygon fill="black" stroke="black" points="235.59,-394.03 235.005,-383.451 228.865,-392.086 235.59,-394.03"/>
<text text-anchor="middle" x="253" y="-405.8" font-family="Times,serif" font-size="14.00">&#45;0.327</text>
</g>
</g>
</svg>
