<?xml version="1.0" encoding="UTF-8" standalone="no"?>
<!DOCTYPE svg PUBLIC "-//W3C//DTD SVG 1.1//EN"
 "http://www.w3.org/Graphics/SVG/1.1/DTD/svg11.dtd">
<!-- Generated by graphviz version 2.38.0 (20140413.2041)
 -->
<!-- Title: G Pages: 1 -->
<svg width="430pt" height="740pt"
 viewBox="0.00 0.00 430.00 740.00" xmlns="http://www.w3.org/2000/svg" xmlns:xlink="http://www.w3.org/1999/xlink">
<g id="graph0" class="graph" transform="scale(1 1) rotate(0) translate(4 736)">
<title>G</title>
<polygon fill="white" stroke="none" points="-4,4 -4,-736 426,-736 426,4 -4,4"/>
<!-- Use -->
<g id="node1" class="node"><title>Use</title>
<ellipse fill="none" stroke="black" cx="244" cy="-540" rx="27" ry="18"/>
<text text-anchor="middle" x="244" y="-536.3" font-family="Times,serif" font-size="14.00">Use</text>
</g>
<!-- BI -->
<g id="node2" class="node"><title>BI</title>
<ellipse fill="none" stroke="black" cx="196" cy="-453" rx="27" ry="18"/>
<text text-anchor="middle" x="196" y="-449.3" font-family="Times,serif" font-size="14.00">BI</text>
</g>
<!-- Use&#45;&gt;BI -->
<g id="edge1" class="edge"><title>Use&#45;&gt;BI</title>
<path fill="none" stroke="black" d="M225.735,-526.226C218.529,-520.273 210.833,-512.601 206,-504 202.124,-497.102 199.736,-488.927 198.269,-481.206"/>
<polygon fill="black" stroke="black" points="201.704,-480.507 196.786,-471.123 194.778,-481.526 201.704,-480.507"/>
<text text-anchor="middle" x="221.5" y="-492.8" font-family="Times,serif" font-size="14.00">0.542</text>
</g>
<!-- Im -->
<g id="node6" class="node"><title>Im</title>
<ellipse fill="none" stroke="black" cx="287" cy="-279" rx="27" ry="18"/>
<text text-anchor="middle" x="287" y="-275.3" font-family="Times,serif" font-size="14.00">Im</text>
</g>
<!-- Use&#45;&gt;Im -->
<g id="edge8" class="edge"><title>Use&#45;&gt;Im</title>
<path fill="none" stroke="black" d="M243.386,-521.983C242.751,-495.937 242.707,-444.712 250,-402 255.769,-368.21 268.1,-330.653 276.942,-306.253"/>
<polygon fill="black" stroke="black" points="280.307,-307.245 280.488,-296.651 273.74,-304.819 280.307,-307.245"/>
<text text-anchor="middle" x="265.5" y="-405.8" font-family="Times,serif" font-size="14.00">0.226</text>
</g>
<!-- JR -->
<g id="node7" class="node"><title>JR</title>
<ellipse fill="none" stroke="black" cx="76" cy="-366" rx="27" ry="18"/>
<text text-anchor="middle" x="76" y="-362.3" font-family="Times,serif" font-size="14.00">JR</text>
</g>
<!-- BI&#45;&gt;JR -->
<g id="edge19" class="edge"><title>BI&#45;&gt;JR</title>
<path fill="none" stroke="black" d="M178.035,-439.275C157.975,-425.066 125.318,-401.934 102.364,-385.674"/>
<polygon fill="black" stroke="black" points="104.271,-382.736 94.088,-379.812 100.225,-388.449 104.271,-382.736"/>
<text text-anchor="middle" x="158.5" y="-405.8" font-family="Times,serif" font-size="14.00">0.053</text>
</g>
<!-- Pf -->
<g id="node9" class="node"><title>Pf</title>
<ellipse fill="none" stroke="black" cx="180" cy="-192" rx="27" ry="18"/>
<text text-anchor="middle" x="180" y="-188.3" font-family="Times,serif" font-size="14.00">Pf</text>
</g>
<!-- BI&#45;&gt;Pf -->
<g id="edge23" class="edge"><title>BI&#45;&gt;Pf</title>
<path fill="none" stroke="black" d="M196.722,-434.675C197.644,-408.657 198.805,-357.959 196,-315 193.854,-282.133 188.489,-244.602 184.561,-219.947"/>
<polygon fill="black" stroke="black" points="187.988,-219.212 182.927,-209.905 181.079,-220.337 187.988,-219.212"/>
<text text-anchor="middle" x="214" y="-318.8" font-family="Times,serif" font-size="14.00">&#45;0.078</text>
</g>
<!-- ENJ -->
<g id="node3" class="node"><title>ENJ</title>
<ellipse fill="none" stroke="black" cx="255" cy="-714" rx="27" ry="18"/>
<text text-anchor="middle" x="255" y="-710.3" font-family="Times,serif" font-size="14.00">ENJ</text>
</g>
<!-- PU -->
<g id="node4" class="node"><title>PU</title>
<ellipse fill="none" stroke="black" cx="178" cy="-627" rx="27" ry="18"/>
<text text-anchor="middle" x="178" y="-623.3" font-family="Times,serif" font-size="14.00">PU</text>
</g>
<!-- ENJ&#45;&gt;PU -->
<g id="edge2" class="edge"><title>ENJ&#45;&gt;PU</title>
<path fill="none" stroke="black" d="M229.189,-708.435C211.824,-703.888 190.138,-695.015 179,-678 174.636,-671.333 173.272,-663.019 173.319,-655.097"/>
<polygon fill="black" stroke="black" points="176.812,-655.31 174.058,-645.079 169.831,-654.794 176.812,-655.31"/>
<text text-anchor="middle" x="194.5" y="-666.8" font-family="Times,serif" font-size="14.00">0.345</text>
</g>
<!-- ENJ&#45;&gt;Im -->
<g id="edge6" class="edge"><title>ENJ&#45;&gt;Im</title>
<path fill="none" stroke="black" d="M278.239,-704.346C306.65,-692.082 351,-666.734 351,-628 351,-628 351,-628 351,-365 351,-338.409 330.763,-314.846 313.049,-299.314"/>
<polygon fill="black" stroke="black" points="315.095,-296.464 305.169,-292.76 310.619,-301.846 315.095,-296.464"/>
<text text-anchor="middle" x="366.5" y="-492.8" font-family="Times,serif" font-size="14.00">0.226</text>
</g>
<!-- SA -->
<g id="node8" class="node"><title>SA</title>
<ellipse fill="none" stroke="black" cx="133" cy="-105" rx="27" ry="18"/>
<text text-anchor="middle" x="133" y="-101.3" font-family="Times,serif" font-size="14.00">SA</text>
</g>
<!-- ENJ&#45;&gt;SA -->
<g id="edge12" class="edge"><title>ENJ&#45;&gt;SA</title>
<path fill="none" stroke="black" d="M281.376,-709.338C322.442,-701.985 397,-681.298 397,-628 397,-628 397,-628 397,-191 397,-143.845 242.458,-119.089 169.856,-110.061"/>
<polygon fill="black" stroke="black" points="170.114,-106.567 159.767,-108.842 169.275,-113.516 170.114,-106.567"/>
<text text-anchor="middle" x="409.5" y="-405.8" font-family="Times,serif" font-size="14.00">0.12</text>
</g>
<!-- PEU -->
<g id="node10" class="node"><title>PEU</title>
<ellipse fill="none" stroke="black" cx="41" cy="-18" rx="27.0966" ry="18"/>
<text text-anchor="middle" x="41" y="-14.3" font-family="Times,serif" font-size="14.00">PEU</text>
</g>
<!-- ENJ&#45;&gt;PEU -->
<g id="edge17" class="edge"><title>ENJ&#45;&gt;PEU</title>
<path fill="none" stroke="black" d="M228.671,-709.919C163.519,-701.564 0,-675.832 0,-628 0,-628 0,-628 0,-104 0,-81.6052 11.6886,-58.8927 22.5838,-42.5863"/>
<polygon fill="black" stroke="black" points="25.5743,-44.4187 28.4759,-34.229 19.8532,-40.3853 25.5743,-44.4187"/>
<text text-anchor="middle" x="15.5" y="-362.3" font-family="Times,serif" font-size="14.00">0.074</text>
</g>
<!-- PU&#45;&gt;Use -->
<g id="edge5" class="edge"><title>PU&#45;&gt;Use</title>
<path fill="none" stroke="black" d="M190.889,-610.815C195.983,-604.717 201.842,-597.585 207,-591 213.623,-582.545 220.684,-573.114 226.843,-564.74"/>
<polygon fill="black" stroke="black" points="229.804,-566.621 232.88,-556.482 224.153,-562.49 229.804,-566.621"/>
<text text-anchor="middle" x="233.5" y="-579.8" font-family="Times,serif" font-size="14.00">0.336</text>
</g>
<!-- PU&#45;&gt;ENJ -->
<g id="edge11" class="edge"><title>PU&#45;&gt;ENJ</title>
<path fill="none" stroke="black" d="M191.415,-642.622C197.151,-648.887 203.915,-656.292 210,-663 218.17,-672.007 227.139,-681.958 234.904,-690.596"/>
<polygon fill="black" stroke="black" points="232.354,-692.995 241.641,-698.095 237.562,-688.317 232.354,-692.995"/>
<text text-anchor="middle" x="237.5" y="-666.8" font-family="Times,serif" font-size="14.00">0.142</text>
</g>
<!-- Qu -->
<g id="node5" class="node"><title>Qu</title>
<ellipse fill="none" stroke="black" cx="165" cy="-540" rx="27" ry="18"/>
<text text-anchor="middle" x="165" y="-536.3" font-family="Times,serif" font-size="14.00">Qu</text>
</g>
<!-- PU&#45;&gt;Qu -->
<g id="edge9" class="edge"><title>PU&#45;&gt;Qu</title>
<path fill="none" stroke="black" d="M157.336,-614.788C148.754,-608.935 139.712,-600.91 135,-591 130.341,-581.2 134.843,-570.841 141.651,-562.11"/>
<polygon fill="black" stroke="black" points="144.299,-564.398 148.355,-554.611 139.081,-559.733 144.299,-564.398"/>
<text text-anchor="middle" x="150.5" y="-579.8" font-family="Times,serif" font-size="14.00">0.205</text>
</g>
<!-- PU&#45;&gt;JR -->
<g id="edge20" class="edge"><title>PU&#45;&gt;JR</title>
<path fill="none" stroke="black" d="M157.283,-614.906C147.633,-608.89 136.627,-600.696 129,-591 82.796,-532.261 75.8136,-439.807 75.406,-394.24"/>
<polygon fill="black" stroke="black" points="78.9059,-394.231 75.4178,-384.226 71.9059,-394.222 78.9059,-394.231"/>
<text text-anchor="middle" x="104.5" y="-492.8" font-family="Times,serif" font-size="14.00">0.053</text>
</g>
<!-- Qu&#45;&gt;ENJ -->
<g id="edge10" class="edge"><title>Qu&#45;&gt;ENJ</title>
<path fill="none" stroke="black" d="M187.62,-549.954C213.651,-560.265 252.873,-575.821 253,-576 275.967,-608.232 269.925,-656.438 262.88,-686.238"/>
<polygon fill="black" stroke="black" points="259.482,-685.399 260.392,-695.954 266.263,-687.135 259.482,-685.399"/>
<text text-anchor="middle" x="284.5" y="-623.3" font-family="Times,serif" font-size="14.00">0.142</text>
</g>
<!-- Qu&#45;&gt;PU -->
<g id="edge3" class="edge"><title>Qu&#45;&gt;PU</title>
<path fill="none" stroke="black" d="M167.627,-558.175C169.406,-569.806 171.794,-585.419 173.83,-598.734"/>
<polygon fill="black" stroke="black" points="170.398,-599.443 175.369,-608.799 177.317,-598.385 170.398,-599.443"/>
<text text-anchor="middle" x="187.5" y="-579.8" font-family="Times,serif" font-size="14.00">0.345</text>
</g>
<!-- Qu&#45;&gt;Pf -->
<g id="edge22" class="edge"><title>Qu&#45;&gt;Pf</title>
<path fill="none" stroke="black" d="M160.858,-522.073C152.268,-484.617 134.182,-391.94 145,-315 149.752,-281.206 161.564,-243.649 170.155,-219.251"/>
<polygon fill="black" stroke="black" points="173.517,-220.244 173.609,-209.65 166.93,-217.874 173.517,-220.244"/>
<text text-anchor="middle" x="160" y="-362.3" font-family="Times,serif" font-size="14.00">&#45;0.078</text>
</g>
<!-- Im&#45;&gt;Use -->
<g id="edge4" class="edge"><title>Im&#45;&gt;Use</title>
<path fill="none" stroke="black" d="M288.383,-297.016C290.863,-335.431 293.423,-431.2 265,-504 263.631,-507.507 261.926,-511.065 260.083,-514.503"/>
<polygon fill="black" stroke="black" points="257.025,-512.8 255.019,-523.203 263.075,-516.321 257.025,-512.8"/>
<text text-anchor="middle" x="302.5" y="-405.8" font-family="Times,serif" font-size="14.00">0.336</text>
</g>
<!-- Im&#45;&gt;SA -->
<g id="edge13" class="edge"><title>Im&#45;&gt;SA</title>
<path fill="none" stroke="black" d="M289.949,-261.034C290.914,-250.982 290.73,-238.248 286,-228 261.693,-175.332 201.749,-138.649 164.518,-120.057"/>
<polygon fill="black" stroke="black" points="165.649,-116.715 155.123,-115.507 162.598,-123.016 165.649,-116.715"/>
<text text-anchor="middle" x="286.5" y="-188.3" font-family="Times,serif" font-size="14.00">0.12</text>
</g>
<!-- Im&#45;&gt;Pf -->
<g id="edge21" class="edge"><title>Im&#45;&gt;Pf</title>
<path fill="none" stroke="black" d="M271.571,-264.023C260.067,-253.77 243.846,-239.662 229,-228 221.909,-222.43 214.034,-216.64 206.709,-211.411"/>
<polygon fill="black" stroke="black" points="208.63,-208.483 198.441,-205.577 204.594,-214.203 208.63,-208.483"/>
<text text-anchor="middle" x="264" y="-231.8" font-family="Times,serif" font-size="14.00">&#45;0.078</text>
</g>
<!-- JR&#45;&gt;Im -->
<g id="edge7" class="edge"><title>JR&#45;&gt;Im</title>
<path fill="none" stroke="black" d="M94.7919,-352.736C112.372,-341.683 139.652,-325.586 165,-315 193.288,-303.186 226.862,-293.875 251.621,-287.837"/>
<polygon fill="black" stroke="black" points="252.733,-291.17 261.651,-285.451 251.113,-284.36 252.733,-291.17"/>
<text text-anchor="middle" x="180.5" y="-318.8" font-family="Times,serif" font-size="14.00">0.226</text>
</g>
<!-- JR&#45;&gt;SA -->
<g id="edge14" class="edge"><title>JR&#45;&gt;SA</title>
<path fill="none" stroke="black" d="M66.7072,-348.751C53.2715,-323.299 30.8719,-272.347 39,-228 46.4555,-187.323 45.1624,-172.464 72,-141 79.7651,-131.896 90.5243,-124.634 100.847,-119.136"/>
<polygon fill="black" stroke="black" points="102.678,-122.136 110.107,-114.582 99.5886,-115.855 102.678,-122.136"/>
<text text-anchor="middle" x="51.5" y="-231.8" font-family="Times,serif" font-size="14.00">0.12</text>
</g>
<!-- SA&#45;&gt;JR -->
<g id="edge18" class="edge"><title>SA&#45;&gt;JR</title>
<path fill="none" stroke="black" d="M125.064,-122.514C114.395,-145.548 95.757,-188.903 87,-228 78.6206,-265.411 76.4264,-309.828 75.9542,-337.72"/>
<polygon fill="black" stroke="black" points="72.4526,-337.862 75.8467,-347.899 79.4522,-337.936 72.4526,-337.862"/>
<text text-anchor="middle" x="102.5" y="-231.8" font-family="Times,serif" font-size="14.00">0.053</text>
</g>
<!-- SA&#45;&gt;PEU -->
<g id="edge16" class="edge"><title>SA&#45;&gt;PEU</title>
<path fill="none" stroke="black" d="M117.808,-89.964C103.159,-76.4296 80.7954,-55.7675 63.9708,-40.223"/>
<polygon fill="black" stroke="black" points="65.9346,-37.2723 56.2145,-33.0569 61.1843,-42.4138 65.9346,-37.2723"/>
<text text-anchor="middle" x="108.5" y="-57.8" font-family="Times,serif" font-size="14.00">0.074</text>
</g>
<!-- Pf&#45;&gt;SA -->
<g id="edge15" class="edge"><title>Pf&#45;&gt;SA</title>
<path fill="none" stroke="black" d="M170.938,-174.611C164.132,-162.303 154.689,-145.226 146.927,-131.187"/>
<polygon fill="black" stroke="black" points="149.777,-129.108 141.875,-122.05 143.651,-132.495 149.777,-129.108"/>
<text text-anchor="middle" x="171.5" y="-144.8" font-family="Times,serif" font-size="14.00">0.12</text>
</g>
</g>
</svg>
