<?xml version="1.0" encoding="UTF-8" standalone="no"?>
<!DOCTYPE svg PUBLIC "-//W3C//DTD SVG 1.1//EN"
 "http://www.w3.org/Graphics/SVG/1.1/DTD/svg11.dtd">
<!-- Generated by graphviz version 2.38.0 (20140413.2041)
 -->
<!-- Title: G Pages: 1 -->
<svg width="383pt" height="305pt"
 viewBox="0.00 0.00 382.60 305.00" xmlns="http://www.w3.org/2000/svg" xmlns:xlink="http://www.w3.org/1999/xlink">
<g id="graph0" class="graph" transform="scale(1 1) rotate(0) translate(4 301)">
<title>G</title>
<polygon fill="white" stroke="none" points="-4,4 -4,-301 378.597,-301 378.597,4 -4,4"/>
<!-- BI -->
<g id="node1" class="node"><title>BI</title>
<ellipse fill="none" stroke="black" cx="167.597" cy="-279" rx="27" ry="18"/>
<text text-anchor="middle" x="167.597" y="-275.3" font-family="Times,serif" font-size="14.00">BI</text>
</g>
<!-- Use -->
<g id="node2" class="node"><title>Use</title>
<ellipse fill="none" stroke="black" cx="28.5975" cy="-192" rx="28.6953" ry="18"/>
<text text-anchor="middle" x="28.5975" y="-188.3" font-family="Times,serif" font-size="14.00">Use</text>
</g>
<!-- BI&#45;&gt;Use -->
<g id="edge1" class="edge"><title>BI&#45;&gt;Use</title>
<path fill="none" stroke="black" d="M140.807,-276.061C99.9011,-272.482 24.889,-263.268 8.59746,-243 2.44723,-235.349 4.70667,-225.562 9.51187,-216.68"/>
<polygon fill="black" stroke="black" points="12.4917,-218.517 14.9485,-208.211 6.60095,-214.735 12.4917,-218.517"/>
<text text-anchor="middle" x="29.0975" y="-231.8" font-family="Times,serif" font-size="14.00">0.394</text>
</g>
<!-- PU -->
<g id="node3" class="node"><title>PU</title>
<ellipse fill="none" stroke="black" cx="123.597" cy="-192" rx="27" ry="18"/>
<text text-anchor="middle" x="123.597" y="-188.3" font-family="Times,serif" font-size="14.00">PU</text>
</g>
<!-- BI&#45;&gt;PU -->
<g id="edge3" class="edge"><title>BI&#45;&gt;PU</title>
<path fill="none" stroke="black" d="M152.887,-263.739C147.427,-257.768 141.596,-250.482 137.597,-243 133.757,-235.814 130.883,-227.469 128.772,-219.679"/>
<polygon fill="black" stroke="black" points="132.162,-218.806 126.419,-209.903 125.356,-220.444 132.162,-218.806"/>
<text text-anchor="middle" x="158.097" y="-231.8" font-family="Times,serif" font-size="14.00">0.253</text>
</g>
<!-- PEU -->
<g id="node4" class="node"><title>PEU</title>
<ellipse fill="none" stroke="black" cx="199.597" cy="-192" rx="31.3957" ry="18"/>
<text text-anchor="middle" x="199.597" y="-188.3" font-family="Times,serif" font-size="14.00">PEU</text>
</g>
<!-- BI&#45;&gt;PEU -->
<g id="edge4" class="edge"><title>BI&#45;&gt;PEU</title>
<path fill="none" stroke="black" d="M173.92,-261.207C178.434,-249.216 184.595,-232.851 189.75,-219.157"/>
<polygon fill="black" stroke="black" points="193.041,-220.35 193.288,-209.758 186.489,-217.884 193.041,-220.35"/>
<text text-anchor="middle" x="206.097" y="-231.8" font-family="Times,serif" font-size="14.00">0.202</text>
</g>
<!-- Im -->
<g id="node5" class="node"><title>Im</title>
<ellipse fill="none" stroke="black" cx="275.597" cy="-192" rx="27" ry="18"/>
<text text-anchor="middle" x="275.597" y="-188.3" font-family="Times,serif" font-size="14.00">Im</text>
</g>
<!-- BI&#45;&gt;Im -->
<g id="edge5" class="edge"><title>BI&#45;&gt;Im</title>
<path fill="none" stroke="black" d="M189.406,-268.129C202.073,-261.864 217.972,-253.055 230.597,-243 240.25,-235.313 249.6,-225.454 257.253,-216.526"/>
<polygon fill="black" stroke="black" points="260.073,-218.608 263.764,-208.677 254.686,-214.139 260.073,-218.608"/>
<text text-anchor="middle" x="266.097" y="-231.8" font-family="Times,serif" font-size="14.00">0.154</text>
</g>
<!-- SA -->
<g id="node10" class="node"><title>SA</title>
<ellipse fill="none" stroke="black" cx="347.597" cy="-192" rx="27" ry="18"/>
<text text-anchor="middle" x="347.597" y="-188.3" font-family="Times,serif" font-size="14.00">SA</text>
</g>
<!-- BI&#45;&gt;SA -->
<g id="edge10" class="edge"><title>BI&#45;&gt;SA</title>
<path fill="none" stroke="black" d="M193.839,-274.004C219.655,-269.295 259.595,-259.882 290.597,-243 303.863,-235.776 316.689,-224.982 326.804,-215.27"/>
<polygon fill="black" stroke="black" points="329.356,-217.668 333.973,-208.131 324.417,-212.708 329.356,-217.668"/>
<text text-anchor="middle" x="332.097" y="-231.8" font-family="Times,serif" font-size="14.00">0.026</text>
</g>
<!-- Use&#45;&gt;BI -->
<g id="edge2" class="edge"><title>Use&#45;&gt;BI</title>
<path fill="none" stroke="black" d="M43.3412,-207.952C54.5038,-218.69 70.5994,-232.977 86.5975,-243 101.506,-252.34 119.34,-260.344 134.474,-266.331"/>
<polygon fill="black" stroke="black" points="133.381,-269.66 143.971,-269.967 135.884,-263.123 133.381,-269.66"/>
<text text-anchor="middle" x="107.097" y="-231.8" font-family="Times,serif" font-size="14.00">0.377</text>
</g>
<!-- Qu -->
<g id="node6" class="node"><title>Qu</title>
<ellipse fill="none" stroke="black" cx="48.5975" cy="-105" rx="27" ry="18"/>
<text text-anchor="middle" x="48.5975" y="-101.3" font-family="Times,serif" font-size="14.00">Qu</text>
</g>
<!-- PU&#45;&gt;Qu -->
<g id="edge6" class="edge"><title>PU&#45;&gt;Qu</title>
<path fill="none" stroke="black" d="M104.774,-178.756C96.1649,-172.585 86.2116,-164.593 78.5975,-156 72.0611,-148.623 66.1573,-139.626 61.3504,-131.307"/>
<polygon fill="black" stroke="black" points="64.2981,-129.404 56.414,-122.326 58.1636,-132.775 64.2981,-129.404"/>
<text text-anchor="middle" x="99.0975" y="-144.8" font-family="Times,serif" font-size="14.00">0.142</text>
</g>
<!-- ENJ -->
<g id="node7" class="node"><title>ENJ</title>
<ellipse fill="none" stroke="black" cx="123.597" cy="-105" rx="29.795" ry="18"/>
<text text-anchor="middle" x="123.597" y="-101.3" font-family="Times,serif" font-size="14.00">ENJ</text>
</g>
<!-- PU&#45;&gt;ENJ -->
<g id="edge7" class="edge"><title>PU&#45;&gt;ENJ</title>
<path fill="none" stroke="black" d="M123.597,-173.799C123.597,-162.163 123.597,-146.548 123.597,-133.237"/>
<polygon fill="black" stroke="black" points="127.098,-133.175 123.597,-123.175 120.098,-133.175 127.098,-133.175"/>
<text text-anchor="middle" x="144.097" y="-144.8" font-family="Times,serif" font-size="14.00">0.086</text>
</g>
<!-- Pf -->
<g id="node8" class="node"><title>Pf</title>
<ellipse fill="none" stroke="black" cx="198.597" cy="-105" rx="27" ry="18"/>
<text text-anchor="middle" x="198.597" y="-101.3" font-family="Times,serif" font-size="14.00">Pf</text>
</g>
<!-- PU&#45;&gt;Pf -->
<g id="edge9" class="edge"><title>PU&#45;&gt;Pf</title>
<path fill="none" stroke="black" d="M142.421,-178.756C151.03,-172.585 160.983,-164.593 168.597,-156 175.134,-148.623 181.038,-139.626 185.845,-131.307"/>
<polygon fill="black" stroke="black" points="189.031,-132.775 190.781,-122.326 182.897,-129.404 189.031,-132.775"/>
<text text-anchor="middle" x="200.097" y="-144.8" font-family="Times,serif" font-size="14.00">0.039</text>
</g>
<!-- JR -->
<g id="node9" class="node"><title>JR</title>
<ellipse fill="none" stroke="black" cx="198.597" cy="-18" rx="27" ry="18"/>
<text text-anchor="middle" x="198.597" y="-14.3" font-family="Times,serif" font-size="14.00">JR</text>
</g>
<!-- Pf&#45;&gt;JR -->
<g id="edge8" class="edge"><title>Pf&#45;&gt;JR</title>
<path fill="none" stroke="black" d="M198.597,-86.799C198.597,-75.1626 198.597,-59.5479 198.597,-46.2368"/>
<polygon fill="black" stroke="black" points="202.098,-46.1754 198.597,-36.1754 195.098,-46.1755 202.098,-46.1754"/>
<text text-anchor="middle" x="219.097" y="-57.8" font-family="Times,serif" font-size="14.00">0.066</text>
</g>
</g>
</svg>
