<?xml version="1.0" encoding="UTF-8" standalone="no"?>
<!DOCTYPE svg PUBLIC "-//W3C//DTD SVG 1.1//EN"
 "http://www.w3.org/Graphics/SVG/1.1/DTD/svg11.dtd">
<!-- Generated by graphviz version 2.38.0 (20140413.2041)
 -->
<!-- Title: G Pages: 1 -->
<svg width="390pt" height="479pt"
 viewBox="0.00 0.00 390.16 479.00" xmlns="http://www.w3.org/2000/svg" xmlns:xlink="http://www.w3.org/1999/xlink">
<g id="graph0" class="graph" transform="scale(1 1) rotate(0) translate(4 475)">
<title>G</title>
<polygon fill="white" stroke="none" points="-4,4 -4,-475 386.165,-475 386.165,4 -4,4"/>
<!-- Use -->
<g id="node1" class="node"><title>Use</title>
<ellipse fill="none" stroke="black" cx="180.165" cy="-453" rx="28.6953" ry="18"/>
<text text-anchor="middle" x="180.165" y="-449.3" font-family="Times,serif" font-size="14.00">Use</text>
</g>
<!-- BI -->
<g id="node2" class="node"><title>BI</title>
<ellipse fill="none" stroke="black" cx="156.165" cy="-366" rx="27" ry="18"/>
<text text-anchor="middle" x="156.165" y="-362.3" font-family="Times,serif" font-size="14.00">BI</text>
</g>
<!-- Use&#45;&gt;BI -->
<g id="edge1" class="edge"><title>Use&#45;&gt;BI</title>
<path fill="none" stroke="black" d="M163.522,-437.984C157.835,-432.15 152.158,-424.893 149.165,-417 146.387,-409.675 146.402,-401.37 147.599,-393.663"/>
<polygon fill="black" stroke="black" points="151.066,-394.191 149.811,-383.671 144.232,-392.678 151.066,-394.191"/>
<text text-anchor="middle" x="169.665" y="-405.8" font-family="Times,serif" font-size="14.00">0.503</text>
</g>
<!-- PU -->
<g id="node3" class="node"><title>PU</title>
<ellipse fill="none" stroke="black" cx="84.1649" cy="-366" rx="27" ry="18"/>
<text text-anchor="middle" x="84.1649" y="-362.3" font-family="Times,serif" font-size="14.00">PU</text>
</g>
<!-- Use&#45;&gt;PU -->
<g id="edge3" class="edge"><title>Use&#45;&gt;PU</title>
<path fill="none" stroke="black" d="M153.86,-445.899C137.04,-440.76 115.884,-431.807 102.165,-417 96.1913,-410.553 92.171,-401.98 89.4774,-393.756"/>
<polygon fill="black" stroke="black" points="92.8379,-392.776 86.8077,-384.065 86.0892,-394.635 92.8379,-392.776"/>
<text text-anchor="middle" x="122.665" y="-405.8" font-family="Times,serif" font-size="14.00">0.371</text>
</g>
<!-- Im -->
<g id="node6" class="node"><title>Im</title>
<ellipse fill="none" stroke="black" cx="332.165" cy="-192" rx="27" ry="18"/>
<text text-anchor="middle" x="332.165" y="-188.3" font-family="Times,serif" font-size="14.00">Im</text>
</g>
<!-- Use&#45;&gt;Im -->
<g id="edge5" class="edge"><title>Use&#45;&gt;Im</title>
<path fill="none" stroke="black" d="M208.617,-450.074C234.491,-446.932 272.323,-438.675 297.165,-417 353.552,-367.801 345.49,-268.133 337.607,-220.093"/>
<polygon fill="black" stroke="black" points="341.032,-219.364 335.849,-210.124 334.139,-220.579 341.032,-219.364"/>
<text text-anchor="middle" x="361.665" y="-318.8" font-family="Times,serif" font-size="14.00">0.253</text>
</g>
<!-- Qu -->
<g id="node7" class="node"><title>Qu</title>
<ellipse fill="none" stroke="black" cx="276.165" cy="-366" rx="27" ry="18"/>
<text text-anchor="middle" x="276.165" y="-362.3" font-family="Times,serif" font-size="14.00">Qu</text>
</g>
<!-- Use&#45;&gt;Qu -->
<g id="edge6" class="edge"><title>Use&#45;&gt;Qu</title>
<path fill="none" stroke="black" d="M202.15,-441.303C213.594,-435.125 227.404,-426.668 238.165,-417 246.438,-409.568 254.151,-400.12 260.437,-391.444"/>
<polygon fill="black" stroke="black" points="263.383,-393.336 266.215,-383.127 257.635,-389.342 263.383,-393.336"/>
<text text-anchor="middle" x="272.665" y="-405.8" font-family="Times,serif" font-size="14.00">0.231</text>
</g>
<!-- Pf -->
<g id="node9" class="node"><title>Pf</title>
<ellipse fill="none" stroke="black" cx="154.165" cy="-279" rx="27" ry="18"/>
<text text-anchor="middle" x="154.165" y="-275.3" font-family="Times,serif" font-size="14.00">Pf</text>
</g>
<!-- Use&#45;&gt;Pf -->
<g id="edge12" class="edge"><title>Use&#45;&gt;Pf</title>
<path fill="none" stroke="black" d="M151.739,-450.272C111.598,-446.12 39.5903,-432.002 7.16486,-384 -25.2213,-336.056 66.047,-303.079 119.107,-288.485"/>
<polygon fill="black" stroke="black" points="120.083,-291.848 128.847,-285.894 118.283,-285.083 120.083,-291.848"/>
<text text-anchor="middle" x="27.6649" y="-362.3" font-family="Times,serif" font-size="14.00">0.124</text>
</g>
<!-- BI&#45;&gt;Use -->
<g id="edge2" class="edge"><title>BI&#45;&gt;Use</title>
<path fill="none" stroke="black" d="M173.668,-380.068C180.136,-385.968 186.725,-393.522 190.165,-402 193.173,-409.415 192.811,-417.827 191.082,-425.608"/>
<polygon fill="black" stroke="black" points="187.685,-424.753 188.192,-435.336 194.395,-426.747 187.685,-424.753"/>
<text text-anchor="middle" x="213.665" y="-405.8" font-family="Times,serif" font-size="14.00">0.447</text>
</g>
<!-- ENJ -->
<g id="node4" class="node"><title>ENJ</title>
<ellipse fill="none" stroke="black" cx="229.165" cy="-279" rx="29.795" ry="18"/>
<text text-anchor="middle" x="229.165" y="-275.3" font-family="Times,serif" font-size="14.00">ENJ</text>
</g>
<!-- BI&#45;&gt;ENJ -->
<g id="edge8" class="edge"><title>BI&#45;&gt;ENJ</title>
<path fill="none" stroke="black" d="M175.104,-352.857C183.739,-346.708 193.68,-338.706 201.165,-330 207.318,-322.842 212.757,-314.123 217.165,-305.982"/>
<polygon fill="black" stroke="black" points="220.413,-307.317 221.847,-296.819 214.18,-304.131 220.413,-307.317"/>
<text text-anchor="middle" x="232.665" y="-318.8" font-family="Times,serif" font-size="14.00">0.224</text>
</g>
<!-- BI&#45;&gt;Pf -->
<g id="edge13" class="edge"><title>BI&#45;&gt;Pf</title>
<path fill="none" stroke="black" d="M155.76,-347.799C155.486,-336.163 155.119,-320.548 154.806,-307.237"/>
<polygon fill="black" stroke="black" points="158.303,-307.09 154.569,-297.175 151.305,-307.255 158.303,-307.09"/>
<text text-anchor="middle" x="176.665" y="-318.8" font-family="Times,serif" font-size="14.00">0.124</text>
</g>
<!-- JR -->
<g id="node10" class="node"><title>JR</title>
<ellipse fill="none" stroke="black" cx="230.165" cy="-18" rx="27" ry="18"/>
<text text-anchor="middle" x="230.165" y="-14.3" font-family="Times,serif" font-size="14.00">JR</text>
</g>
<!-- BI&#45;&gt;JR -->
<g id="edge16" class="edge"><title>BI&#45;&gt;JR</title>
<path fill="none" stroke="black" d="M139.389,-351.589C122.259,-336.267 98.1649,-309.477 98.1649,-280 98.1649,-280 98.1649,-280 98.1649,-104 98.1649,-57.9887 155.559,-35.6985 194.656,-25.852"/>
<polygon fill="black" stroke="black" points="195.47,-29.2563 204.401,-23.5561 193.864,-22.4428 195.47,-29.2563"/>
<text text-anchor="middle" x="118.665" y="-188.3" font-family="Times,serif" font-size="14.00">0.122</text>
</g>
<!-- PEU -->
<g id="node5" class="node"><title>PEU</title>
<ellipse fill="none" stroke="black" cx="256.165" cy="-192" rx="31.3957" ry="18"/>
<text text-anchor="middle" x="256.165" y="-188.3" font-family="Times,serif" font-size="14.00">PEU</text>
</g>
<!-- ENJ&#45;&gt;PEU -->
<g id="edge4" class="edge"><title>ENJ&#45;&gt;PEU</title>
<path fill="none" stroke="black" d="M241.749,-262.511C245.779,-256.722 249.805,-249.877 252.165,-243 254.624,-235.834 255.874,-227.764 256.452,-220.232"/>
<polygon fill="black" stroke="black" points="259.955,-220.231 256.879,-210.093 252.961,-219.937 259.955,-220.231"/>
<text text-anchor="middle" x="276.665" y="-231.8" font-family="Times,serif" font-size="14.00">0.263</text>
</g>
<!-- PEU&#45;&gt;ENJ -->
<g id="edge7" class="edge"><title>PEU&#45;&gt;ENJ</title>
<path fill="none" stroke="black" d="M232.438,-203.73C222.751,-209.446 212.57,-217.496 207.165,-228 202.831,-236.422 205.227,-245.883 209.762,-254.29"/>
<polygon fill="black" stroke="black" points="206.949,-256.386 215.304,-262.9 212.834,-252.597 206.949,-256.386"/>
<text text-anchor="middle" x="227.665" y="-231.8" font-family="Times,serif" font-size="14.00">0.224</text>
</g>
<!-- SA -->
<g id="node8" class="node"><title>SA</title>
<ellipse fill="none" stroke="black" cx="230.165" cy="-105" rx="27" ry="18"/>
<text text-anchor="middle" x="230.165" y="-101.3" font-family="Times,serif" font-size="14.00">SA</text>
</g>
<!-- PEU&#45;&gt;SA -->
<g id="edge9" class="edge"><title>PEU&#45;&gt;SA</title>
<path fill="none" stroke="black" d="M242.246,-175.745C237.843,-169.979 233.515,-163.088 231.165,-156 228.788,-148.83 227.911,-140.759 227.789,-133.227"/>
<polygon fill="black" stroke="black" points="231.291,-133.173 228.042,-123.088 224.294,-132.998 231.291,-133.173"/>
<text text-anchor="middle" x="247.165" y="-144.8" font-family="Times,serif" font-size="14.00">0.17</text>
</g>
<!-- Im&#45;&gt;SA -->
<g id="edge10" class="edge"><title>Im&#45;&gt;SA</title>
<path fill="none" stroke="black" d="M314.439,-178.021C305.787,-171.559 295.3,-163.534 286.165,-156 275.057,-146.839 263.108,-136.274 253.112,-127.222"/>
<polygon fill="black" stroke="black" points="255.316,-124.495 245.568,-120.343 250.599,-129.667 255.316,-124.495"/>
<text text-anchor="middle" x="302.165" y="-144.8" font-family="Times,serif" font-size="14.00">0.17</text>
</g>
<!-- Im&#45;&gt;JR -->
<g id="edge14" class="edge"><title>Im&#45;&gt;JR</title>
<path fill="none" stroke="black" d="M328.396,-173.752C321.645,-146.028 305.295,-90.9257 275.165,-54 270.175,-47.8844 263.927,-42.1824 257.689,-37.2299"/>
<polygon fill="black" stroke="black" points="259.414,-34.1506 249.307,-30.9726 255.227,-39.7597 259.414,-34.1506"/>
<text text-anchor="middle" x="333.665" y="-101.3" font-family="Times,serif" font-size="14.00">0.122</text>
</g>
<!-- SA&#45;&gt;JR -->
<g id="edge15" class="edge"><title>SA&#45;&gt;JR</title>
<path fill="none" stroke="black" d="M230.165,-86.799C230.165,-75.1626 230.165,-59.5479 230.165,-46.2368"/>
<polygon fill="black" stroke="black" points="233.665,-46.1754 230.165,-36.1754 226.665,-46.1755 233.665,-46.1754"/>
<text text-anchor="middle" x="250.665" y="-57.8" font-family="Times,serif" font-size="14.00">0.122</text>
</g>
<!-- Pf&#45;&gt;SA -->
<g id="edge11" class="edge"><title>Pf&#45;&gt;SA</title>
<path fill="none" stroke="black" d="M157.385,-260.843C161.733,-239.729 170.542,-203.103 184.165,-174 191.578,-158.163 202.451,-141.887 211.765,-129.231"/>
<polygon fill="black" stroke="black" points="214.673,-131.188 217.902,-121.097 209.085,-126.972 214.673,-131.188"/>
<text text-anchor="middle" x="200.165" y="-188.3" font-family="Times,serif" font-size="14.00">0.17</text>
</g>
</g>
</svg>
