<?xml version="1.0" encoding="UTF-8" standalone="no"?>
<!DOCTYPE svg PUBLIC "-//W3C//DTD SVG 1.1//EN"
 "http://www.w3.org/Graphics/SVG/1.1/DTD/svg11.dtd">
<!-- Generated by graphviz version 2.38.0 (20140413.2041)
 -->
<!-- Title: G Pages: 1 -->
<svg width="389pt" height="566pt"
 viewBox="0.00 0.00 389.00 566.00" xmlns="http://www.w3.org/2000/svg" xmlns:xlink="http://www.w3.org/1999/xlink">
<g id="graph0" class="graph" transform="scale(1 1) rotate(0) translate(4 562)">
<title>G</title>
<polygon fill="white" stroke="none" points="-4,4 -4,-562 385,-562 385,4 -4,4"/>
<!-- Use -->
<g id="node1" class="node"><title>Use</title>
<ellipse fill="none" stroke="black" cx="167" cy="-540" rx="28.6953" ry="18"/>
<text text-anchor="middle" x="167" y="-536.3" font-family="Times,serif" font-size="14.00">Use</text>
</g>
<!-- BI -->
<g id="node2" class="node"><title>BI</title>
<ellipse fill="none" stroke="black" cx="107" cy="-453" rx="27" ry="18"/>
<text text-anchor="middle" x="107" y="-449.3" font-family="Times,serif" font-size="14.00">BI</text>
</g>
<!-- Use&#45;&gt;BI -->
<g id="edge1" class="edge"><title>Use&#45;&gt;BI</title>
<path fill="none" stroke="black" d="M141.269,-531.728C127.626,-526.416 112.058,-517.695 104,-504 99.9524,-497.121 99.1927,-488.748 99.8836,-480.836"/>
<polygon fill="black" stroke="black" points="103.355,-481.291 101.473,-470.865 96.4424,-480.189 103.355,-481.291"/>
<text text-anchor="middle" x="124.5" y="-492.8" font-family="Times,serif" font-size="14.00">0.481</text>
</g>
<!-- PU -->
<g id="node3" class="node"><title>PU</title>
<ellipse fill="none" stroke="black" cx="231" cy="-453" rx="27" ry="18"/>
<text text-anchor="middle" x="231" y="-449.3" font-family="Times,serif" font-size="14.00">PU</text>
</g>
<!-- Use&#45;&gt;PU -->
<g id="edge3" class="edge"><title>Use&#45;&gt;PU</title>
<path fill="none" stroke="black" d="M181.609,-524.161C187.284,-518.111 193.684,-510.921 199,-504 205.021,-496.161 211.022,-487.178 216.173,-479.009"/>
<polygon fill="black" stroke="black" points="219.313,-480.584 221.583,-470.235 213.355,-476.91 219.313,-480.584"/>
<text text-anchor="middle" x="230.5" y="-492.8" font-family="Times,serif" font-size="14.00">0.348</text>
</g>
<!-- Im -->
<g id="node7" class="node"><title>Im</title>
<ellipse fill="none" stroke="black" cx="303" cy="-453" rx="27" ry="18"/>
<text text-anchor="middle" x="303" y="-449.3" font-family="Times,serif" font-size="14.00">Im</text>
</g>
<!-- Use&#45;&gt;Im -->
<g id="edge7" class="edge"><title>Use&#45;&gt;Im</title>
<path fill="none" stroke="black" d="M192.675,-531.991C211.022,-526.243 235.764,-516.94 255,-504 265.966,-496.623 276.357,-486.373 284.649,-477.073"/>
<polygon fill="black" stroke="black" points="287.51,-479.113 291.356,-469.241 282.193,-474.56 287.51,-479.113"/>
<text text-anchor="middle" x="293.5" y="-492.8" font-family="Times,serif" font-size="14.00">0.203</text>
</g>
<!-- Pf -->
<g id="node9" class="node"><title>Pf</title>
<ellipse fill="none" stroke="black" cx="70" cy="-18" rx="27" ry="18"/>
<text text-anchor="middle" x="70" y="-14.3" font-family="Times,serif" font-size="14.00">Pf</text>
</g>
<!-- Use&#45;&gt;Pf -->
<g id="edge16" class="edge"><title>Use&#45;&gt;Pf</title>
<path fill="none" stroke="black" d="M138.671,-537.216C91.0249,-532.514 0,-515.486 0,-454 0,-454 0,-454 0,-104 0,-75.8981 23.0809,-52.0427 42.7357,-36.8229"/>
<polygon fill="black" stroke="black" points="44.8881,-39.5846 50.8722,-30.8416 40.7419,-33.9446 44.8881,-39.5846"/>
<text text-anchor="middle" x="20.5" y="-275.3" font-family="Times,serif" font-size="14.00">0.109</text>
</g>
<!-- BI&#45;&gt;Use -->
<g id="edge2" class="edge"><title>BI&#45;&gt;Use</title>
<path fill="none" stroke="black" d="M124,-467.006C131.156,-473.106 139.159,-480.827 145,-489 150.096,-496.131 154.38,-504.63 157.774,-512.58"/>
<polygon fill="black" stroke="black" points="154.522,-513.875 161.467,-521.876 161.028,-511.29 154.522,-513.875"/>
<text text-anchor="middle" x="174.5" y="-492.8" font-family="Times,serif" font-size="14.00">0.442</text>
</g>
<!-- ENJ -->
<g id="node4" class="node"><title>ENJ</title>
<ellipse fill="none" stroke="black" cx="104" cy="-366" rx="29.795" ry="18"/>
<text text-anchor="middle" x="104" y="-362.3" font-family="Times,serif" font-size="14.00">ENJ</text>
</g>
<!-- BI&#45;&gt;ENJ -->
<g id="edge9" class="edge"><title>BI&#45;&gt;ENJ</title>
<path fill="none" stroke="black" d="M106.393,-434.799C105.982,-423.163 105.431,-407.548 104.961,-394.237"/>
<polygon fill="black" stroke="black" points="108.457,-394.046 104.606,-384.175 101.461,-394.293 108.457,-394.046"/>
<text text-anchor="middle" x="126.5" y="-405.8" font-family="Times,serif" font-size="14.00">0.177</text>
</g>
<!-- JR -->
<g id="node10" class="node"><title>JR</title>
<ellipse fill="none" stroke="black" cx="285" cy="-366" rx="27" ry="18"/>
<text text-anchor="middle" x="285" y="-362.3" font-family="Times,serif" font-size="14.00">JR</text>
</g>
<!-- BI&#45;&gt;JR -->
<g id="edge18" class="edge"><title>BI&#45;&gt;JR</title>
<path fill="none" stroke="black" d="M128.259,-441.563C149.054,-431.381 181.642,-415.499 210,-402 224.407,-395.142 240.428,-387.648 253.951,-381.36"/>
<polygon fill="black" stroke="black" points="255.701,-384.406 263.297,-377.021 252.753,-378.057 255.701,-384.406"/>
<text text-anchor="middle" x="230.5" y="-405.8" font-family="Times,serif" font-size="14.00">0.099</text>
</g>
<!-- Qu -->
<g id="node6" class="node"><title>Qu</title>
<ellipse fill="none" stroke="black" cx="220" cy="-192" rx="27" ry="18"/>
<text text-anchor="middle" x="220" y="-188.3" font-family="Times,serif" font-size="14.00">Qu</text>
</g>
<!-- PU&#45;&gt;Qu -->
<g id="edge5" class="edge"><title>PU&#45;&gt;Qu</title>
<path fill="none" stroke="black" d="M230.278,-435.006C228.414,-391.102 223.423,-273.6 221.153,-220.147"/>
<polygon fill="black" stroke="black" points="224.646,-219.899 220.724,-210.056 217.652,-220.196 224.646,-219.899"/>
<text text-anchor="middle" x="242" y="-318.8" font-family="Times,serif" font-size="14.00">0.21</text>
</g>
<!-- SA -->
<g id="node8" class="node"><title>SA</title>
<ellipse fill="none" stroke="black" cx="134" cy="-105" rx="27" ry="18"/>
<text text-anchor="middle" x="134" y="-101.3" font-family="Times,serif" font-size="14.00">SA</text>
</g>
<!-- PU&#45;&gt;SA -->
<g id="edge11" class="edge"><title>PU&#45;&gt;SA</title>
<path fill="none" stroke="black" d="M252.29,-441.867C257.119,-439.591 262.23,-437.199 267,-435 307.266,-416.435 340,-411.34 340,-367 340,-367 340,-367 340,-191 340,-118.918 230.887,-106.734 171.483,-105.443"/>
<polygon fill="black" stroke="black" points="171.398,-101.941 161.355,-105.317 171.311,-108.941 171.398,-101.941"/>
<text text-anchor="middle" x="360.5" y="-275.3" font-family="Times,serif" font-size="14.00">0.159</text>
</g>
<!-- PU&#45;&gt;JR -->
<g id="edge17" class="edge"><title>PU&#45;&gt;JR</title>
<path fill="none" stroke="black" d="M241.157,-436.012C249.077,-423.546 260.215,-406.013 269.283,-391.739"/>
<polygon fill="black" stroke="black" points="272.48,-393.234 274.889,-382.916 266.572,-389.48 272.48,-393.234"/>
<text text-anchor="middle" x="282.5" y="-405.8" font-family="Times,serif" font-size="14.00">0.099</text>
</g>
<!-- PEU -->
<g id="node5" class="node"><title>PEU</title>
<ellipse fill="none" stroke="black" cx="150" cy="-279" rx="31.3957" ry="18"/>
<text text-anchor="middle" x="150" y="-275.3" font-family="Times,serif" font-size="14.00">PEU</text>
</g>
<!-- ENJ&#45;&gt;PEU -->
<g id="edge4" class="edge"><title>ENJ&#45;&gt;PEU</title>
<path fill="none" stroke="black" d="M123.985,-352.269C131.502,-346.42 139.348,-338.813 144,-330 147.648,-323.09 149.48,-314.91 150.319,-307.19"/>
<polygon fill="black" stroke="black" points="153.819,-307.302 150.926,-297.109 146.831,-306.881 153.819,-307.302"/>
<text text-anchor="middle" x="169.5" y="-318.8" font-family="Times,serif" font-size="14.00">0.249</text>
</g>
<!-- ENJ&#45;&gt;SA -->
<g id="edge10" class="edge"><title>ENJ&#45;&gt;SA</title>
<path fill="none" stroke="black" d="M96.9849,-348.202C94.9547,-342.525 93.0138,-336.083 92,-330 90.904,-323.424 91.6945,-321.66 92,-315 93.7796,-276.211 92.9817,-266.19 100,-228 106.155,-194.507 117.307,-156.887 125.157,-132.392"/>
<polygon fill="black" stroke="black" points="128.529,-133.341 128.295,-122.748 121.872,-131.175 128.529,-133.341"/>
<text text-anchor="middle" x="120.5" y="-231.8" font-family="Times,serif" font-size="14.00">0.159</text>
</g>
<!-- PEU&#45;&gt;ENJ -->
<g id="edge8" class="edge"><title>PEU&#45;&gt;ENJ</title>
<path fill="none" stroke="black" d="M125.598,-290.361C115.441,-296.042 104.704,-304.168 99,-315 95.2695,-322.085 94.8566,-330.516 95.8619,-338.418"/>
<polygon fill="black" stroke="black" points="92.4529,-339.221 97.8408,-348.343 99.3178,-337.852 92.4529,-339.221"/>
<text text-anchor="middle" x="119.5" y="-318.8" font-family="Times,serif" font-size="14.00">0.177</text>
</g>
<!-- PEU&#45;&gt;Qu -->
<g id="edge6" class="edge"><title>PEU&#45;&gt;Qu</title>
<path fill="none" stroke="black" d="M159.933,-261.642C166.33,-251.575 175.091,-238.613 184,-228 187.949,-223.295 192.452,-218.528 196.905,-214.09"/>
<polygon fill="black" stroke="black" points="199.483,-216.466 204.244,-207.001 194.62,-211.432 199.483,-216.466"/>
<text text-anchor="middle" x="200" y="-231.8" font-family="Times,serif" font-size="14.00">0.21</text>
</g>
<!-- PEU&#45;&gt;SA -->
<g id="edge12" class="edge"><title>PEU&#45;&gt;SA</title>
<path fill="none" stroke="black" d="M148.168,-260.961C146.709,-247.211 144.645,-227.368 143,-210 140.54,-184.035 138.002,-154.396 136.25,-133.42"/>
<polygon fill="black" stroke="black" points="139.726,-132.982 135.411,-123.305 132.75,-133.561 139.726,-132.982"/>
<text text-anchor="middle" x="163.5" y="-188.3" font-family="Times,serif" font-size="14.00">0.159</text>
</g>
<!-- Qu&#45;&gt;SA -->
<g id="edge14" class="edge"><title>Qu&#45;&gt;SA</title>
<path fill="none" stroke="black" d="M205.411,-176.581C191.821,-163.148 171.377,-142.942 155.841,-127.587"/>
<polygon fill="black" stroke="black" points="158.233,-125.03 148.66,-120.49 153.312,-130.009 158.233,-125.03"/>
<text text-anchor="middle" x="203.5" y="-144.8" font-family="Times,serif" font-size="14.00">0.159</text>
</g>
<!-- SA&#45;&gt;Pf -->
<g id="edge15" class="edge"><title>SA&#45;&gt;Pf</title>
<path fill="none" stroke="black" d="M128.815,-87.211C125.143,-76.9823 119.529,-64.0014 112,-54 107.628,-48.1918 102.112,-42.726 96.5284,-37.9178"/>
<polygon fill="black" stroke="black" points="98.4054,-34.9351 88.4248,-31.3802 94.0102,-40.3832 98.4054,-34.9351"/>
<text text-anchor="middle" x="141.5" y="-57.8" font-family="Times,serif" font-size="14.00">0.109</text>
</g>
<!-- Pf&#45;&gt;SA -->
<g id="edge13" class="edge"><title>Pf&#45;&gt;SA</title>
<path fill="none" stroke="black" d="M66.3164,-35.9173C65.0084,-46.1944 65.0895,-59.181 71,-69 77.6039,-79.971 88.9966,-87.7639 100.294,-93.1663"/>
<polygon fill="black" stroke="black" points="99.0819,-96.4546 109.653,-97.1594 101.829,-90.016 99.0819,-96.4546"/>
<text text-anchor="middle" x="91.5" y="-57.8" font-family="Times,serif" font-size="14.00">0.159</text>
</g>
</g>
</svg>
