<?xml version="1.0" encoding="UTF-8" standalone="no"?>
<!DOCTYPE svg PUBLIC "-//W3C//DTD SVG 1.1//EN"
 "http://www.w3.org/Graphics/SVG/1.1/DTD/svg11.dtd">
<!-- Generated by graphviz version 2.38.0 (20140413.2041)
 -->
<!-- Title: G Pages: 1 -->
<svg width="268pt" height="392pt"
 viewBox="0.00 0.00 268.00 392.00" xmlns="http://www.w3.org/2000/svg" xmlns:xlink="http://www.w3.org/1999/xlink">
<g id="graph0" class="graph" transform="scale(1 1) rotate(0) translate(4 388)">
<title>G</title>
<polygon fill="white" stroke="none" points="-4,4 -4,-388 264,-388 264,4 -4,4"/>
<!-- SA -->
<g id="node1" class="node"><title>SA</title>
<ellipse fill="none" stroke="black" cx="27" cy="-279" rx="27" ry="18"/>
<text text-anchor="middle" x="27" y="-275.3" font-family="Times,serif" font-size="14.00">SA</text>
</g>
<!-- BI -->
<g id="node2" class="node"><title>BI</title>
<ellipse fill="none" stroke="black" cx="27" cy="-192" rx="27" ry="18"/>
<text text-anchor="middle" x="27" y="-188.3" font-family="Times,serif" font-size="14.00">BI</text>
</g>
<!-- SA&#45;&gt;BI -->
<g id="edge1" class="edge"><title>SA&#45;&gt;BI</title>
<path fill="none" stroke="black" d="M27,-260.799C27,-249.163 27,-233.548 27,-220.237"/>
<polygon fill="black" stroke="black" points="30.5001,-220.175 27,-210.175 23.5001,-220.175 30.5001,-220.175"/>
<text text-anchor="middle" x="43" y="-231.8" font-family="Times,serif" font-size="14.00">0.05</text>
</g>
<!-- ENJ -->
<g id="node3" class="node"><title>ENJ</title>
<ellipse fill="none" stroke="black" cx="123" cy="-366" rx="29.795" ry="18"/>
<text text-anchor="middle" x="123" y="-362.3" font-family="Times,serif" font-size="14.00">ENJ</text>
</g>
<!-- ENJ&#45;&gt;SA -->
<g id="edge8" class="edge"><title>ENJ&#45;&gt;SA</title>
<path fill="none" stroke="black" d="M95.6402,-358.268C79.3216,-352.998 59.2641,-344.134 46,-330 39.9462,-323.549 35.7669,-314.975 32.9053,-306.752"/>
<polygon fill="black" stroke="black" points="36.2301,-305.653 30.0308,-297.061 29.5191,-307.644 36.2301,-305.653"/>
<text text-anchor="middle" x="66.5" y="-318.8" font-family="Times,serif" font-size="14.00">0.017</text>
</g>
<!-- Use -->
<g id="node4" class="node"><title>Use</title>
<ellipse fill="none" stroke="black" cx="121" cy="-279" rx="28.6953" ry="18"/>
<text text-anchor="middle" x="121" y="-275.3" font-family="Times,serif" font-size="14.00">Use</text>
</g>
<!-- ENJ&#45;&gt;Use -->
<g id="edge2" class="edge"><title>ENJ&#45;&gt;Use</title>
<path fill="none" stroke="black" d="M106.357,-350.984C100.67,-345.15 94.993,-337.893 92,-330 88.3709,-320.429 92.2376,-310.548 98.203,-302.122"/>
<polygon fill="black" stroke="black" points="101.028,-304.197 104.668,-294.248 95.6174,-299.756 101.028,-304.197"/>
<text text-anchor="middle" x="112.5" y="-318.8" font-family="Times,serif" font-size="14.00">0.045</text>
</g>
<!-- PEU -->
<g id="node7" class="node"><title>PEU</title>
<ellipse fill="none" stroke="black" cx="219" cy="-279" rx="31.3957" ry="18"/>
<text text-anchor="middle" x="219" y="-275.3" font-family="Times,serif" font-size="14.00">PEU</text>
</g>
<!-- ENJ&#45;&gt;PEU -->
<g id="edge4" class="edge"><title>ENJ&#45;&gt;PEU</title>
<path fill="none" stroke="black" d="M144.921,-353.606C155.777,-347.409 168.723,-339.147 179,-330 187.47,-322.461 195.54,-312.992 202.185,-304.328"/>
<polygon fill="black" stroke="black" points="205.187,-306.155 208.317,-296.033 199.558,-301.994 205.187,-306.155"/>
<text text-anchor="middle" x="213.5" y="-318.8" font-family="Times,serif" font-size="14.00">0.026</text>
</g>
<!-- Use&#45;&gt;ENJ -->
<g id="edge7" class="edge"><title>Use&#45;&gt;ENJ</title>
<path fill="none" stroke="black" d="M128.015,-296.798C130.045,-302.475 131.986,-308.917 133,-315 134.281,-322.684 133.499,-330.994 131.922,-338.591"/>
<polygon fill="black" stroke="black" points="128.505,-337.826 129.397,-348.383 135.283,-339.573 128.505,-337.826"/>
<text text-anchor="middle" x="154.5" y="-318.8" font-family="Times,serif" font-size="14.00">0.022</text>
</g>
<!-- Im -->
<g id="node5" class="node"><title>Im</title>
<ellipse fill="none" stroke="black" cx="121" cy="-192" rx="27" ry="18"/>
<text text-anchor="middle" x="121" y="-188.3" font-family="Times,serif" font-size="14.00">Im</text>
</g>
<!-- Use&#45;&gt;Im -->
<g id="edge5" class="edge"><title>Use&#45;&gt;Im</title>
<path fill="none" stroke="black" d="M121,-260.799C121,-249.163 121,-233.548 121,-220.237"/>
<polygon fill="black" stroke="black" points="124.5,-220.175 121,-210.175 117.5,-220.175 124.5,-220.175"/>
<text text-anchor="middle" x="141.5" y="-231.8" font-family="Times,serif" font-size="14.00">0.025</text>
</g>
<!-- PU -->
<g id="node6" class="node"><title>PU</title>
<ellipse fill="none" stroke="black" cx="85" cy="-105" rx="27" ry="18"/>
<text text-anchor="middle" x="85" y="-101.3" font-family="Times,serif" font-size="14.00">PU</text>
</g>
<!-- Im&#45;&gt;PU -->
<g id="edge3" class="edge"><title>Im&#45;&gt;PU</title>
<path fill="none" stroke="black" d="M107.171,-176.352C102.3,-170.44 97.2368,-163.295 94,-156 90.8522,-148.905 88.8051,-140.78 87.4738,-133.171"/>
<polygon fill="black" stroke="black" points="90.9377,-132.669 86.0661,-123.26 84.0073,-133.653 90.9377,-132.669"/>
<text text-anchor="middle" x="114.5" y="-144.8" font-family="Times,serif" font-size="14.00">0.037</text>
</g>
<!-- JR -->
<g id="node10" class="node"><title>JR</title>
<ellipse fill="none" stroke="black" cx="157" cy="-105" rx="27" ry="18"/>
<text text-anchor="middle" x="157" y="-101.3" font-family="Times,serif" font-size="14.00">JR</text>
</g>
<!-- Im&#45;&gt;JR -->
<g id="edge10" class="edge"><title>Im&#45;&gt;JR</title>
<path fill="none" stroke="black" d="M128.112,-174.207C133.224,-162.138 140.212,-145.638 146.035,-131.891"/>
<polygon fill="black" stroke="black" points="149.348,-133.042 150.025,-122.469 142.902,-130.312 149.348,-133.042"/>
<text text-anchor="middle" x="162.5" y="-144.8" font-family="Times,serif" font-size="14.00">0.012</text>
</g>
<!-- Qu -->
<g id="node8" class="node"><title>Qu</title>
<ellipse fill="none" stroke="black" cx="85" cy="-18" rx="27" ry="18"/>
<text text-anchor="middle" x="85" y="-14.3" font-family="Times,serif" font-size="14.00">Qu</text>
</g>
<!-- PU&#45;&gt;Qu -->
<g id="edge6" class="edge"><title>PU&#45;&gt;Qu</title>
<path fill="none" stroke="black" d="M85,-86.799C85,-75.1626 85,-59.5479 85,-46.2368"/>
<polygon fill="black" stroke="black" points="88.5001,-46.1754 85,-36.1754 81.5001,-46.1755 88.5001,-46.1754"/>
<text text-anchor="middle" x="105.5" y="-57.8" font-family="Times,serif" font-size="14.00">0.023</text>
</g>
<!-- Pf -->
<g id="node9" class="node"><title>Pf</title>
<ellipse fill="none" stroke="black" cx="219" cy="-192" rx="27" ry="18"/>
<text text-anchor="middle" x="219" y="-188.3" font-family="Times,serif" font-size="14.00">Pf</text>
</g>
<!-- PEU&#45;&gt;Pf -->
<g id="edge9" class="edge"><title>PEU&#45;&gt;Pf</title>
<path fill="none" stroke="black" d="M219,-260.799C219,-249.163 219,-233.548 219,-220.237"/>
<polygon fill="black" stroke="black" points="222.5,-220.175 219,-210.175 215.5,-220.175 222.5,-220.175"/>
<text text-anchor="middle" x="239.5" y="-231.8" font-family="Times,serif" font-size="14.00">0.012</text>
</g>
</g>
</svg>
