<?xml version="1.0" encoding="UTF-8" standalone="no"?>
<!DOCTYPE svg PUBLIC "-//W3C//DTD SVG 1.1//EN"
 "http://www.w3.org/Graphics/SVG/1.1/DTD/svg11.dtd">
<!-- Generated by graphviz version 2.38.0 (20140413.2041)
 -->
<!-- Title: G Pages: 1 -->
<svg width="323pt" height="392pt"
 viewBox="0.00 0.00 323.00 392.00" xmlns="http://www.w3.org/2000/svg" xmlns:xlink="http://www.w3.org/1999/xlink">
<g id="graph0" class="graph" transform="scale(1 1) rotate(0) translate(4 388)">
<title>G</title>
<polygon fill="white" stroke="none" points="-4,4 -4,-388 319,-388 319,4 -4,4"/>
<!-- Qu -->
<g id="node1" class="node"><title>Qu</title>
<ellipse fill="none" stroke="black" cx="90" cy="-366" rx="27" ry="18"/>
<text text-anchor="middle" x="90" y="-362.3" font-family="Times,serif" font-size="14.00">Qu</text>
</g>
<!-- BI -->
<g id="node2" class="node"><title>BI</title>
<ellipse fill="none" stroke="black" cx="27" cy="-279" rx="27" ry="18"/>
<text text-anchor="middle" x="27" y="-275.3" font-family="Times,serif" font-size="14.00">BI</text>
</g>
<!-- Qu&#45;&gt;BI -->
<g id="edge1" class="edge"><title>Qu&#45;&gt;BI</title>
<path fill="none" stroke="black" d="M67.3586,-356.035C55.8521,-350.307 42.7072,-341.729 35,-330 30.5691,-323.257 28.2871,-314.922 27.1826,-307.004"/>
<polygon fill="black" stroke="black" points="30.6667,-306.668 26.3272,-297.003 23.6922,-307.265 30.6667,-306.668"/>
<text text-anchor="middle" x="55.5" y="-318.8" font-family="Times,serif" font-size="14.00">0.048</text>
</g>
<!-- SA -->
<g id="node8" class="node"><title>SA</title>
<ellipse fill="none" stroke="black" cx="176" cy="-279" rx="27" ry="18"/>
<text text-anchor="middle" x="176" y="-275.3" font-family="Times,serif" font-size="14.00">SA</text>
</g>
<!-- Qu&#45;&gt;SA -->
<g id="edge8" class="edge"><title>Qu&#45;&gt;SA</title>
<path fill="none" stroke="black" d="M104.589,-350.581C118.179,-337.148 138.623,-316.942 154.159,-301.587"/>
<polygon fill="black" stroke="black" points="156.688,-304.009 161.34,-294.49 151.767,-299.03 156.688,-304.009"/>
<text text-anchor="middle" x="159.5" y="-318.8" font-family="Times,serif" font-size="14.00">0.016</text>
</g>
<!-- Pf -->
<g id="node7" class="node"><title>Pf</title>
<ellipse fill="none" stroke="black" cx="61" cy="-192" rx="27" ry="18"/>
<text text-anchor="middle" x="61" y="-188.3" font-family="Times,serif" font-size="14.00">Pf</text>
</g>
<!-- BI&#45;&gt;Pf -->
<g id="edge9" class="edge"><title>BI&#45;&gt;Pf</title>
<path fill="none" stroke="black" d="M27.723,-260.777C28.6307,-250.869 30.6307,-238.369 35,-228 36.7195,-223.919 39.0108,-219.876 41.5228,-216.066"/>
<polygon fill="black" stroke="black" points="44.5633,-217.836 47.6195,-207.692 38.9042,-213.716 44.5633,-217.836"/>
<text text-anchor="middle" x="55.5" y="-231.8" font-family="Times,serif" font-size="14.00">0.011</text>
</g>
<!-- Im -->
<g id="node3" class="node"><title>Im</title>
<ellipse fill="none" stroke="black" cx="176" cy="-192" rx="27" ry="18"/>
<text text-anchor="middle" x="176" y="-188.3" font-family="Times,serif" font-size="14.00">Im</text>
</g>
<!-- Use -->
<g id="node4" class="node"><title>Use</title>
<ellipse fill="none" stroke="black" cx="139" cy="-105" rx="28.6953" ry="18"/>
<text text-anchor="middle" x="139" y="-101.3" font-family="Times,serif" font-size="14.00">Use</text>
</g>
<!-- Im&#45;&gt;Use -->
<g id="edge2" class="edge"><title>Im&#45;&gt;Use</title>
<path fill="none" stroke="black" d="M162.84,-176.212C158.169,-170.283 153.265,-163.163 150,-156 146.756,-148.883 144.442,-140.751 142.802,-133.142"/>
<polygon fill="black" stroke="black" points="146.23,-132.428 140.961,-123.236 139.348,-133.707 146.23,-132.428"/>
<text text-anchor="middle" x="170.5" y="-144.8" font-family="Times,serif" font-size="14.00">0.044</text>
</g>
<!-- JR -->
<g id="node10" class="node"><title>JR</title>
<ellipse fill="none" stroke="black" cx="213" cy="-105" rx="27" ry="18"/>
<text text-anchor="middle" x="213" y="-101.3" font-family="Times,serif" font-size="14.00">JR</text>
</g>
<!-- Im&#45;&gt;JR -->
<g id="edge10" class="edge"><title>Im&#45;&gt;JR</title>
<path fill="none" stroke="black" d="M183.134,-174.611C188.372,-162.577 195.596,-145.983 201.627,-132.128"/>
<polygon fill="black" stroke="black" points="204.98,-133.195 205.762,-122.629 198.561,-130.401 204.98,-133.195"/>
<text text-anchor="middle" x="213" y="-144.8" font-family="Times,serif" font-size="14.00">0.01</text>
</g>
<!-- ENJ -->
<g id="node9" class="node"><title>ENJ</title>
<ellipse fill="none" stroke="black" cx="139" cy="-18" rx="29.795" ry="18"/>
<text text-anchor="middle" x="139" y="-14.3" font-family="Times,serif" font-size="14.00">ENJ</text>
</g>
<!-- Use&#45;&gt;ENJ -->
<g id="edge7" class="edge"><title>Use&#45;&gt;ENJ</title>
<path fill="none" stroke="black" d="M139,-86.799C139,-75.1626 139,-59.5479 139,-46.2368"/>
<polygon fill="black" stroke="black" points="142.5,-46.1754 139,-36.1754 135.5,-46.1755 142.5,-46.1754"/>
<text text-anchor="middle" x="159.5" y="-57.8" font-family="Times,serif" font-size="14.00">0.018</text>
</g>
<!-- PEU -->
<g id="node5" class="node"><title>PEU</title>
<ellipse fill="none" stroke="black" cx="264" cy="-366" rx="31.3957" ry="18"/>
<text text-anchor="middle" x="264" y="-362.3" font-family="Times,serif" font-size="14.00">PEU</text>
</g>
<!-- PU -->
<g id="node6" class="node"><title>PU</title>
<ellipse fill="none" stroke="black" cx="272" cy="-279" rx="27" ry="18"/>
<text text-anchor="middle" x="272" y="-275.3" font-family="Times,serif" font-size="14.00">PU</text>
</g>
<!-- PEU&#45;&gt;PU -->
<g id="edge3" class="edge"><title>PEU&#45;&gt;PU</title>
<path fill="none" stroke="black" d="M246.22,-350.702C236.443,-341.003 227.34,-327.685 233,-315 235.725,-308.894 240.1,-303.408 244.953,-298.691"/>
<polygon fill="black" stroke="black" points="247.509,-301.109 252.804,-291.932 242.942,-295.804 247.509,-301.109"/>
<text text-anchor="middle" x="253.5" y="-318.8" font-family="Times,serif" font-size="14.00">0.035</text>
</g>
<!-- PU&#45;&gt;PEU -->
<g id="edge4" class="edge"><title>PU&#45;&gt;PEU</title>
<path fill="none" stroke="black" d="M274.198,-297.199C275.057,-306.878 275.518,-319.16 274,-330 273.619,-332.722 273.078,-335.53 272.444,-338.316"/>
<polygon fill="black" stroke="black" points="269.025,-337.552 269.85,-348.115 275.792,-339.344 269.025,-337.552"/>
<text text-anchor="middle" x="294.5" y="-318.8" font-family="Times,serif" font-size="14.00">0.026</text>
</g>
<!-- Pf&#45;&gt;Qu -->
<g id="edge5" class="edge"><title>Pf&#45;&gt;Qu</title>
<path fill="none" stroke="black" d="M69.2326,-209.372C71.7972,-215.129 74.376,-221.728 76,-228 85.629,-265.188 88.686,-309.662 89.6275,-337.627"/>
<polygon fill="black" stroke="black" points="86.1343,-337.933 89.901,-347.835 93.1318,-337.745 86.1343,-337.933"/>
<text text-anchor="middle" x="108.5" y="-275.3" font-family="Times,serif" font-size="14.00">0.021</text>
</g>
<!-- SA&#45;&gt;Im -->
<g id="edge6" class="edge"><title>SA&#45;&gt;Im</title>
<path fill="none" stroke="black" d="M176,-260.799C176,-249.163 176,-233.548 176,-220.237"/>
<polygon fill="black" stroke="black" points="179.5,-220.175 176,-210.175 172.5,-220.175 179.5,-220.175"/>
<text text-anchor="middle" x="192" y="-231.8" font-family="Times,serif" font-size="14.00">0.02</text>
</g>
</g>
</svg>
