<?xml version="1.0" encoding="UTF-8" standalone="no"?>
<!DOCTYPE svg PUBLIC "-//W3C//DTD SVG 1.1//EN"
 "http://www.w3.org/Graphics/SVG/1.1/DTD/svg11.dtd">
<!-- Generated by graphviz version 2.38.0 (20140413.2041)
 -->
<!-- Title: G Pages: 1 -->
<svg width="277pt" height="479pt"
 viewBox="0.00 0.00 276.90 479.00" xmlns="http://www.w3.org/2000/svg" xmlns:xlink="http://www.w3.org/1999/xlink">
<g id="graph0" class="graph" transform="scale(1 1) rotate(0) translate(4 475)">
<title>G</title>
<polygon fill="white" stroke="none" points="-4,4 -4,-475 272.897,-475 272.897,4 -4,4"/>
<!-- PEU -->
<g id="node1" class="node"><title>PEU</title>
<ellipse fill="none" stroke="black" cx="189.897" cy="-453" rx="31.3957" ry="18"/>
<text text-anchor="middle" x="189.897" y="-449.3" font-family="Times,serif" font-size="14.00">PEU</text>
</g>
<!-- Use -->
<g id="node2" class="node"><title>Use</title>
<ellipse fill="none" stroke="black" cx="124.897" cy="-366" rx="28.6953" ry="18"/>
<text text-anchor="middle" x="124.897" y="-362.3" font-family="Times,serif" font-size="14.00">Use</text>
</g>
<!-- PEU&#45;&gt;Use -->
<g id="edge1" class="edge"><title>PEU&#45;&gt;Use</title>
<path fill="none" stroke="black" d="M177.671,-436.012C167.895,-423.228 154.045,-405.116 142.986,-390.654"/>
<polygon fill="black" stroke="black" points="145.704,-388.446 136.849,-382.629 140.143,-392.699 145.704,-388.446"/>
<text text-anchor="middle" x="182.397" y="-405.8" font-family="Times,serif" font-size="14.00">0.039</text>
</g>
<!-- PU -->
<g id="node5" class="node"><title>PU</title>
<ellipse fill="none" stroke="black" cx="29.8973" cy="-279" rx="27" ry="18"/>
<text text-anchor="middle" x="29.8973" y="-275.3" font-family="Times,serif" font-size="14.00">PU</text>
</g>
<!-- Use&#45;&gt;PU -->
<g id="edge3" class="edge"><title>Use&#45;&gt;PU</title>
<path fill="none" stroke="black" d="M101.683,-355.164C89.2421,-349.131 74.1954,-340.539 62.8973,-330 55.2207,-322.839 48.4674,-313.552 43.1028,-304.928"/>
<polygon fill="black" stroke="black" points="46.1169,-303.149 38.0344,-296.299 40.081,-306.694 46.1169,-303.149"/>
<text text-anchor="middle" x="83.3973" y="-318.8" font-family="Times,serif" font-size="14.00">0.026</text>
</g>
<!-- Im -->
<g id="node6" class="node"><title>Im</title>
<ellipse fill="none" stroke="black" cx="101.897" cy="-279" rx="27" ry="18"/>
<text text-anchor="middle" x="101.897" y="-275.3" font-family="Times,serif" font-size="14.00">Im</text>
</g>
<!-- Use&#45;&gt;Im -->
<g id="edge5" class="edge"><title>Use&#45;&gt;Im</title>
<path fill="none" stroke="black" d="M117.502,-348.505C115.131,-342.739 112.665,-336.165 110.897,-330 108.815,-322.739 107.119,-314.741 105.783,-307.311"/>
<polygon fill="black" stroke="black" points="109.216,-306.617 104.133,-297.322 102.31,-307.758 109.216,-306.617"/>
<text text-anchor="middle" x="131.397" y="-318.8" font-family="Times,serif" font-size="14.00">0.015</text>
</g>
<!-- JR -->
<g id="node9" class="node"><title>JR</title>
<ellipse fill="none" stroke="black" cx="173.897" cy="-279" rx="27" ry="18"/>
<text text-anchor="middle" x="173.897" y="-275.3" font-family="Times,serif" font-size="14.00">JR</text>
</g>
<!-- Use&#45;&gt;JR -->
<g id="edge8" class="edge"><title>Use&#45;&gt;JR</title>
<path fill="none" stroke="black" d="M137.84,-349.894C142.603,-343.926 147.823,-336.863 151.897,-330 156.323,-322.546 160.393,-314.041 163.797,-306.185"/>
<polygon fill="black" stroke="black" points="167.129,-307.288 167.729,-296.71 160.663,-304.604 167.129,-307.288"/>
<text text-anchor="middle" x="180.397" y="-318.8" font-family="Times,serif" font-size="14.00">0.007</text>
</g>
<!-- Pf -->
<g id="node3" class="node"><title>Pf</title>
<ellipse fill="none" stroke="black" cx="141.897" cy="-192" rx="27" ry="18"/>
<text text-anchor="middle" x="141.897" y="-188.3" font-family="Times,serif" font-size="14.00">Pf</text>
</g>
<!-- BI -->
<g id="node4" class="node"><title>BI</title>
<ellipse fill="none" stroke="black" cx="142.897" cy="-105" rx="27" ry="18"/>
<text text-anchor="middle" x="142.897" y="-101.3" font-family="Times,serif" font-size="14.00">BI</text>
</g>
<!-- Pf&#45;&gt;BI -->
<g id="edge2" class="edge"><title>Pf&#45;&gt;BI</title>
<path fill="none" stroke="black" d="M142.1,-173.799C142.237,-162.163 142.42,-146.548 142.577,-133.237"/>
<polygon fill="black" stroke="black" points="146.077,-133.216 142.695,-123.175 139.078,-133.134 146.077,-133.216"/>
<text text-anchor="middle" x="163.397" y="-144.8" font-family="Times,serif" font-size="14.00">0.038</text>
</g>
<!-- BI&#45;&gt;PEU -->
<g id="edge4" class="edge"><title>BI&#45;&gt;PEU</title>
<path fill="none" stroke="black" d="M165.652,-114.792C193.472,-127.207 236.897,-152.716 236.897,-191 236.897,-367 236.897,-367 236.897,-367 236.897,-390.119 223.417,-412.854 210.895,-428.986"/>
<polygon fill="black" stroke="black" points="208.136,-426.832 204.511,-436.787 213.553,-431.265 208.136,-426.832"/>
<text text-anchor="middle" x="252.897" y="-275.3" font-family="Times,serif" font-size="14.00">0.02</text>
</g>
<!-- SA -->
<g id="node10" class="node"><title>SA</title>
<ellipse fill="none" stroke="black" cx="142.897" cy="-18" rx="27" ry="18"/>
<text text-anchor="middle" x="142.897" y="-14.3" font-family="Times,serif" font-size="14.00">SA</text>
</g>
<!-- BI&#45;&gt;SA -->
<g id="edge10" class="edge"><title>BI&#45;&gt;SA</title>
<path fill="none" stroke="black" d="M142.897,-86.799C142.897,-75.1626 142.897,-59.5479 142.897,-46.2368"/>
<polygon fill="black" stroke="black" points="146.397,-46.1754 142.897,-36.1754 139.397,-46.1755 146.397,-46.1754"/>
<text text-anchor="middle" x="163.397" y="-57.8" font-family="Times,serif" font-size="14.00">0.003</text>
</g>
<!-- Qu -->
<g id="node7" class="node"><title>Qu</title>
<ellipse fill="none" stroke="black" cx="29.8973" cy="-192" rx="27" ry="18"/>
<text text-anchor="middle" x="29.8973" y="-188.3" font-family="Times,serif" font-size="14.00">Qu</text>
</g>
<!-- PU&#45;&gt;Qu -->
<g id="edge6" class="edge"><title>PU&#45;&gt;Qu</title>
<path fill="none" stroke="black" d="M29.8973,-260.799C29.8973,-249.163 29.8973,-233.548 29.8973,-220.237"/>
<polygon fill="black" stroke="black" points="33.3974,-220.175 29.8973,-210.175 26.3974,-220.175 33.3974,-220.175"/>
<text text-anchor="middle" x="50.3973" y="-231.8" font-family="Times,serif" font-size="14.00">0.014</text>
</g>
<!-- Im&#45;&gt;Pf -->
<g id="edge9" class="edge"><title>Im&#45;&gt;Pf</title>
<path fill="none" stroke="black" d="M109.61,-261.611C115.365,-249.382 123.336,-232.443 129.918,-218.456"/>
<polygon fill="black" stroke="black" points="133.117,-219.877 134.209,-209.339 126.784,-216.896 133.117,-219.877"/>
<text text-anchor="middle" x="145.397" y="-231.8" font-family="Times,serif" font-size="14.00">0.004</text>
</g>
<!-- ENJ -->
<g id="node8" class="node"><title>ENJ</title>
<ellipse fill="none" stroke="black" cx="29.8973" cy="-105" rx="29.795" ry="18"/>
<text text-anchor="middle" x="29.8973" y="-101.3" font-family="Times,serif" font-size="14.00">ENJ</text>
</g>
<!-- Qu&#45;&gt;ENJ -->
<g id="edge7" class="edge"><title>Qu&#45;&gt;ENJ</title>
<path fill="none" stroke="black" d="M29.8973,-173.799C29.8973,-162.163 29.8973,-146.548 29.8973,-133.237"/>
<polygon fill="black" stroke="black" points="33.3974,-133.175 29.8973,-123.175 26.3974,-133.175 33.3974,-133.175"/>
<text text-anchor="middle" x="50.3973" y="-144.8" font-family="Times,serif" font-size="14.00">0.009</text>
</g>
</g>
</svg>
